<svg width="56" height="57" viewBox="0 0 56 57" fill="none" xmlns="http://www.w3.org/2000/svg">
<circle cx="28" cy="28.5" r="28" fill="white" fill-opacity="0.1"/>
<path d="M30.5997 39.7003L38.533 37.2337C38.4219 37.0337 38.2608 36.8614 38.0497 36.717C37.8386 36.5725 37.5997 36.5003 37.333 36.5003H30.5997C29.9997 36.5003 29.5219 36.4781 29.1663 36.4337C28.8108 36.3892 28.4441 36.3003 28.0663 36.167L26.1663 35.5337C25.8108 35.4225 25.5552 35.2003 25.3997 34.867C25.2441 34.5337 25.2219 34.1892 25.333 33.8337C25.4441 33.4781 25.6608 33.217 25.983 33.0503C26.3052 32.8837 26.6441 32.8559 26.9997 32.967L28.3997 33.4337C28.7775 33.5448 29.2052 33.6337 29.683 33.7003C30.1608 33.767 30.8108 33.8114 31.633 33.8337H31.9997C31.9997 33.5892 31.9275 33.3559 31.783 33.1337C31.6386 32.9114 31.4663 32.767 31.2663 32.7003L23.4663 29.8337H21.333V37.167L30.5997 39.7003ZM29.8997 42.3003L21.333 39.9003C21.1552 40.4781 20.8052 40.9448 20.283 41.3003C19.7608 41.6559 19.2219 41.8337 18.6663 41.8337H15.9997C15.2663 41.8337 14.6386 41.5725 14.1163 41.0503C13.5941 40.5281 13.333 39.9003 13.333 39.167V29.8337C13.333 29.1003 13.5941 28.4725 14.1163 27.9503C14.6386 27.4281 15.2663 27.167 15.9997 27.167H23.4663C23.6219 27.167 23.7775 27.1837 23.933 27.217C24.0886 27.2503 24.233 27.2892 24.3663 27.3337L32.1997 30.2337C32.933 30.5003 33.5275 30.967 33.983 31.6337C34.4386 32.3003 34.6663 33.0337 34.6663 33.8337H37.333C38.4441 33.8337 39.3886 34.2003 40.1663 34.9337C40.9441 35.667 41.333 36.6337 41.333 37.8337C41.333 38.3225 41.2052 38.7059 40.9497 38.9837C40.6941 39.2614 40.2997 39.4892 39.7663 39.667L31.433 42.267C31.1886 42.3559 30.933 42.4003 30.6663 42.4003C30.3997 42.4003 30.1441 42.367 29.8997 42.3003ZM15.9997 39.167H18.6663V29.8337H15.9997V39.167Z" fill="white"/>
<path d="M38.4261 18.4489L37.929 20.2031H28.6179L29.1151 18.4489H38.4261ZM33.8949 29.5L28.8097 23.3281L28.7955 21.9432H31.3168C31.9465 21.9432 32.4792 21.8461 32.9148 21.652C33.3504 21.4579 33.6818 21.1761 33.9091 20.8068C34.1364 20.4328 34.25 19.9782 34.25 19.4432C34.25 18.6477 34.0133 18.0156 33.5398 17.5469C33.0663 17.0781 32.3253 16.8438 31.3168 16.8438H28.6179L29.1364 14.9545H31.3168C32.491 14.9545 33.4593 15.1416 34.2216 15.5156C34.9839 15.8897 35.5521 16.4081 35.9261 17.071C36.3002 17.7339 36.4872 18.4986 36.4872 19.3651C36.4872 20.1368 36.3333 20.8352 36.0256 21.4602C35.7178 22.0852 35.2277 22.5942 34.5554 22.9872C33.883 23.3802 33 23.6098 31.9062 23.6761L31.8423 23.6903L36.4872 29.3793V29.5H33.8949ZM38.4332 14.9545L37.929 16.723L30.4858 16.6804L30.9901 14.9545H38.4332Z" fill="white"/>
</svg>
