<svg width="57" height="57" viewBox="0 0 57 57" fill="none" xmlns="http://www.w3.org/2000/svg">
<circle cx="28.5" cy="28.5" r="28" fill="#FF7A2F" fill-opacity="0.05"/>
<g clip-path="url(#clip0_1902_30994)">
<path d="M21.0337 24.767H21.3003C22.327 24.767 23.167 25.607 23.167 26.6337V35.967C23.167 36.9937 22.327 37.8337 21.3003 37.8337H21.0337C20.007 37.8337 19.167 36.9937 19.167 35.967V26.6337C19.167 25.607 20.007 24.767 21.0337 24.767ZM28.5003 19.167C29.527 19.167 30.367 20.007 30.367 21.0337V35.967C30.367 36.9937 29.527 37.8337 28.5003 37.8337C27.4737 37.8337 26.6337 36.9937 26.6337 35.967V21.0337C26.6337 20.007 27.4737 19.167 28.5003 19.167ZM35.967 29.8337C36.9937 29.8337 37.8337 30.6737 37.8337 31.7003V35.967C37.8337 36.9937 36.9937 37.8337 35.967 37.8337C34.9403 37.8337 34.1003 36.9937 34.1003 35.967V31.7003C34.1003 30.6737 34.9403 29.8337 35.967 29.8337Z" fill="#FF7A2F"/>
</g>
<defs>
<clipPath id="clip0_1902_30994">
<rect width="32" height="32" fill="white" transform="translate(12.5 12.5)"/>
</clipPath>
</defs>
</svg>
