<svg width="56" height="57" viewBox="0 0 56 57" fill="none" xmlns="http://www.w3.org/2000/svg">
<circle cx="28" cy="28.5" r="28" fill="white" fill-opacity="0.1"/>
<path d="M34.6667 41.833C32.8222 41.833 31.25 41.183 29.95 39.883C28.65 38.583 28 37.0108 28 35.1663C28 33.3219 28.65 31.7497 29.95 30.4497C31.25 29.1497 32.8222 28.4997 34.6667 28.4997C36.5111 28.4997 38.0833 29.1497 39.3833 30.4497C40.6833 31.7497 41.3333 33.3219 41.3333 35.1663C41.3333 37.0108 40.6833 38.583 39.3833 39.883C38.0833 41.183 36.5111 41.833 34.6667 41.833ZM35.3333 34.8997V31.833C35.3333 31.6552 35.2667 31.4997 35.1333 31.3663C35 31.233 34.8444 31.1663 34.6667 31.1663C34.4889 31.1663 34.3333 31.233 34.2 31.3663C34.0667 31.4997 34 31.6552 34 31.833V34.8663C34 35.0441 34.0333 35.2163 34.1 35.383C34.1667 35.5497 34.2667 35.6997 34.4 35.833L36.4333 37.8663C36.5667 37.9997 36.7222 38.0663 36.9 38.0663C37.0778 38.0663 37.2333 37.9997 37.3667 37.8663C37.5 37.733 37.5667 37.5775 37.5667 37.3997C37.5667 37.2219 37.5 37.0663 37.3667 36.933L35.3333 34.8997ZM18.6667 40.4997C17.9333 40.4997 17.3056 40.2386 16.7833 39.7163C16.2611 39.1941 16 38.5663 16 37.833V19.1663C16 18.433 16.2611 17.8052 16.7833 17.283C17.3056 16.7608 17.9333 16.4997 18.6667 16.4997H24.2333C24.4778 15.7219 24.9556 15.083 25.6667 14.583C26.3778 14.083 27.1556 13.833 28 13.833C28.8889 13.833 29.6833 14.083 30.3833 14.583C31.0833 15.083 31.5556 15.7219 31.8 16.4997H37.3333C38.0667 16.4997 38.6944 16.7608 39.2167 17.283C39.7389 17.8052 40 18.433 40 19.1663V24.4997C40 24.8775 39.8722 25.1941 39.6167 25.4497C39.3611 25.7052 39.0444 25.833 38.6667 25.833C38.2889 25.833 37.9722 25.7052 37.7167 25.4497C37.4611 25.1941 37.3333 24.8775 37.3333 24.4997V19.1663H34.6667V21.833C34.6667 22.2108 34.5389 22.5275 34.2833 22.783C34.0278 23.0386 33.7111 23.1663 33.3333 23.1663H22.6667C22.2889 23.1663 21.9722 23.0386 21.7167 22.783C21.4611 22.5275 21.3333 22.2108 21.3333 21.833V19.1663H18.6667V37.833H24.6667C25.0444 37.833 25.3611 37.9608 25.6167 38.2163C25.8722 38.4719 26 38.7886 26 39.1663C26 39.5441 25.8722 39.8608 25.6167 40.1163C25.3611 40.3719 25.0444 40.4997 24.6667 40.4997H18.6667ZM28 19.1663C28.3778 19.1663 28.6944 19.0386 28.95 18.783C29.2056 18.5275 29.3333 18.2108 29.3333 17.833C29.3333 17.4552 29.2056 17.1386 28.95 16.883C28.6944 16.6275 28.3778 16.4997 28 16.4997C27.6222 16.4997 27.3056 16.6275 27.05 16.883C26.7944 17.1386 26.6667 17.4552 26.6667 17.833C26.6667 18.2108 26.7944 18.5275 27.05 18.783C27.3056 19.0386 27.6222 19.1663 28 19.1663Z" fill="white"/>
</svg>
