<svg width="57" height="57" viewBox="0 0 57 57" fill="none" xmlns="http://www.w3.org/2000/svg">
<circle cx="28.5" cy="28.5" r="28" fill="#FF7A2F" fill-opacity="0.05"/>
<path d="M35.9347 21.6165L35.1136 24.4176H19.4659L20.2869 21.6165H35.9347ZM28.5938 40.5L19.7557 29.6818L19.7074 27.6534H24.1023C25.2453 27.6534 26.2192 27.4924 27.0241 27.1705C27.8291 26.8404 28.4448 26.3494 28.8714 25.6974C29.2981 25.0374 29.5114 24.2083 29.5114 23.2102C29.5114 21.7372 29.0687 20.5821 28.1832 19.745C27.2978 18.8999 25.9375 18.4773 24.1023 18.4773H19.4659L20.2869 15.7727H24.1023C26.0663 15.7727 27.6761 16.0987 28.9318 16.7507C30.1955 17.3946 31.1293 18.2801 31.733 19.407C32.3447 20.5258 32.6506 21.7936 32.6506 23.2102C32.6506 24.4901 32.3688 25.6693 31.8054 26.7479C31.25 27.8184 30.3565 28.6797 29.125 29.3317C27.9015 29.9837 26.2836 30.3097 24.2713 30.3097H24.1989L32.3608 40.3068V40.5H28.5938ZM35.9347 15.7727L35.1136 18.5739L22.7983 18.4773L23.6193 15.7727H35.9347Z" fill="#FF7A2F"/>
</svg>
