<svg width="40" height="30" viewBox="0 0 46 35" fill="none" xmlns="http://www.w3.org/2000/svg">
<g clip-path="url(#clip0_2266_21867)">
<path d="M42.2919 11.3651C42.0446 11.733 41.9546 12.1758 41.8792 12.6373C41.7869 13.1992 41.6894 13.7387 41.4873 14.2677C41.2446 14.9015 40.8366 15.6077 40.127 16.1605C39.395 14.2148 38.3289 12.407 36.9751 10.8158C37.8209 10.4834 38.6509 10.4885 39.3334 10.5993C39.9002 10.6916 40.4241 10.8783 40.9654 11.0804C41.4093 11.2472 41.8442 11.3921 42.2917 11.3651H42.2919ZM34.0563 3.26684L34.056 3.26729L34.0566 3.26714C34.0292 3.70709 34.1764 4.13475 34.3458 4.5714C34.5515 5.10366 34.7414 5.61868 34.8354 6.17611C34.9479 6.84772 34.953 7.66498 34.6141 8.49737C32.9935 7.16809 31.1529 6.12217 29.1725 5.40515C29.7358 4.70132 30.4573 4.29778 31.1048 4.05803C31.6427 3.85933 32.1913 3.76358 32.763 3.67248C33.2321 3.59845 33.6823 3.51034 34.0563 3.26684ZM40.994 19.3396C41.8891 19.4699 42.6013 19.8804 43.1336 20.3097C43.5775 20.6685 43.9361 21.0877 44.3022 21.5292C44.6017 21.8914 44.9047 22.2308 45.3058 22.4275H41.2648C41.2637 21.3926 41.173 20.3595 40.994 19.3396ZM11.5571 3.26714L11.5574 3.26744V3.26684C11.9313 3.51019 12.3816 3.5983 12.8508 3.67263C13.4222 3.76343 13.9708 3.85933 14.5087 4.05788C15.1562 4.29763 15.8777 4.70132 16.4409 5.405C14.4604 6.12196 12.6199 7.16795 10.9994 8.49737C10.6605 7.66498 10.6653 6.84772 10.7783 6.17596C10.8721 5.61853 11.062 5.10351 11.2676 4.5711C11.437 4.1346 11.5845 3.70709 11.5571 3.26714ZM3.3218 11.3654L3.32226 11.3656L3.32211 11.3653C3.7695 11.3921 4.20439 11.2472 4.64843 11.0806C5.18969 10.8783 5.71342 10.6916 6.28013 10.5993C6.96279 10.4887 7.79281 10.4836 8.63853 10.8159C7.28492 12.4072 6.2189 14.215 5.48683 16.1607C4.77704 15.6077 4.36927 14.9016 4.12638 14.2677C3.92432 13.7387 3.82695 13.1992 3.73445 12.6373C3.65902 12.1758 3.56927 11.7332 3.3218 11.3654ZM0.307861 22.4277C0.70908 22.2309 1.01186 21.8917 1.31159 21.5293C1.67731 21.0881 2.03617 20.6688 2.4799 20.3102C3.01232 19.8806 3.72409 19.47 4.61933 19.3399C4.4404 20.3598 4.35002 21.3928 4.34916 22.4277H0.307861ZM22.8069 0.302734V0.303184L22.8072 0.302734C23.0071 0.697429 23.3523 0.995174 23.7209 1.29022C24.1697 1.64985 24.5962 2.00259 24.9608 2.43894C25.4001 2.9658 25.8202 3.67128 25.9498 4.55957C24.9117 4.3843 23.8603 4.29623 22.8071 4.29629C21.7355 4.29629 20.6858 4.38709 19.6641 4.55957C19.7936 3.67143 20.2137 2.9658 20.653 2.43924C21.018 2.00259 21.4443 1.64985 21.8931 1.28992C22.2615 0.995324 22.6067 0.697429 22.8069 0.302734Z" fill="#8298AF"/>
<path d="M19.0532 22.4314L20.442 22.4275C20.6244 21.274 20.2676 20.3858 19.0812 20.5978C18.0813 20.7763 17.0073 21.7532 16.3582 22.4275L18.1892 22.4195C18.3932 22.2877 18.7926 22.1371 18.9566 22.2491C19.0178 22.2911 19.05 22.3507 19.0532 22.4314Z" fill="#8298AF"/>
<path d="M25.2985 22.428H27.0311C27.1135 20.416 26.7839 18.3383 25.8328 16.5406C24.9676 14.9051 23.5375 13.7934 21.686 13.5247C18.9833 13.1325 16.2561 14.2577 13.9504 15.8674C11.4401 17.62 9.36802 20.0003 7.55713 22.4281L9.84589 22.4248C11.9064 19.5529 16.6456 15.1928 20.1319 15.1643C21.2428 15.1553 22.3725 15.4117 23.2077 16.1445C23.8128 16.6755 24.5465 17.7066 24.5106 18.5435C24.4892 19.0396 24.0414 19.1919 23.612 19.038C23.2784 18.9187 23.0428 18.6189 22.8094 18.3036C22.0508 17.2794 20.8676 16.7782 19.5698 16.9529C18.0217 17.161 16.103 18.343 14.8653 19.4178C13.7982 20.3451 12.8184 21.3595 11.8942 22.4281H14.3548C15.2568 21.3573 16.2092 20.4441 17.4334 19.6943C17.8207 19.4571 18.2979 19.2061 18.7993 19.0365C20.0644 18.609 21.3232 18.7173 21.8823 20.2661C22.1019 20.8751 22.1342 21.4093 22.0702 22.3881V22.4281H23.7433L23.7476 22.3778C23.7488 21.8418 23.7369 21.4805 23.7862 20.9493C23.8284 20.4913 23.9731 20.0169 24.4056 19.9606C25.3246 19.7712 25.2806 21.7818 25.2985 22.4281V22.428Z" fill="#8298AF"/>
<path d="M28.8529 22.4273H30.5999C30.6845 20.5607 30.5218 18.3491 29.9075 16.4181C29.7891 16.0429 29.6498 15.6745 29.4904 15.3143C29.1186 14.4798 28.6182 13.7244 28.0218 13.0263C27.3586 12.2508 26.5687 11.5535 25.678 11.0043C25.414 10.8412 25.1413 10.692 24.8613 10.5573V10.557C24.58 10.4216 24.2912 10.3021 23.9962 10.199L23.995 10.1986C20.5931 9.01072 17.1523 9.8554 14.2659 11.3993C13.7102 11.6973 13.1696 12.0218 12.6461 12.3716C12.1415 12.7084 11.6518 13.0664 11.1784 13.4444L11.1773 13.4451C10.5022 13.9842 9.86363 14.566 9.26553 15.1868C9.13189 15.326 8.99993 15.4677 8.87163 15.6108C8.52831 15.9937 7.99924 16.5303 8.1562 17.085C8.28054 17.525 8.85791 17.3952 9.0589 17.2439C9.36763 17.081 9.70652 16.8228 9.99681 16.5814C10.3895 16.2544 10.7605 15.9023 11.1496 15.5708C12.7226 14.2297 14.3624 13.1956 15.9775 12.4957C16.3238 12.3454 16.676 12.2083 17.0331 12.0847C17.3763 11.9658 17.7244 11.8611 18.0765 11.7709L18.078 11.7704C21.0834 11.0032 24.3491 11.5003 26.4401 13.9102C28.4546 16.2318 28.8221 19.3393 28.8529 22.4275V22.4273ZM7.17715 19.8032C7.36488 19.6309 7.55612 19.4061 7.75544 19.1574C8.03429 18.8095 8.06233 18.4726 7.95201 18.2296C7.91217 18.1409 7.85222 18.0625 7.77677 18.0001C7.70378 17.9399 7.61738 17.8975 7.52458 17.8764C7.29738 17.8253 7.02553 17.9053 6.79467 18.1815C6.5338 18.4936 6.17342 19.0275 6.09982 19.4998C6.08571 19.5841 6.08294 19.6699 6.09159 19.755C6.10073 19.8335 6.12206 19.9081 6.15787 19.9763L6.15818 19.9769C6.217 20.0878 6.3162 20.1462 6.44831 20.1512C6.47589 20.1521 6.50576 20.1509 6.53745 20.1474C6.56839 20.1441 6.60191 20.138 6.63757 20.1299V20.1302L6.6394 20.1298C6.81738 20.0878 6.99536 19.97 7.17715 19.8031V19.8032Z" fill="#8298AF"/>
<path d="M33.2228 22.4281L33.2352 22.4278H33.2414C33.4243 22.4377 33.7415 22.355 33.9245 22.0514C33.961 21.9907 33.9924 21.9213 34.016 21.8427C34.0404 21.7625 34.0571 21.6716 34.0641 21.5695L34.0655 21.5485C34.2043 16.7774 32.7183 12.8275 30.1953 10.1442C29.7098 9.62707 29.1794 9.15247 28.6103 8.72574C28.0471 8.30379 27.447 7.93182 26.817 7.61418H26.8169L26.8068 7.60939L26.8065 7.60909C24.686 6.54338 22.2808 6.13415 19.9203 6.3309C18.9999 6.40737 18.0897 6.57545 17.2038 6.83258L17.1975 6.83453C14.7698 7.54076 12.5106 8.94257 10.6695 10.7818C10.1323 11.3182 9.63272 11.8899 9.17407 12.4927C10.4652 11.3973 11.8503 10.4365 13.2992 9.67307C13.6222 9.50261 13.9502 9.3415 14.2828 9.18996C14.6118 9.04005 14.9455 8.90032 15.2835 8.77099L15.2844 8.77069L15.2853 8.77025C16.5653 8.281 17.8272 7.96902 19.0893 7.82966C20.3514 7.6903 21.6143 7.72327 22.8969 7.92376C23.8097 8.06672 24.7005 8.30168 25.5031 8.63044C25.6586 8.69412 25.8119 8.76185 25.9619 8.83348C26.11 8.90406 26.2558 8.97898 26.3986 9.05825H26.3988L26.401 9.05945L26.4009 9.0596C29.2265 10.5811 31.1895 13.703 32.0541 17.228C32.3935 18.6139 32.5604 20.0352 32.5511 21.4607V21.461L32.5507 21.5021C32.5652 21.8837 32.6982 22.2032 32.9261 22.3469C32.9685 22.3736 33.0145 22.3946 33.0634 22.408H33.0637C33.1137 22.422 33.1668 22.429 33.2228 22.4281Z" fill="#8298AF"/>
<path d="M28.1707 6.52637C34.9643 8.73285 39.8738 15.0152 39.9025 22.4274H36.5409C36.7634 15.9526 33.8897 10.1081 28.1707 6.52637Z" fill="#8298AF"/>
<path d="M3.6488 32.8306H1.8642L1.4222 34.3676H0L1.882 28.4811H3.684L5.619 34.3676H4.1348L3.6488 32.8306ZM2.0674 31.8348H3.4368C3.0776 30.6847 2.8448 29.8959 2.7388 29.4679H2.721L2.4384 30.5859L2.0674 31.8348ZM10.204 32.8306H8.4192L7.9776 34.3676H6.5552L8.4368 28.4811H10.2394L12.1742 34.3676H10.69L10.204 32.8306ZM8.6224 31.8348H9.9918C9.6326 30.6847 9.3998 29.8959 9.2938 29.4679H9.2762L8.9936 30.5859L8.6224 31.8348ZM13.5342 34.3415V28.5598C14.1232 28.4724 14.7534 28.4287 15.4248 28.4287C16.6942 28.4287 17.6056 28.6907 18.158 29.2162C18.71 29.7417 18.9854 30.4287 18.9854 31.2759C18.9854 32.2775 18.6718 33.0533 18.043 33.6035C17.4142 34.1535 16.444 34.4287 15.1334 34.4287C14.5268 34.4287 13.9936 34.3996 13.5342 34.3415ZM14.9036 29.5204V33.3546C14.9802 33.372 15.1452 33.3807 15.3984 33.3807C16.0786 33.3807 16.6058 33.2031 16.9784 32.8494C17.351 32.4955 17.5364 31.9892 17.5364 31.3283C17.5364 30.7227 17.3672 30.2613 17.027 29.9439C16.6868 29.6266 16.1966 29.4679 15.5574 29.4679C15.2894 29.4679 15.0714 29.4856 14.9036 29.5204ZM20.4516 28.4811H21.821V30.7431H24.1622V28.4813H25.5318V34.3676H24.1622V31.9135H21.821V34.3676H20.4516V28.4811ZM30.4964 32.8306H28.7118L28.27 34.3676H26.8476L28.7296 28.4811H30.5318L32.4668 34.3676H30.9824L30.4964 32.8306ZM28.915 31.8348H30.2844C29.9252 30.6847 29.6924 29.8959 29.5864 29.4679H29.5688L29.286 30.5859L28.915 31.8348ZM37.0516 32.8306H35.2668L34.825 34.3676H33.4026L35.2844 28.4811H37.0868L39.0216 34.3676H37.5376L37.0516 32.8306ZM35.47 31.8348H36.8394C36.4802 30.6847 36.2474 29.8959 36.1414 29.4679H36.1238L35.841 30.5859L35.47 31.8348ZM40.3816 34.3674V28.5598C40.8826 28.4724 41.498 28.4287 42.2284 28.4287C43.1296 28.4287 43.7774 28.5758 44.172 28.8698C44.5666 29.1638 44.764 29.5845 44.764 30.1318C44.764 30.458 44.6652 30.752 44.4664 31.0155C44.2731 31.275 44.0038 31.4696 43.695 31.5728V31.6076C44.066 31.7446 44.334 32.1057 44.499 32.6907C44.8022 33.7444 44.967 34.3036 44.9936 34.3676H43.5976C43.48 34.1494 43.3386 33.6923 43.1736 32.9963C43.0912 32.6472 42.9792 32.4026 42.838 32.2628C42.6966 32.1231 42.4698 32.0533 42.1576 32.0533H41.7336V34.3676H40.3816V34.3674ZM41.7336 29.4679V31.0837H42.299C42.6406 31.0837 42.91 31.0066 43.1074 30.8538C43.3048 30.701 43.4034 30.4957 43.4034 30.2365C43.4034 29.9775 43.315 29.7765 43.1368 29.6355C42.9588 29.4941 42.7054 29.4244 42.3786 29.4244C42.0576 29.4244 41.8426 29.439 41.7336 29.4679Z" fill="#8298AF"/>
</g>
<defs>
<clipPath id="clip0_2266_21867">
<rect width="46" height="35" fill="white"/>
</clipPath>
</defs>
</svg>
