<svg width="80" height="80" viewBox="0 0 80 80" fill="none" xmlns="http://www.w3.org/2000/svg">
<rect width="80" height="80" rx="40" fill="#B5179E"/>
<path d="M54.9957 38.1445C56.1529 36.8386 56.8803 35.1193 56.8803 33.2348C56.8803 29.1351 53.5575 25.7959 49.4579 25.7959C45.3582 25.7959 42.019 29.1351 42.019 33.2348C42.019 35.1193 42.7463 36.8386 43.92 38.1445L41.4569 42.3929L45.3251 41.9466L46.8791 45.5173L49.4579 41.0539L52.0367 45.5173L53.5741 41.9466L57.4423 42.3929L54.9957 38.1445ZM49.4579 38.8884C46.3335 38.8884 43.8043 36.3426 43.8043 33.2348C43.8043 30.127 46.3335 27.5812 49.4579 27.5812C52.5657 27.5812 55.1115 30.127 55.1115 33.2348C55.1115 36.3426 52.5657 38.8884 49.4579 38.8884Z" fill="white"/>
<path d="M52.0979 51.0931V47.4365H50.3158V51.0931H30.9052V54.6572C30.9052 56.6211 29.3067 58.218 27.3444 58.218C25.3822 58.218 23.7837 56.6194 23.7837 54.6572V23.782C23.7837 22.1252 25.1268 20.782 26.7837 20.782H47.4014C49.011 20.782 50.3158 22.0869 50.3158 23.6964H52.0979V23C52.0979 20.7909 50.307 19 48.0979 19H26C23.7909 19 22 20.7909 22 23V54.6572C22 57.603 24.397 60 27.3428 60H52.5508C55.5214 60 57.9382 57.5832 57.9382 54.6142V51.0915H52.0979V51.0931ZM56.1562 54.6159C56.1562 56.6029 54.5378 58.2196 52.5508 58.2196H31.3251C32.1715 57.2741 32.6872 56.026 32.6872 54.6589V52.8768H56.1562V54.6175V54.6159Z" fill="white"/>
</svg>
