<svg width="33" height="33" viewBox="0 0 35 28" fill="none" xmlns="http://www.w3.org/2000/svg">
<path d="M32.4125 0C33.8141 0 35 1.18594 35 2.5875V19.8375C35 21.293 33.8141 22.425 32.4125 22.425H19.475V24.15H28.9625C29.3938 24.15 29.825 24.5813 29.825 25.0125V26.7375C29.825 27.2227 29.3938 27.6 28.9625 27.6H6.5375C6.05234 27.6 5.675 27.2227 5.675 26.7375V25.0125C5.675 24.5813 6.05234 24.15 6.5375 24.15H16.025V22.425H3.0875C1.63203 22.425 0.5 21.293 0.5 19.8375V2.5875C0.5 1.18594 1.63203 0 3.0875 0H32.4125ZM31.55 18.975V3.45H3.95V18.975H31.55Z" fill="#8298AF"/>
</svg>
