<svg width="22" height="35" viewBox="0 0 27 38" fill="none" xmlns="http://www.w3.org/2000/svg">
<path d="M7.11111 33.7037V30.8148H18.8889V33.7037C18.8889 34.1481 18.7407 34.5926 18.5185 35.037L17.2593 36.8889C16.8148 37.5556 16.0741 38 15.2593 38H10.7407C9.92593 38 9.18518 37.5556 8.74074 36.8889L7.48148 35.037C7.18518 34.5926 7.11111 34.1481 7.11111 33.7037ZM0 13.037C0 6.14815 5.40741 0.0740741 12.963 0C20.1481 0 26.0741 5.85185 26.0741 13.037C26.0741 16.3704 24.8148 19.3333 22.8148 21.6296C21.5556 23.037 19.7037 26 18.963 28.4444C18.963 28.4444 18.963 28.4444 18.963 28.5185H7.03704C7.03704 28.4444 7.03704 28.4444 7.03704 28.4444C6.2963 26 4.44444 23.037 3.18518 21.6296C1.18519 19.3333 0 16.3704 0 13.037ZM13.037 7.11111C13.6296 7.11111 14.2222 6.59259 14.2222 5.92593C14.2222 5.33333 13.6296 4.74074 13.037 4.74074C8.44444 4.74074 4.74074 8.51852 4.74074 13.037C4.74074 13.7037 5.25926 14.2222 5.92593 14.2222C6.51852 14.2222 7.11111 13.7037 7.11111 13.037C7.11111 9.77778 9.7037 7.11111 13.037 7.11111Z" fill="#8298AF"/>
</svg>
