<svg width="37" height="34" viewBox="0 0 42 39" fill="none" xmlns="http://www.w3.org/2000/svg">
<path d="M16.0336 34.3154H16.0211V34.3279V34.9927C16.0211 35.5431 15.8093 36.0107 15.385 36.3962C14.9606 36.7818 14.4454 36.9747 13.8386 36.9747C13.2318 36.9747 12.7166 36.7818 12.2923 36.3962C11.868 36.0107 11.6562 35.5431 11.6562 34.9927V25.4858C11.6562 25.3313 11.6683 25.1768 11.6926 25.0223C11.7169 24.868 11.7533 24.7248 11.8017 24.5927C11.8017 24.5926 11.8017 24.5926 11.8017 24.5926L14.5454 17.5124L14.5454 17.5124L14.5455 17.5122C14.7396 16.9831 15.0913 16.5531 15.6014 16.222C16.1115 15.8909 16.6822 15.7254 17.314 15.7254H32.3129C32.9447 15.7254 33.5155 15.8909 34.0255 16.222C34.5356 16.5531 34.8874 16.9831 35.0815 17.5122L35.0816 17.5124L37.8252 24.5926C37.8252 24.5926 37.8252 24.5926 37.8252 24.5927C37.8737 24.7248 37.9101 24.868 37.9343 25.0223C37.9586 25.1768 37.9708 25.3313 37.9708 25.4858V34.9927C37.9708 35.5431 37.759 36.0107 37.3347 36.3962C36.9103 36.7818 36.3951 36.9747 35.7883 36.9747C35.1815 36.9747 34.6663 36.7818 34.2419 36.3962C33.8176 36.0107 33.6058 35.5431 33.6058 34.9927V34.3279V34.3154H33.5933H16.0336ZM15.7293 22.3566L15.7227 22.3736H15.7409H33.886H33.9042L33.8977 22.3566L32.3612 18.3677L32.3581 18.3597H32.3495H17.2774H17.2688L17.2658 18.3677L15.7293 22.3566ZM18.2286 30.3515C18.8412 30.3515 19.3625 30.1565 19.7918 29.7665C20.221 29.3764 20.436 28.9022 20.436 28.3445C20.436 27.7868 20.221 27.3126 19.7918 26.9225C19.3625 26.5325 18.8412 26.3375 18.2286 26.3375C17.616 26.3375 17.0946 26.5325 16.6654 26.9225C16.2361 27.3126 16.0211 27.7868 16.0211 28.3445C16.0211 28.9022 16.2361 29.3764 16.6654 29.7665C17.0946 30.1565 17.616 30.3515 18.2286 30.3515ZM31.3984 30.3515C32.011 30.3515 32.5323 30.1565 32.9616 29.7665C33.3908 29.3764 33.6058 28.9022 33.6058 28.3445C33.6058 27.7868 33.3908 27.3126 32.9616 26.9225C32.5323 26.5325 32.011 26.3375 31.3984 26.3375C30.7857 26.3375 30.2644 26.5325 29.8352 26.9225C29.4059 27.3126 29.1909 27.7868 29.1909 28.3445C29.1909 28.9022 29.4059 29.3764 29.8352 29.7665C30.2644 30.1565 30.7857 30.3515 31.3984 30.3515Z" fill="#8298AF" stroke="#8298AF" stroke-width="0.025"/>
<path d="M4.55225 1.5293L4.55225 37.9995" stroke="#8298AF" stroke-width="3"/>
<path d="M4.48584 17.7843L24.8135 2.54237" stroke="#8298AF" stroke-width="3"/>
<path d="M0.5 37.5107L41.0225 37.5107" stroke="#8298AF" stroke-width="1.2"/>
</svg>
