<svg width="71" height="54" viewBox="0 0 71 54" fill="none" xmlns="http://www.w3.org/2000/svg">
<path d="M11.2522 18.6375H15.639C16.4949 18.6375 17.1887 17.9437 17.1887 17.0878C17.1887 16.2319 16.4949 15.5381 15.639 15.5381H11.2522C10.553 15.5381 9.98633 16.1048 9.98633 16.8039V17.3715C9.98618 18.0708 10.553 18.6375 11.2522 18.6375Z" fill="#FF7A2F"/>
<path d="M44.4305 11.7388C40.3921 11.5728 36.6982 13.0424 33.9542 15.5381H21.8888C21.0355 15.5381 20.3037 16.2056 20.2881 17.0587C20.2721 17.9278 20.972 18.6374 21.8375 18.6374H31.3671H34.961C35.8143 18.6374 36.5461 19.305 36.5618 20.1581C36.5777 21.0272 35.8778 21.7368 35.0124 21.7368H32.1629H32.1627H2.21448C1.47875 21.7368 0.882324 22.3333 0.882324 23.069V23.504C0.882324 24.2398 1.47875 24.8362 2.21448 24.8362H29.2344H34.9608C35.8141 24.8362 36.5459 25.5037 36.5616 26.3569C36.5776 27.226 35.8777 27.9356 35.0122 27.9356H32.4585H29.2344H26.7821C25.9289 27.9356 25.197 28.6031 25.1814 29.4563C25.1655 30.3254 25.8653 31.035 26.7308 31.035H29.906H32.4585H34.2338C35.087 31.035 35.8189 31.7024 35.8346 32.5555C35.8506 33.4246 35.1509 34.1341 34.2855 34.1343H25.1811C24.3252 34.1343 23.6315 34.8281 23.6315 35.6839C23.6315 36.5398 24.3253 37.2336 25.1812 37.2336H33.9542C36.5576 39.6014 40.0161 41.0456 43.8126 41.0456C51.978 41.0456 58.5842 34.3697 58.4707 26.1782C58.3634 18.4386 52.1636 12.0566 44.4305 11.7388ZM48.7963 32.0628C48.4678 32.7283 48.0229 33.2834 47.4613 33.7285C46.8995 34.1735 46.2429 34.5085 45.491 34.7331C45.2979 34.7907 45.1014 34.8409 44.9014 34.8837V36.7525C44.9014 37.4772 44.3138 38.0648 43.5891 38.0648C42.8644 38.0648 42.2769 37.4772 42.2769 36.7525V35.0368C42.2769 35.0368 42.2785 35.037 42.2792 35.037C41.9971 35.0132 41.726 34.9769 41.4664 34.9271C40.9694 34.8319 40.531 34.7177 40.1508 34.5836C39.7704 34.4498 39.4529 34.3095 39.1981 34.1624C38.9431 34.0155 38.7594 33.8861 38.6472 33.7736C38.5348 33.6614 38.4548 33.4993 38.4075 33.2875C38.3599 33.0759 38.3362 32.7713 38.3362 32.3737C38.3362 32.1059 38.3448 31.881 38.3621 31.6996C38.3793 31.5181 38.4075 31.3712 38.4464 31.2589C38.4853 31.1466 38.5371 31.0666 38.6019 31.0192C38.6668 30.9717 38.7423 30.9479 38.8288 30.9479C38.9496 30.9479 39.1204 31.0192 39.3407 31.1618C39.561 31.3043 39.844 31.4622 40.1897 31.6349C40.5352 31.8079 40.9479 31.9653 41.4275 32.108C41.9071 32.2505 42.4622 32.3219 43.0931 32.3219C43.5079 32.3219 43.8794 32.2722 44.2079 32.1728C44.5362 32.0736 44.8149 31.9331 45.0439 31.7516C45.2728 31.5702 45.4478 31.3455 45.5688 31.0776C45.6897 30.8099 45.7503 30.5118 45.7503 30.1831C45.7503 29.8031 45.6466 29.4767 45.4392 29.2045C45.2318 28.9322 44.9616 28.6905 44.629 28.4786C44.2963 28.267 43.9183 28.0684 43.495 27.8823C43.0715 27.6966 42.635 27.4999 42.1859 27.2926C41.7364 27.0851 41.3001 26.8498 40.8768 26.5862C40.4532 26.3228 40.0752 26.0074 39.7426 25.64C39.4098 25.2727 39.1397 24.8385 38.9325 24.3373C38.7252 23.8362 38.6214 23.2356 38.6214 22.5357C38.6214 21.732 38.7704 21.0256 39.0685 20.4164C39.3666 19.8072 39.7684 19.3016 40.274 18.8998C40.7794 18.498 41.3757 18.1979 42.0627 17.9989C42.1336 17.9785 42.205 17.9593 42.2769 17.9409V16.0184C42.2769 15.2935 42.8644 14.7061 43.5891 14.7061C44.3138 14.7061 44.9014 15.2935 44.9014 16.0184V17.7286C45.0806 17.7435 45.2599 17.7643 45.4392 17.7916C45.8365 17.8521 46.2082 17.9341 46.554 18.0378C46.8995 18.1414 47.2063 18.2583 47.4743 18.3878C47.7421 18.5174 47.9192 18.6255 48.0057 18.7119C48.0921 18.7984 48.1503 18.872 48.1807 18.9323C48.2109 18.993 48.2369 19.0729 48.2585 19.1721C48.28 19.2715 48.2951 19.3968 48.3038 19.5479C48.3124 19.6993 48.3169 19.887 48.3169 20.1117C48.3169 20.3624 48.3103 20.574 48.2974 20.7468C48.2845 20.9198 48.2627 21.0623 48.2325 21.1745C48.2022 21.287 48.1591 21.369 48.103 21.4208C48.0467 21.4727 47.9712 21.4985 47.8761 21.4985C47.7809 21.4985 47.6299 21.4382 47.4225 21.3172C47.2151 21.1963 46.9602 21.0645 46.6577 20.9219C46.3552 20.7794 46.0052 20.6498 45.6078 20.5331C45.2102 20.4164 44.7739 20.3581 44.2988 20.3581C43.9271 20.3581 43.6031 20.4034 43.3266 20.4942C43.05 20.585 42.8189 20.7104 42.6331 20.8702C42.4472 21.0303 42.3091 21.2224 42.2184 21.4469C42.1277 21.6717 42.0823 21.9092 42.0823 22.1598C42.0823 22.5315 42.1837 22.8532 42.3869 23.1254C42.5897 23.3977 42.862 23.6397 43.2034 23.8513C43.5447 24.0632 43.9313 24.2618 44.3635 24.4476C44.7955 24.6335 45.2362 24.83 45.6855 25.0373C46.1348 25.2447 46.5753 25.4802 47.0076 25.7436C47.4396 26.0074 47.8242 26.3228 48.1612 26.6898C48.4981 27.0572 48.7703 27.4892 48.9777 27.9859C49.1851 28.483 49.2888 29.0682 49.2888 29.7423C49.2888 30.624 49.1246 31.3975 48.7963 32.0628Z" fill="#FF7A2F"/>
<path d="M43.6932 0C30.8781 0 20.1482 8.92809 17.3843 20.9036H20.7773C20.913 20.3922 21.064 19.8869 21.2324 19.3898C20.2109 19.1212 19.4543 18.1924 19.4543 17.0878C19.4543 15.7739 20.5232 14.705 21.8371 14.705H23.4177C27.576 7.86208 35.1008 3.29122 43.6932 3.29122C56.7872 3.29122 67.4018 13.9058 67.4018 26.9999C67.4018 40.0939 56.787 50.7086 43.6932 50.7086C32.2678 50.7086 22.731 42.6264 20.4857 31.8677H17.1318C19.4239 44.4559 30.4436 54 43.6932 54C58.6049 54 70.6932 41.9117 70.6932 27.0001C70.6932 12.0883 58.6049 0 43.6932 0Z" fill="#FF7A2F"/>
<path d="M20.5323 27.9351H14.8045C14.2323 27.9351 13.7686 28.3988 13.7686 28.971V29.9983C13.7686 30.5705 14.2325 31.0343 14.8045 31.0343H20.5323C21.3881 31.0343 22.0819 30.3405 22.0819 29.4846C22.0819 28.6287 21.388 27.9351 20.5323 27.9351Z" fill="#FF7A2F"/>
</svg>
