<svg width="80" height="80" viewBox="0 0 80 80" fill="none" xmlns="http://www.w3.org/2000/svg">
<rect width="80" height="80" rx="40" fill="#F72585"/>
<path d="M66.2903 34.6861C66.0073 33.4427 65.2425 32.3623 64.1638 31.6822C63.0851 31.0021 61.7805 30.7779 60.5366 31.0587L49.3984 33.5787L30.5083 19.9057C29.9587 19.5083 29.3307 19.2324 28.6662 19.0967C28.0017 18.9609 27.3159 18.9682 26.6544 19.1182L24.4396 19.6104C24.279 19.6469 24.1301 19.723 24.0066 19.8319C23.883 19.9408 23.7888 20.079 23.7325 20.2337C23.6762 20.3885 23.6596 20.5549 23.6842 20.7177C23.7089 20.8806 23.774 21.0346 23.8736 21.1657L35.6861 36.6746L26.2311 38.8303L18.0461 33.5344C17.9358 33.4632 17.8123 33.4147 17.683 33.3919C17.5537 33.369 17.4211 33.3723 17.293 33.4015L13.769 34.1989C13.6128 34.2339 13.4676 34.3064 13.3458 34.4102C13.224 34.5139 13.1294 34.6458 13.0701 34.7944C13.0106 34.9435 12.9885 35.1048 13.0056 35.2644C13.0228 35.4239 13.0787 35.5769 13.1685 35.7099L22.0672 48.9989C22.157 49.1334 22.2785 49.2438 22.421 49.3202C22.5635 49.3966 22.7226 49.4367 22.8843 49.437C22.9563 49.444 23.0288 49.444 23.1008 49.437L35.4055 46.6512L32.5804 59.5859C32.5491 59.7313 32.5512 59.8818 32.5864 60.0263C32.6217 60.1707 32.6892 60.3053 32.784 60.42C32.8787 60.5346 32.9981 60.6262 33.1334 60.6881C33.2686 60.7499 33.4161 60.7803 33.5647 60.777C33.6366 60.7864 33.7094 60.7864 33.7813 60.777L35.9912 60.2848C36.6563 60.1334 37.2815 59.8417 37.8247 59.4292C38.368 59.0166 38.8168 58.4928 39.1412 57.8928L46.2927 44.146L62.6481 40.4398C63.2641 40.3003 63.8466 40.0408 64.3623 39.6761C64.878 39.3114 65.3169 38.8487 65.6537 38.3144C65.9906 37.7801 66.2189 37.1847 66.3256 36.5621C66.4322 35.9396 66.4152 35.3021 66.2755 34.6861H66.2903ZM37.3792 56.9084C37.1882 57.2589 36.9249 57.5648 36.6067 57.8058C36.2885 58.0468 35.9226 58.2174 35.5335 58.3062L34.8297 58.4637L37.5219 46.159L43.7826 44.7169L37.3792 56.9084ZM64.0114 37.2652C63.8131 37.5816 63.5539 37.8555 63.2489 38.0709C62.9439 38.2864 62.5992 38.4391 62.2347 38.5203L36.5129 44.3478L23.3272 47.3354L15.5999 35.828L17.3226 35.4392L25.5076 40.7105C25.6179 40.7818 25.7414 40.8302 25.8707 40.8531C26.0001 40.8759 26.1326 40.8726 26.2607 40.8434L37.6253 38.2889C37.7863 38.2522 37.9355 38.1756 38.0591 38.0661C38.1827 37.9566 38.2768 37.8177 38.3327 37.6623C38.3886 37.5069 38.4045 37.34 38.3789 37.1768C38.3533 37.0137 38.2871 36.8596 38.1864 36.7287L26.3739 21.2199L27.0974 21.0624C27.4868 20.9745 27.8904 20.9703 28.2816 21.0501C28.6727 21.1298 29.0425 21.2917 29.3664 21.525L48.606 35.4343C48.719 35.5159 48.8481 35.5726 48.9847 35.6006C49.1214 35.6286 49.2624 35.6273 49.3984 35.5967L60.9697 32.9782C61.5188 32.8505 62.0934 32.8891 62.6204 33.0891C63.1474 33.289 63.603 33.6412 63.9292 34.101C64.2554 34.5607 64.4374 35.1071 64.4521 35.6706C64.4667 36.2341 64.3133 36.7892 64.0114 37.2652Z" fill="white"/>
</svg>
