<svg width="18" height="33" viewBox="0 0 22 38" fill="none" xmlns="http://www.w3.org/2000/svg">
<path fill-rule="evenodd" clip-rule="evenodd" d="M2.82271 0.435622V2.06646C2.82271 2.30705 4.08954 2.50208 5.65225 2.50208H16.2452C17.8079 2.50208 19.0748 2.30705 19.0748 2.06646V0.435622C19.0748 0.195035 17.8079 0 16.2452 0H5.65225C4.08954 0 2.82271 0.195035 2.82271 0.435622ZM3.93416 34.8689H17.9633H17.9658H18.3719C18.9343 34.8689 19.3944 35.5734 19.3944 36.4344C19.3944 37.2956 18.9343 38 18.3719 38H3.5281C2.9657 38 2.50549 37.2956 2.50549 36.4345C2.50549 35.5734 2.9657 34.8689 3.5281 34.8689H3.92923H3.93416ZM5.97929 8.44106V3.15147H4.12592C4.06118 3.15147 3.99727 3.14831 3.93417 3.14244V8.44106H5.97929ZM17.9658 3.14244V8.44106H15.9207V3.15147H17.7741C17.8388 3.15147 17.9027 3.14831 17.9658 3.14244ZM12.4806 6.91096C12.9178 6.91096 13.2723 6.57066 13.2723 6.15095C13.2723 5.73123 12.9178 5.39093 12.4806 5.39093H10.95H9.41946C8.98225 5.39093 8.62778 5.73123 8.62778 6.15095C8.62778 6.57066 8.98225 6.91096 9.41946 6.91096H10.1584V8.44107H11.7417V6.91096H12.4806ZM17.9658 9.08956C19.8546 9.08956 21.4 10.5731 21.4 12.3864V30.9235C21.4 32.7368 19.8546 34.2203 17.9658 34.2203H17.9633H3.93416H3.92923C2.04263 34.2177 0.5 32.7352 0.5 30.9235V12.3864C0.5 10.5731 2.04537 9.08956 3.93416 9.08956H5.97928H10.1584H11.7417H15.9207H17.9658ZM1.05422 21.375C1.05422 20.588 1.7188 19.95 2.53859 19.95H19.3614C20.1812 19.95 20.8458 20.588 20.8458 21.375C20.8458 22.162 20.1812 22.8 19.3614 22.8H2.53859C1.7188 22.8 1.05422 22.162 1.05422 21.375Z" fill="#8298AF"/>
</svg>
