<svg width="34" height="31" viewBox="0 0 39 36" fill="none" xmlns="http://www.w3.org/2000/svg">
<path fill-rule="evenodd" clip-rule="evenodd" d="M35.075 16.2587L34.8914 11.4975C34.8332 9.98908 37.18 9.77681 37.4179 11.27L38.6505 19.0095C38.8943 20.5406 38.4872 21.9734 37.3909 23.0698L31.0967 29.364C30.5694 29.8913 30.3222 30.5519 30.3736 31.2957L30.3818 31.4126H22.0759L22.1222 27.542C22.1366 26.3426 22.5497 25.3102 23.3979 24.462L25.139 22.7209C25.7044 22.1556 26.3192 21.8006 27.0916 21.5936L27.934 21.3679L32.1729 17.129C32.8529 16.4491 33.9654 16.4491 34.6453 17.129C34.9575 17.4412 35.1118 17.8176 35.1498 18.2282C35.1812 18.7305 35.0266 19.22 34.6453 19.6013C33.4406 20.806 32.2359 22.0106 31.0313 23.2153C30.8482 23.3984 30.8482 23.6952 31.0313 23.8782C31.2143 24.0613 31.5111 24.0613 31.6942 23.8782L35.3082 20.2642C36.4406 19.1318 36.3327 17.2533 35.075 16.2587ZM3.92505 16.2587L4.10856 11.4975C4.16677 9.98908 1.82005 9.77681 1.58216 11.27L0.3495 19.0095C0.105672 20.5406 0.512782 21.9734 1.60911 23.0698L7.90333 29.364C8.43059 29.8913 8.67786 30.5519 8.62637 31.2957L8.61825 31.4126H16.9241L16.8778 27.542C16.8634 26.3426 16.4503 25.3102 15.6021 24.462L13.861 22.7209C13.2956 22.1556 12.6808 21.8006 11.9084 21.5936L11.066 21.3679L6.827 17.129C6.14708 16.4491 5.03458 16.4491 4.35466 17.129C4.04247 17.4412 3.88809 17.8176 3.85013 18.2282C3.81872 18.7305 3.97333 19.22 4.35466 19.6013C5.55934 20.806 6.76403 22.0106 7.96864 23.2153C8.15169 23.3984 8.15169 23.6952 7.96864 23.8782C7.78559 24.0613 7.4888 24.0613 7.30567 23.8782C6.10098 22.6735 4.89638 21.4689 3.69169 20.2642C2.55927 19.1318 2.66731 17.2533 3.92505 16.2587ZM18.4567 34.9863C18.4567 35.5386 18.009 35.9863 17.4567 35.9863H8.03208C7.47979 35.9863 7.03208 35.5386 7.03208 34.9863V33.3502C7.03208 32.7979 7.47979 32.3502 8.03208 32.3502H17.4567C18.009 32.3502 18.4567 32.7979 18.4567 33.3502V34.9863ZM19.0629 21.6055C19.3344 21.7434 19.6656 21.7434 19.937 21.6055C28.8246 17.0919 28.7021 9.81651 28.671 4.3796C28.6678 3.8261 28.2186 3.38035 27.6663 3.343C25.0919 3.16889 22.2992 2.32419 20.2452 0.678882C19.8141 0.333602 19.186 0.333602 18.7549 0.678882C16.7009 2.32419 13.9082 3.16889 11.3337 3.343C10.7815 3.38035 10.3323 3.8261 10.3291 4.3796C10.298 9.81651 10.1754 17.0919 19.0629 21.6055ZM15.1835 11.7283L17.6175 15.0388C18.1193 15.7224 19.1239 15.6851 19.6029 15.0176L23.8962 9.17822C24.2949 8.63431 24.1772 7.87017 23.6332 7.47142C23.0893 7.07275 22.3252 7.19048 21.9265 7.73439L18.6025 12.2555L17.1533 10.2845C16.7547 9.74056 15.9904 9.62282 15.4466 10.0215C14.9027 10.4202 14.7848 11.1844 15.1835 11.7283ZM20.5433 34.9863C20.5433 35.5386 20.991 35.9863 21.5433 35.9863H30.9679C31.5201 35.9863 31.9679 35.5386 31.9679 34.9863V33.3502C31.9679 32.7979 31.5201 32.3502 30.9679 32.3502H21.5433C20.991 32.3502 20.5433 32.7979 20.5433 33.3501L20.5433 34.9863Z" fill="#8298AF"/>
</svg>
