<svg width="219" height="247" viewBox="0 0 219 247" fill="none" xmlns="http://www.w3.org/2000/svg">
<path opacity="0.2" d="M84.4801 207.453L195.888 96.4261L187.977 43.023L58.3928 179.182L84.4801 207.453Z" fill="black"/>
<path d="M84.1029 207.371L195.511 96.3437L187.599 42.94L58.015 179.099L84.1029 207.371Z" fill="#FEC800"/>
<path opacity="0.27" d="M76.7816 163.337L172.945 59.3677L146.303 51.7336L56.439 141.291L76.7816 163.337Z" fill="black"/>
<path d="M76.2696 163.524L172.432 59.5546L145.791 51.9211L55.927 141.479L76.2696 163.524Z" fill="#F70A0A"/>
<path d="M81.4246 144.095L74.604 136.65L76.2752 134.997L81.8093 141.039L85.3868 137.498L86.6733 138.902L81.4246 144.095Z" fill="white"/>
<path d="M86.7075 138.866L83.0752 128.269L84.7148 126.646L94.7522 130.906L93.0097 132.63L84.3552 128.664L85.0215 128.005L88.4082 137.183L86.7075 138.866ZM86.8554 135.68L86.0766 133.956L89.7867 130.285L91.4158 131.167L86.8554 135.68Z" fill="white"/>
<path d="M97.9807 127.957C97.4068 128.525 96.782 128.991 96.106 129.356C95.4301 129.72 94.8144 129.934 94.2596 129.996L93.6346 128.141C94.1426 128.07 94.6752 127.898 95.2328 127.625C95.7893 127.35 96.2835 127.001 96.7139 126.574C97.042 126.25 97.2738 125.953 97.4115 125.682C97.5481 125.412 97.6103 125.171 97.599 124.959C97.5872 124.748 97.5105 124.563 97.3677 124.407C97.1855 124.209 96.9661 124.126 96.7091 124.157C96.4515 124.19 96.1634 124.291 95.8452 124.463C95.5282 124.636 95.1921 124.834 94.8359 125.058C94.4798 125.281 94.1099 125.491 93.7251 125.69C93.3392 125.888 92.9489 126.031 92.5536 126.119C92.1578 126.206 91.7679 126.192 91.3846 126.079C91.0008 125.966 90.6294 125.714 90.2726 125.323C89.8836 124.898 89.6365 124.402 89.5337 123.834C89.4308 123.267 89.5068 122.657 89.7634 122.005C90.0188 121.353 90.486 120.693 91.1622 120.023C91.6131 119.577 92.1115 119.192 92.6556 118.869C93.2002 118.547 93.7343 118.329 94.2566 118.217L94.9227 120.032C94.4258 120.158 93.9636 120.342 93.5342 120.585C93.1038 120.827 92.733 121.104 92.4181 121.415C92.0906 121.74 91.8611 122.037 91.7317 122.307C91.6012 122.577 91.5485 122.822 91.5731 123.04C91.5981 123.26 91.6826 123.448 91.8249 123.603C92.0071 123.802 92.2281 123.887 92.4884 123.859C92.7493 123.831 93.0335 123.729 93.3411 123.552C93.6498 123.376 93.9838 123.173 94.3468 122.944C94.7098 122.714 95.0825 122.502 95.4677 122.31C95.8529 122.119 96.2376 121.978 96.6229 121.887C97.0088 121.795 97.3965 121.803 97.7883 121.91C98.179 122.016 98.5488 122.261 98.9001 122.645C99.2832 123.063 99.5236 123.557 99.6203 124.123C99.7159 124.689 99.6354 125.302 99.3803 125.962C99.1236 126.623 98.6574 127.287 97.9807 127.957Z" fill="white"/>
<path d="M103.413 122.338L97.8796 116.297L95.5837 118.569L94.2973 117.165L100.549 110.978L101.836 112.382L99.5399 114.654L105.074 120.695L103.413 122.338Z" fill="white"/>
<path d="M111.153 114.679L104.333 107.235L105.707 105.876L113.574 108.107L112.846 108.828L111.026 100.613L112.41 99.2434L119.23 106.687L117.682 108.218L113.112 103.273L113.42 102.969L114.82 109.53L114.082 110.26L107.814 108.515L108.152 108.18L112.702 113.147L111.153 114.679Z" fill="white"/>
<path d="M120.937 105.002L114.114 97.5544L115.785 95.9008L122.608 103.349L120.937 105.002Z" fill="white"/>
<path d="M124.293 101.679L117.473 94.2341L118.846 92.8757L127.99 94.0466L127.324 94.7074L122.413 89.3466L124.054 87.7233L130.873 95.1685L129.5 96.5269L120.356 95.3554L121.023 94.6958L125.933 100.056L124.293 101.679Z" fill="white"/>
<path d="M135.873 90.4653C134.854 91.4729 133.788 91.9659 132.675 91.9455C131.562 91.9245 130.502 91.3649 129.495 90.266L125.685 86.1084L127.356 84.4554L131.126 88.5716C131.769 89.2731 132.376 89.6429 132.945 89.681C133.514 89.7197 134.048 89.4912 134.547 88.9986C135.052 88.4979 135.3 87.9517 135.292 87.3594C135.283 86.7665 134.957 86.1193 134.314 85.4172L130.543 81.3017L132.173 79.6886L135.982 83.8474C136.989 84.9474 137.476 86.0732 137.44 87.2305C137.406 88.3849 136.884 89.4645 135.873 90.4653Z" fill="white"/>
<path d="M142.002 84.1564L136.468 78.1159L134.172 80.3874L132.885 78.9837L139.138 72.7962L140.425 74.1999L138.129 76.472L143.663 82.5131L142.002 84.1564Z" fill="white"/>
<path d="M147.227 76.3509L151.132 72.4866L152.399 73.869L146.843 79.3658L140.023 71.9206L145.445 66.5554L146.712 67.9378L142.94 71.6711L147.227 76.3509ZM144.288 73.399L147.743 69.9807L148.981 71.3323L145.526 74.75L144.288 73.399Z" fill="white"/>
<path d="M112.396 171.536C111.08 172.954 109.636 174.043 108.065 174.804C106.493 175.564 104.883 175.986 103.236 176.069C101.588 176.152 99.9858 175.89 98.4331 175.284C96.8799 174.678 95.4548 173.726 94.1601 172.427C92.8478 171.113 91.8775 169.663 91.2458 168.08C90.6163 166.497 90.3112 164.848 90.3314 163.134C90.3516 161.42 90.6958 159.737 91.3627 158.086C92.0297 156.436 93.0285 154.893 94.3603 153.458C95.6915 152.023 97.136 150.927 98.691 150.166C100.245 149.406 101.848 148.984 103.495 148.9C105.144 148.818 106.745 149.079 108.297 149.685C109.851 150.291 111.284 151.252 112.596 152.567C113.891 153.866 114.862 155.315 115.509 156.914C116.156 158.515 116.469 160.172 116.448 161.886C116.428 163.6 116.081 165.278 115.406 166.921C114.73 168.564 113.727 170.102 112.396 171.536ZM108.983 168.115C109.737 167.303 110.294 166.419 110.654 165.461C111.014 164.504 111.181 163.512 111.156 162.486C111.131 161.459 110.914 160.466 110.507 159.507C110.099 158.548 109.48 157.652 108.65 156.82C107.82 155.987 106.936 155.377 105.998 154.988C105.06 154.599 104.098 154.411 103.11 154.421C102.122 154.432 101.174 154.641 100.265 155.049C99.3575 155.458 98.5266 156.067 97.773 156.88C97.0184 157.692 96.4569 158.582 96.0903 159.547C95.7225 160.514 95.5551 161.506 95.5881 162.523C95.6222 163.541 95.8416 164.529 96.2496 165.488C96.6577 166.448 97.2764 167.343 98.1068 168.175C98.9373 169.007 99.8205 169.618 100.758 170.007C101.696 170.395 102.654 170.59 103.634 170.587C104.614 170.585 105.562 170.376 106.479 169.959C107.394 169.543 108.228 168.928 108.983 168.115Z" fill="black"/>
<path d="M128.16 153.934L124.236 158.161L106.796 140.68L119.53 126.963L122.768 130.208L113.958 139.699L128.16 153.934ZM118.255 144.657L126.343 135.943L129.582 139.19L121.495 147.903L118.255 144.657Z" fill="black"/>
<path d="M143.526 137.379L139.602 141.606L122.163 124.125L134.897 110.407L138.135 113.653L129.325 123.143L143.526 137.379ZM133.621 128.101L141.709 119.388L144.948 122.635L136.86 131.348L133.621 128.101Z" fill="black"/>
<path d="M155.606 117.63L164.777 107.751L168.016 110.997L154.969 125.051L137.529 107.571L150.263 93.8539L153.501 97.0994L144.644 106.642L155.606 117.63ZM148.117 110.723L156.228 101.985L159.393 105.157L151.282 113.895L148.117 110.723Z" fill="black"/>
<path d="M171.104 107.668L153.666 90.1878L160.959 82.3314C162.467 80.7065 164.02 79.5606 165.616 78.892C167.215 78.2246 168.783 78.0457 170.324 78.3548C171.864 78.664 173.282 79.4684 174.578 80.7664C175.89 82.0816 176.718 83.5298 177.062 85.1097C177.407 86.6903 177.279 88.3127 176.677 89.9792C176.076 91.6464 175.021 93.2924 173.513 94.9168L168.362 100.465L168.399 96.7989L175.026 103.441L171.104 107.668ZM168.849 97.248L165.151 97.2427L170.084 91.9275C171.272 90.6484 171.905 89.414 171.983 88.2239C172.061 87.0349 171.618 85.9572 170.655 84.9907C169.692 84.0254 168.644 83.6096 167.511 83.7412C166.377 83.8739 165.217 84.5802 164.03 85.8588L159.097 91.174L158.959 87.3323L168.849 97.248ZM181.84 96.1032L171.275 94.3244L175.463 89.8125L186.027 91.5919L181.84 96.1032Z" fill="black"/>
<path opacity="0.3" d="M27.8519 151.934L25.8329 150.104L26.8448 148.899C27.1226 148.569 27.09 148.067 26.7725 147.779L25.8438 146.937C25.5263 146.649 25.0437 146.683 24.7659 147.014L20.9247 151.587C20.6469 151.918 20.6795 152.419 20.997 152.707L21.9258 153.55C22.2432 153.838 22.7258 153.803 23.0037 153.473L24.0156 152.269L26.0368 154.101C14.7627 168.718 16.4764 190.159 30.1638 202.568C44.2137 215.306 65.635 213.774 77.9149 199.153C90.1948 184.532 88.7551 162.274 74.7053 149.536C60.9899 137.1 40.2556 138.271 27.8519 151.934Z" fill="black"/>
<path d="M74.3774 200.392C87.1517 187.662 87.5928 166.596 75.3626 153.342C63.1324 140.088 42.8622 139.663 30.0879 152.394C17.3136 165.125 16.8725 186.19 29.1028 199.445C41.333 212.699 61.6031 213.123 74.3774 200.392Z" fill="white"/>
<path d="M27.6484 152.276L25.6294 150.445L26.6413 149.241C26.9191 148.911 26.8865 148.409 26.569 148.121L25.6403 147.279C25.3228 146.99 24.8402 147.025 24.5624 147.356L20.7213 151.929C20.4435 152.26 20.476 152.761 20.7935 153.049L21.7223 153.892C22.0397 154.18 22.5224 154.145 22.8002 153.815L23.8121 152.611L25.8333 154.443C14.5593 169.06 16.2729 190.501 29.9603 202.91C44.0102 215.648 65.4315 214.116 77.7114 199.495C89.9913 184.874 88.5517 162.616 74.5018 149.878C60.7864 137.442 40.0521 138.613 27.6484 152.276ZM72.1083 152.727C84.6483 164.095 85.9332 183.961 74.9729 197.011C64.0125 210.061 44.8938 211.428 32.3538 200.059C19.8139 188.69 18.529 168.825 29.4893 155.775C40.4496 142.725 59.5683 141.358 72.1083 152.727Z" fill="#F70A0A"/>
<path d="M29.8074 193.798L29.8947 193.919L30.7194 193.276L30.6321 193.155L29.8074 193.798Z" fill="black"/>
<path d="M31.6744 196.13L31.7733 196.24L32.5288 195.511L32.4299 195.4L31.6744 196.13Z" fill="black"/>
<path d="M33.7729 198.251L33.8824 198.351L34.5605 197.543L34.451 197.444L33.7729 198.251Z" fill="black"/>
<path d="M36.075 200.145L36.194 200.231L36.7871 199.355L36.6682 199.268L36.075 200.145Z" fill="black"/>
<path d="M38.554 201.773L38.681 201.847L39.1828 200.91L39.0558 200.837L38.554 201.773Z" fill="black"/>
<path d="M31.0127 156.905L30.7876 157.173L32.6125 158.828L32.8376 158.559L31.0127 156.905Z" fill="black"/>
<path d="M29.3776 159.603L29.2937 159.727L30.137 160.343L30.2209 160.219L29.3776 159.603Z" fill="black"/>
<path d="M27.8125 162.18L27.7416 162.312L28.6423 162.834L28.7132 162.701L27.8125 162.18Z" fill="black"/>
<path d="M26.5226 164.91L26.4653 165.05L27.4136 165.47L27.4708 165.331L26.5226 164.91Z" fill="black"/>
<path d="M25.5019 167.766L25.459 167.911L26.4443 168.226L26.4872 168.081L25.5019 167.766Z" fill="black"/>
<path d="M24.7812 170.714L24.7531 170.863L25.7647 171.069L25.7928 170.92L24.7812 170.714Z" fill="black"/>
<path d="M24.3687 173.727L24.3556 173.878L25.3825 173.973L25.3956 173.822L24.3687 173.727Z" fill="black"/>
<path d="M24.2448 176.776L24.2469 176.927L25.278 176.909L25.2758 176.759L24.2448 176.776Z" fill="black"/>
<path d="M24.4361 179.808L24.4535 179.958L25.4772 179.829L25.4599 179.679L24.4361 179.808Z" fill="black"/>
<path d="M24.9397 182.81L24.972 182.957L25.9773 182.718L25.9449 182.57L24.9397 182.81Z" fill="black"/>
<path d="M25.7343 185.738L25.7814 185.881L26.7571 185.534L26.71 185.391L25.7343 185.738Z" fill="black"/>
<path d="M26.8192 188.574L26.8804 188.711L27.8158 188.26L27.7546 188.123L26.8192 188.574Z" fill="black"/>
<path d="M28.1794 191.266L28.254 191.396L29.139 190.845L29.0643 190.716L28.1794 191.266Z" fill="black"/>
<path d="M41.1839 203.113L41.3176 203.172L41.7225 202.186L41.5888 202.127L41.1839 203.113Z" fill="black"/>
<path d="M43.9296 204.174L44.0685 204.219L44.3721 203.195L44.2332 203.15L43.9296 204.174Z" fill="black"/>
<path d="M46.7667 204.922L46.9092 204.951L47.1082 203.9L46.9656 203.871L46.7667 204.922Z" fill="black"/>
<path d="M49.6659 205.348L49.8104 205.361L49.9028 204.294L49.7582 204.281L49.6659 205.348Z" fill="black"/>
<path d="M52.6001 205.481L52.7465 205.479L52.7312 204.407L52.5849 204.41L52.6001 205.481Z" fill="black"/>
<path d="M55.5163 205.282L55.6613 205.264L55.538 204.2L55.393 204.218L55.5163 205.282Z" fill="black"/>
<path d="M58.4052 204.757L58.5475 204.723L58.3178 203.678L58.1755 203.712L58.4052 204.757Z" fill="black"/>
<path d="M61.2239 203.931L61.3619 203.882L61.0284 202.868L60.8904 202.917L61.2239 203.931Z" fill="black"/>
<path d="M63.9533 202.802L64.0856 202.738L63.6519 201.766L63.5196 201.83L63.9533 202.802Z" fill="black"/>
<path d="M66.5431 201.39L66.6682 201.312L66.1391 200.393L66.0139 200.471L66.5431 201.39Z" fill="black"/>
<path d="M68.9818 199.698L69.0984 199.607L68.4796 198.751L68.363 198.842L68.9818 199.698Z" fill="black"/>
<path d="M71.2213 197.76L71.3281 197.657L70.6264 196.872L70.5196 196.975L71.2213 197.76Z" fill="black"/>
<path d="M73.263 195.579L73.3589 195.465L72.5821 194.76L72.4862 194.875L73.263 195.579Z" fill="black"/>
<path d="M75.0878 193.185L75.1716 193.062L74.3283 192.445L74.2444 192.569L75.0878 193.185Z" fill="black"/>
<path d="M76.6541 190.609L76.7251 190.477L75.8244 189.956L75.7534 190.088L76.6541 190.609Z" fill="black"/>
<path d="M77.941 187.876L77.9983 187.736L77.0501 187.316L76.9928 187.455L77.941 187.876Z" fill="black"/>
<path d="M78.9667 185.021L79.0096 184.876L78.0244 184.561L77.9814 184.706L78.9667 185.021Z" fill="black"/>
<path d="M79.6851 182.075L79.7133 181.926L78.7016 181.72L78.6734 181.869L79.6851 182.075Z" fill="black"/>
<path d="M80.094 179.063L80.1071 178.912L79.0801 178.817L79.067 178.968L80.094 179.063Z" fill="black"/>
<path d="M80.2218 176.008L80.2196 175.857L79.1886 175.875L79.1907 176.025L80.2218 176.008Z" fill="black"/>
<path d="M80.0314 172.98L80.014 172.83L78.9903 172.959L79.0077 173.109L80.0314 172.98Z" fill="black"/>
<path d="M79.5241 169.979L79.4917 169.832L78.4865 170.071L78.5188 170.219L79.5241 169.979Z" fill="black"/>
<path d="M78.7298 167.05L78.6827 166.907L77.7071 167.254L77.7541 167.397L78.7298 167.05Z" fill="black"/>
<path d="M77.6423 164.214L77.5812 164.077L76.6458 164.528L76.7069 164.665L77.6423 164.214Z" fill="black"/>
<path d="M76.2847 161.521L76.2101 161.392L75.3252 161.942L75.3998 162.072L76.2847 161.521Z" fill="black"/>
<path d="M74.6549 158.989L74.5676 158.868L73.7429 159.512L73.8301 159.632L74.6549 158.989Z" fill="black"/>
<path d="M72.7942 156.658L72.6952 156.547L71.9397 157.276L72.0386 157.387L72.7942 156.658Z" fill="black"/>
<path d="M70.6956 154.536L70.5861 154.437L69.908 155.244L70.0176 155.343L70.6956 154.536Z" fill="black"/>
<path d="M68.3908 152.641L68.2719 152.554L67.6787 153.43L67.7976 153.517L68.3908 152.641Z" fill="black"/>
<path d="M65.9096 151.015L65.7826 150.941L65.2808 151.878L65.4079 151.951L65.9096 151.015Z" fill="black"/>
<path d="M63.2833 149.676L63.1497 149.617L62.7447 150.603L62.8784 150.662L63.2833 149.676Z" fill="black"/>
<path d="M60.5328 148.613L60.3939 148.568L60.0903 149.593L60.2292 149.637L60.5328 148.613Z" fill="black"/>
<path d="M57.6973 147.864L57.5548 147.835L57.3558 148.886L57.4984 148.916L57.6973 147.864Z" fill="black"/>
<path d="M54.8016 147.437L54.6571 147.424L54.5648 148.491L54.7093 148.505L54.8016 147.437Z" fill="black"/>
<path d="M51.8645 147.31L51.7181 147.312L51.7334 148.384L51.8797 148.381L51.8645 147.31Z" fill="black"/>
<path d="M48.9468 147.506L48.8018 147.524L48.925 148.588L49.07 148.57L48.9468 147.506Z" fill="black"/>
<path d="M46.0612 148.032L45.9189 148.065L46.1486 149.11L46.2909 149.076L46.0612 148.032Z" fill="black"/>
<path d="M43.2424 148.856L43.1044 148.905L43.4379 149.919L43.576 149.87L43.2424 148.856Z" fill="black"/>
<path d="M40.5152 149.986L40.3829 150.05L40.8166 151.022L40.9489 150.958L40.5152 149.986Z" fill="black"/>
<path d="M37.9231 151.398L37.798 151.476L38.3271 152.395L38.4522 152.317L37.9231 151.398Z" fill="black"/>
<path d="M35.486 153.091L35.3694 153.182L35.9881 154.038L36.1047 153.947L35.486 153.091Z" fill="black"/>
<path d="M33.2406 155.028L33.1338 155.131L33.8355 155.916L33.9423 155.813L33.2406 155.028Z" fill="black"/>
<path d="M24.4746 170.548L24.4084 170.897L26.7849 171.382L26.8511 171.032L24.4746 170.548Z" fill="black"/>
<path d="M25.3883 185.754L25.4987 186.09L27.7908 185.274L27.6804 184.939L25.3883 185.754Z" fill="black"/>
<path d="M33.4813 198.444L33.7385 198.678L35.3314 196.781L35.0742 196.547L33.4813 198.444Z" fill="black"/>
<path d="M46.6068 205.24L46.9414 205.309L47.4089 202.838L47.0742 202.77L46.6068 205.24Z" fill="black"/>
<path d="M61.2387 204.289L61.5627 204.174L60.7791 201.792L60.4551 201.908L61.2387 204.289Z" fill="black"/>
<path d="M73.4486 195.882L73.6737 195.614L71.8488 193.96L71.6237 194.228L73.4486 195.882Z" fill="black"/>
<path d="M79.9919 182.241L80.058 181.892L77.6815 181.408L77.6154 181.757L79.9919 182.241Z" fill="black"/>
<path d="M79.0757 167.035L78.9653 166.699L76.6732 167.515L76.7836 167.85L79.0757 167.035Z" fill="black"/>
<path d="M70.9878 154.343L70.7306 154.109L69.1377 156.006L69.3949 156.24L70.9878 154.343Z" fill="black"/>
<path d="M57.8576 147.546L57.5229 147.478L57.0555 149.948L57.3901 150.016L57.8576 147.546Z" fill="black"/>
<path d="M43.2276 148.497L42.9036 148.612L43.6872 150.994L44.0112 150.878L43.2276 148.497Z" fill="black"/>
<path d="M54.0299 177.481L53.5125 178.097L41.8675 167.54C41.7553 167.439 41.7439 167.261 41.8416 167.144L42.0036 166.951C42.1012 166.834 42.2723 166.822 42.3844 166.923L54.0299 177.481Z" fill="black"/>
<path d="M53.1421 174.22L52.1753 174.023L50.1542 184.68C50.1183 184.87 50.237 185.055 50.4203 185.092L50.724 185.153C50.9074 185.19 51.0851 185.067 51.121 184.876L53.1421 174.22Z" fill="black"/>
<path d="M50.4677 176.338L50.4931 176.728L63.145 175.823C63.2161 175.818 63.2701 175.754 63.2655 175.68L63.258 175.558C63.2534 175.484 63.1919 175.428 63.1207 175.433L50.4677 176.338Z" fill="black"/>
<path d="M52.6654 176.863C52.9151 176.614 52.9237 176.202 52.6847 175.943C52.4456 175.684 52.0494 175.676 51.7997 175.924C51.55 176.173 51.5413 176.585 51.7804 176.844C52.0195 177.103 52.4157 177.112 52.6654 176.863Z" fill="black"/>
<path d="M83.7375 207.782L83.6783 216.485L83.6192 225.189L81.0891 224.767L78.5584 224.345L81.1476 216.064L83.7375 207.782Z" fill="#F70A0A"/>
<path d="M84.6801 207.315L90.9426 213.09L97.2052 218.865L95.2278 220.566L93.2499 222.267L88.9653 214.791L84.6801 207.315Z" fill="#F70A0A"/>
<path d="M188.159 42.7003L193.246 35.7805L198.333 28.8612L200.106 30.7808L201.879 32.7004L195.02 37.7001L188.159 42.7003Z" fill="#F70A0A"/>
<path d="M187.127 42.4795L185.478 33.9484L183.828 25.4168L186.389 25.2936L188.951 25.171L188.039 33.8253L187.127 42.4795Z" fill="#F70A0A"/>
</svg>
