<svg width="199" height="150" viewBox="0 0 199 150" fill="none" xmlns="http://www.w3.org/2000/svg">
<path d="M106.767 148.241C102.643 148.95 98.4038 149.32 94.0777 149.32C73.554 149.32 54.9763 141.002 41.526 127.553C28.076 114.103 19.7581 95.5252 19.7581 75.0018H19.5735L19.7581 75.0028V75.0018H19.5735L19.7581 75.0028L19.4399 75.0011L19.7577 75.014L19.7581 75.0028L19.4399 75.0011L19.7577 75.014L19.7581 75.0072V75.0005C19.7581 64.0017 22.1465 53.5616 26.4341 44.1708L25.8158 43.8883C21.4887 53.3654 19.0782 63.9032 19.0782 75.0005H19.4181L19.0785 74.9865L19.0782 75.0018C19.0782 116.422 52.6569 150 94.0777 150C98.4425 150 102.721 149.626 106.882 148.911L106.767 148.241Z" fill="#7F87A8"/>
<path d="M161.72 44.1691C166.008 53.5609 168.397 64.0014 168.397 75.0008H168.621L168.397 74.9981V75.0008H168.621L168.397 74.9981V75.0035C168.397 103.154 152.743 127.65 129.665 140.262L129.991 140.858C153.279 128.132 169.077 103.411 169.077 75.0035H168.853L169.077 75.0059V75.0035H168.853L169.077 75.0059V75.0008C169.077 63.9028 166.666 53.3648 162.339 43.8866L161.721 44.1691H161.72Z" fill="#7F87A8"/>
<path d="M105.414 1.53901C128.358 5.04921 147.85 19.0554 158.834 38.5039L159.426 38.1697C148.341 18.5437 128.673 4.41013 105.517 0.866955L105.414 1.53901Z" fill="#7F87A8"/>
<path d="M31.4475 34.9717C44.6555 14.349 67.7706 0.679733 94.0784 0.679733V-0.000144958C67.5313 -0.000144958 44.202 13.7952 30.8751 34.6052L31.4475 34.9717Z" fill="#7F87A8"/>
<path d="M176.394 70.9437L156.181 104.547L154.107 106.334L135.718 95.2707L156.833 60.1693L158.409 60.1255L176.394 70.9437Z" fill="#5ABC80"/>
<path d="M161.946 63.2461L156.833 60.17L158.409 60.1261L162.462 62.5642L161.946 63.2461Z" fill="#3DA360"/>
<path d="M175.221 71.2313L154.107 106.334L135.718 95.2707L156.833 60.1693L175.221 71.2313Z" fill="#78DCA8"/>
<path d="M155.577 65.9391L140.224 91.4586C141.419 92.8707 141.885 94.7751 141.476 96.5791L150.252 101.859C151.655 100.652 153.554 100.172 155.36 100.565L170.713 75.0434C169.519 73.6306 169.054 71.7276 169.464 69.9235L160.686 64.6436C159.283 65.8521 157.384 66.3311 155.577 65.9391Z" fill="#D6FACB"/>
<path d="M159.257 76.9537C162.735 79.0457 163.858 83.5601 161.767 87.0397C159.674 90.5162 155.158 91.6401 151.681 89.5481C148.203 87.4575 147.082 82.9417 149.173 79.4635C151.266 75.9856 155.779 74.8624 159.257 76.9537Z" fill="#78DCA8"/>
<path d="M158.498 85.7731C158.013 86.503 157.41 87.1251 156.691 87.6377L154.985 86.6118C155.425 86.3357 155.854 86.007 156.269 85.6225C156.685 85.2381 156.999 84.8696 157.209 84.5157C157.386 84.2257 157.479 83.9905 157.49 83.8134C157.502 83.6359 157.425 83.4972 157.261 83.3976C157.148 83.33 157.023 83.3218 156.884 83.3718C156.748 83.4221 156.561 83.5326 156.324 83.6992C156.089 83.8678 155.782 84.1027 155.41 84.4056C154.986 84.7448 154.593 84.9858 154.234 85.133C153.873 85.2785 153.531 85.3384 153.21 85.3118C152.889 85.2833 152.541 85.1572 152.173 84.9348C151.608 84.5952 151.273 84.1486 151.173 83.5928C151.074 83.0383 151.204 82.3744 151.567 81.6024L150.862 81.1796L151.502 80.1155L152.196 80.5333C152.643 79.8755 153.225 79.2878 153.938 78.7752L155.036 80.2678C154.283 80.7903 153.733 81.3393 153.387 81.9145C153.222 82.1899 153.14 82.4009 153.139 82.5532C153.139 82.7052 153.205 82.8194 153.335 82.8976C153.448 82.9652 153.565 82.9809 153.687 82.9455C153.81 82.9098 153.975 82.8194 154.185 82.676C154.397 82.5318 154.667 82.318 155 82.0379C155.684 81.4743 156.282 81.135 156.794 81.0174C157.303 80.9005 157.816 80.9956 158.326 81.3016C158.902 81.649 159.259 82.1123 159.398 82.6933C159.54 83.2753 159.442 83.9409 159.108 84.6911L160.098 85.287L159.459 86.3497L158.498 85.7731Z" fill="#D6FACB"/>
<path d="M163.338 69.0575L160.096 74.4482L159.196 73.9064L162.439 68.5173L163.338 69.0575Z" fill="#78DCA8"/>
<path d="M165.518 70.3697L162.277 75.7607L161.378 75.2202L164.62 69.8295L165.518 70.3697Z" fill="#78DCA8"/>
<path d="M149.75 91.6438L146.508 97.0342L145.61 96.4933L148.852 91.1033L149.75 91.6438Z" fill="#78DCA8"/>
<path d="M151.932 92.9573L148.689 98.3467L147.792 97.8065L151.033 92.4168L151.932 92.9573Z" fill="#78DCA8"/>
<path d="M140.371 91.2139L140.27 91.1941L141.156 89.9095L140.371 91.2139ZM157.641 66.0173L160.254 62.2294L161.946 63.2465L160.825 64.7279L160.685 64.644C159.815 65.3939 158.753 65.863 157.641 66.0173Z" fill="#60B187"/>
<path d="M140.73 91.2832L140.372 91.2139L141.157 89.9095L142.907 87.3719L143.59 87.5041L140.73 91.2832ZM146.67 83.434L145.747 83.2552L157.641 66.0173C158.753 65.863 159.815 65.3938 160.686 64.6439L160.825 64.7279L151.477 77.0809C150.566 77.67 149.77 78.4713 149.173 79.4642C148.859 79.9857 148.618 80.5306 148.446 81.0871L146.67 83.434Z" fill="#ACC9A3"/>
<path d="M148.446 81.0869C148.618 80.5304 148.859 79.9855 149.173 79.464C149.77 78.4711 150.566 77.6698 151.477 77.0807L148.446 81.0869Z" fill="#60B187"/>
<path d="M183.316 71.9899L159.655 103.26L157.402 104.817L140.288 91.8671L165.006 59.2014L166.579 59.3255L183.316 71.9899Z" fill="#5ABC80"/>
<path d="M172.376 64.7793L165.006 59.2016L166.579 59.3257L173.032 64.2085L172.376 64.7793Z" fill="#3DA360"/>
<path d="M182.119 72.1524L157.401 104.816L140.288 91.8675L165.006 59.2018L182.119 72.1524Z" fill="#78DCA8"/>
<path d="M163.146 64.8066L145.175 88.5557C146.211 90.0868 146.475 92.0282 145.875 93.7795L154.043 99.96C155.565 98.9072 157.505 98.6311 159.26 99.2141L177.231 75.4647C176.195 73.9343 175.932 71.9929 176.532 70.2429L168.363 64.0611C166.841 65.1136 164.901 65.3876 163.146 64.8066Z" fill="#D6FACB"/>
<path d="M165.638 76.1513C168.874 78.5998 169.512 83.2067 167.062 86.4442C164.614 89.6808 160.005 90.3192 156.768 87.871C153.533 85.4217 152.895 80.8125 155.344 77.5753C157.793 74.3404 162.402 73.7013 165.638 76.1513Z" fill="#78DCA8"/>
<path d="M163.949 84.8382C163.387 85.5123 162.723 86.0681 161.952 86.5029L160.366 85.3006C160.833 85.0728 161.294 84.7913 161.747 84.4514C162.202 84.1145 162.552 83.78 162.801 83.4513C163.006 83.1817 163.123 82.958 163.153 82.7826C163.183 82.6069 163.122 82.4614 162.969 82.3458C162.865 82.2656 162.741 82.2442 162.597 82.2795C162.456 82.3146 162.259 82.4043 162.005 82.545C161.755 82.6871 161.425 82.889 161.022 83.1508C160.564 83.4414 160.15 83.6413 159.776 83.7487C159.4 83.8568 159.054 83.881 158.738 83.8184C158.42 83.7569 158.091 83.5948 157.747 83.335C157.221 82.937 156.937 82.456 156.896 81.8923C156.855 81.3314 157.056 80.6856 157.497 79.9571L156.843 79.4604L157.591 78.4712L158.238 78.9597C158.752 78.3522 159.392 77.8304 160.156 77.397L161.089 78.9978C160.284 79.4373 159.68 79.9244 159.276 80.4595C159.083 80.7155 158.978 80.9184 158.961 81.068C158.943 81.2199 158.997 81.3393 159.119 81.4317C159.224 81.5126 159.339 81.5391 159.464 81.5188C159.59 81.4939 159.762 81.4215 159.988 81.3022C160.214 81.1795 160.506 80.9973 160.864 80.7535C161.606 80.2657 162.236 79.9904 162.757 79.9285C163.277 79.866 163.775 80.0142 164.25 80.3752C164.786 80.7797 165.092 81.2784 165.171 81.8726C165.248 82.4648 165.081 83.1154 164.668 83.8259L165.591 84.5245L164.843 85.5151L163.949 84.8382Z" fill="#D6FACB"/>
<path d="M170.532 68.7296L166.737 73.7461L165.901 73.1128L169.696 68.096L170.532 68.7296Z" fill="#78DCA8"/>
<path d="M172.562 70.2651L168.766 75.2812L167.929 74.6493L171.728 69.6339L172.562 70.2651Z" fill="#78DCA8"/>
<path d="M154.626 89.7502L150.831 94.7646L149.996 94.1327L153.79 89.1173L154.626 89.7502Z" fill="#78DCA8"/>
<path d="M156.656 91.2863L152.861 96.3018L152.025 95.6695L155.82 90.6516L156.656 91.2863Z" fill="#78DCA8"/>
<path d="M191.068 78.099L161.487 103.84L158.961 104.9L144.874 88.7108L175.776 61.8204L177.29 62.2647L191.068 78.099Z" fill="#5ABC80"/>
<path d="M181.731 68.665L180.614 67.3814L180.598 67.3624L175.776 61.8211L177.29 62.2654L182.482 68.2326L181.731 68.665Z" fill="#3DA360"/>
<path d="M189.864 78.0106L158.961 104.9L144.874 88.7108L175.776 61.8204L189.864 78.0106Z" fill="#78DCA8"/>
<path d="M172.806 66.922L150.337 86.4726C151.037 88.1835 150.895 90.1395 149.949 91.729L156.673 99.4569C158.379 98.7389 160.334 98.8674 161.932 99.7988L184.399 80.2476C183.7 78.5371 183.841 76.5844 184.789 74.9925L178.064 67.265C176.357 67.9823 174.401 67.8535 172.806 66.922Z" fill="#D6FACB"/>
<path d="M172.912 78.5361C175.577 81.5983 175.255 86.2394 172.192 88.9035C169.131 91.568 164.489 91.246 161.826 88.1846C159.16 85.1224 159.483 80.4795 162.545 77.8171C165.608 75.152 170.248 75.4746 172.912 78.5361Z" fill="#78DCA8"/>
<path d="M169.474 86.6934C168.787 87.238 168.02 87.6436 167.179 87.9121L165.872 86.4079C166.377 86.2831 166.885 86.1006 167.398 85.8616C167.912 85.6253 168.325 85.3711 168.636 85.1008C168.893 84.8765 169.053 84.6817 169.118 84.5178C169.183 84.3519 169.154 84.1973 169.028 84.0525C168.941 83.9522 168.825 83.9049 168.678 83.9104C168.532 83.9168 168.32 83.9627 168.044 84.0504C167.768 84.1368 167.405 84.2663 166.955 84.4413C166.449 84.6314 166.003 84.7402 165.614 84.7701C165.225 84.7973 164.881 84.749 164.584 84.6235C164.287 84.4971 163.997 84.2727 163.713 83.9467C163.28 83.4487 163.1 82.9211 163.178 82.3619C163.253 81.8038 163.581 81.2119 164.163 80.5912L163.624 79.9712L164.56 79.1546L165.092 79.7672C165.72 79.2787 166.455 78.8997 167.291 78.6315L167.875 80.3879C166.999 80.6548 166.307 81.0083 165.801 81.4485C165.558 81.6576 165.415 81.835 165.367 81.9781C165.32 82.1243 165.347 82.2511 165.448 82.3674C165.533 82.467 165.639 82.5166 165.768 82.5207C165.895 82.5248 166.08 82.4894 166.326 82.417C166.569 82.3432 166.892 82.2246 167.295 82.0604C168.12 81.7351 168.794 81.5971 169.316 81.6423C169.839 81.6889 170.296 81.937 170.687 82.3868C171.128 82.8939 171.326 83.4443 171.279 84.0406C171.234 84.6365 170.936 85.2402 170.387 85.8511L171.146 86.724L170.21 87.5375L169.474 86.6934Z" fill="#D6FACB"/>
<path d="M179.227 72.2806L174.482 76.4102L173.794 75.6188L178.539 71.4892L179.227 72.2806Z" fill="#78DCA8"/>
<path d="M180.898 74.2009L176.151 78.3301L175.465 77.5394L180.211 73.4095L180.898 74.2009Z" fill="#78DCA8"/>
<path d="M159.342 89.5837L154.597 93.7129L153.909 92.9208L158.654 88.7916L159.342 89.5837Z" fill="#78DCA8"/>
<path d="M161.014 91.5036L156.267 95.6318L155.579 94.8425L160.325 90.7129L161.014 91.5036Z" fill="#78DCA8"/>
<path d="M154.973 94.04L153.171 93.6913L151.906 91.241L152.272 89.3526L154.188 92.6782L153.909 92.9213L154.597 93.7134L154.722 93.6046L154.973 94.04Z" fill="#ACC9A3"/>
<path d="M154.597 93.7129L153.909 92.9208L154.188 92.6778L154.722 93.6041L154.597 93.7129Z" fill="#60B187"/>
<path d="M180.614 67.3809L180.598 67.3622L180.599 67.3618L180.614 67.3809Z" fill="#31834D"/>
<path d="M180.1 69.6045L179.059 68.4076L180.599 67.3616L180.614 67.3806L181.697 68.6843L180.1 69.6045Z" fill="#60B187"/>
<path d="M168.755 76.1426C168.453 76.0848 168.148 76.046 167.842 76.0263L179.059 68.4076L180.1 69.6045L168.755 76.1426Z" fill="#ACC9A3"/>
<path d="M161.6 80.2666L167.842 76.0272C168.148 76.047 168.453 76.0857 168.755 76.1435L161.6 80.2666Z" fill="#60B187"/>
<path d="M198.036 85.0239L164.064 104.605L161.382 105.161L150.666 86.5669L186.158 66.1135L187.556 66.8385L198.036 85.0239Z" fill="#5ABC80"/>
<path d="M198.036 85.0244L196.872 84.7059L186.158 66.114L187.556 66.8391L198.036 85.0244Z" fill="#3DA360"/>
<path d="M196.872 84.7057L161.382 105.161L150.666 86.5672L186.158 66.1138L196.872 84.7057Z" fill="#78DCA8"/>
<path d="M182.261 70.55L156.457 85.4209C156.815 87.2348 156.301 89.1259 155.068 90.5033L160.181 99.3788C161.995 99.0031 163.887 99.5038 165.277 100.726L191.082 85.8533C190.723 84.0407 191.237 82.1503 192.472 80.7712L187.357 71.8944C185.545 72.2711 183.651 71.769 182.261 70.55Z" fill="#D6FACB"/>
<path d="M180.136 81.9663C182.162 85.484 180.956 89.977 177.439 92.003C173.923 94.0301 169.429 92.8226 167.402 89.3056C165.376 85.7906 166.584 81.297 170.101 79.2699C173.618 77.2432 178.111 78.4514 180.136 81.9663Z" fill="#78DCA8"/>
<path d="M175.195 89.313C174.416 89.7141 173.587 89.965 172.709 90.0667L171.715 88.3411C172.234 88.3139 172.769 88.233 173.319 88.0981C173.868 87.9648 174.322 87.7935 174.678 87.5875C174.974 87.4189 175.168 87.2584 175.264 87.1095C175.36 86.9596 175.36 86.8009 175.265 86.635C175.198 86.5194 175.094 86.4514 174.948 86.4283C174.804 86.4065 174.587 86.411 174.3 86.4429C174.011 86.4756 173.631 86.5327 173.157 86.6183C172.623 86.7071 172.163 86.7291 171.775 86.6833C171.39 86.635 171.061 86.5225 170.793 86.3413C170.527 86.1621 170.284 85.8844 170.068 85.5108C169.739 84.9384 169.666 84.3866 169.848 83.8529C170.03 83.3185 170.465 82.8025 171.156 82.3025L170.745 81.591L171.821 80.9713L172.225 81.6719C172.936 81.3146 173.729 81.0828 174.602 80.9815L174.838 82.8192C173.925 82.9096 173.179 83.1231 172.597 83.4586C172.32 83.618 172.144 83.7645 172.071 83.8968C171.995 84.0294 171.998 84.1602 172.075 84.2932C172.14 84.4067 172.234 84.4784 172.359 84.507C172.483 84.5342 172.673 84.5342 172.927 84.5107C173.18 84.4862 173.52 84.4318 173.947 84.3489C174.818 84.1874 175.507 84.1803 176.011 84.3258C176.515 84.4703 176.916 84.8024 177.212 85.3177C177.549 85.8987 177.636 86.4793 177.476 87.0565C177.317 87.6327 176.908 88.1664 176.252 88.661L176.83 89.6632L175.754 90.2832L175.195 89.313Z" fill="#D6FACB"/>
<path d="M187.534 77.0416L182.084 80.1826L181.561 79.2723L187.01 76.1326L187.534 77.0416Z" fill="#78DCA8"/>
<path d="M188.806 79.2467L183.357 82.3877L182.833 81.479L188.283 78.3383L188.806 79.2467Z" fill="#78DCA8"/>
<path d="M164.697 90.2027L159.248 93.3438L158.724 92.4354L164.173 89.2944L164.697 90.2027Z" fill="#78DCA8"/>
<path d="M165.968 92.4078L160.519 95.5479L159.995 94.6406L165.445 91.4988L165.968 92.4078Z" fill="#78DCA8"/>
<path d="M135.288 113.162L54.0566 113.161V45.9257L135.288 45.9278V113.162Z" fill="#93A8C3"/>
<path d="M48.1176 114.302H141.228V111.97H48.1176V114.302Z" fill="#BFD0E2"/>
<path d="M40.9073 118.512H148.438V114.126H40.9073V118.512Z" fill="#93A8C3"/>
<path d="M64.9948 76.1523H71.2039V63.3866H64.9948V76.1523Z" fill="#3D4763"/>
<path d="M64.9948 97.1797H71.2039V84.412H64.9948V97.1797Z" fill="#3D4763"/>
<path d="M118.141 76.1523H124.35V63.3866H118.141V76.1523Z" fill="#3D4763"/>
<path d="M118.141 97.1797H124.35V84.412H118.141V97.1797Z" fill="#3D4763"/>
<path d="M97.54 76.1533H91.3307V63.3873H97.54V76.1533Z" fill="#3D4763"/>
<path d="M88.704 111.97H100.385V90.0114H88.704V111.97Z" fill="#728396"/>
<path d="M94.0629 107.245H89.5084V91.0647H94.0629V107.245Z" fill="#3D4763"/>
<path d="M95.027 107.245H99.5819V91.0647H95.027V107.245Z" fill="#3D4763"/>
<mask id="mask0_1327_1800" style="mask-type:luminance" maskUnits="userSpaceOnUse" x="115" y="52" width="17" height="37">
<path d="M127.358 88.6943L124.35 88.1124V84.4121H122.597V76.1527H124.35V63.387H122.121C121.453 58.6054 119.845 52.8846 115.978 52.8846H126.149H126.706V55.0387H131.906V61.0495H127.358V88.6943Z" fill="white"/>
</mask>
<g mask="url(#mask0_1327_1800)">
<path d="M115.978 88.6943H131.906V52.8846H115.978V88.6943Z" fill="#8097B5"/>
</g>
<path d="M124.35 76.1523H122.597V69.7683C122.597 69.7683 122.601 66.8193 122.121 63.3866H124.35V76.1523Z" fill="#35405C"/>
<path d="M124.35 88.1123L122.597 87.7727V84.4121H124.35V88.1123Z" fill="#35405C"/>
<path d="M107.149 111.97H100.385V90.0114H99.0158V69.7684C99.0158 69.7684 99.0409 52.8844 92.3975 52.8844H108.324V105.897L107.149 111.97Z" fill="#8097B5"/>
<path d="M100.385 111.97H99.0156V107.245H99.5816V91.0649H99.0156V90.0114H100.385V111.97Z" fill="#64758B"/>
<path d="M99.0156 107.245H99.5817V91.0647H99.0156V107.245Z" fill="#35405C"/>
<path d="M73.351 111.97H69.851V97.1797H71.204V84.412H69.851V76.1525H71.204V63.3868H69.4383C68.8074 58.6052 67.2192 52.8844 63.2318 52.8844H79.1592V109.363H73.351V111.97Z" fill="#8097B5"/>
<path d="M71.2042 76.1523H69.8512V69.7683C69.8512 69.7683 69.8917 66.8193 69.4385 63.3866H71.2042V76.1523Z" fill="#35405C"/>
<path d="M69.8511 97.1797H71.2039V84.412H69.8511V97.1797Z" fill="#35405C"/>
<path d="M126.706 55.0391H138.878V52.885H126.706V55.0391Z" fill="#8899AF"/>
<path d="M138.444 61.1602H127.14V59.006H138.444V61.1602Z" fill="#BFD0E2"/>
<path d="M138.227 59.1201H127.358V55.0381H138.227V59.1201Z" fill="#ABBCD0"/>
<path d="M127.358 103.579H138.227V61.0498H127.358V103.579Z" fill="#EAEEF8"/>
<path d="M130.456 101.361C130.456 101.706 130.187 101.99 129.857 101.99C129.529 101.99 129.26 101.706 129.26 101.361V63.2658C129.26 62.9205 129.529 62.637 129.857 62.637C130.187 62.637 130.456 62.9205 130.456 63.2658V101.361Z" fill="#D2DAE7"/>
<path d="M133.391 101.361C133.391 101.706 133.121 101.99 132.793 101.99C132.464 101.99 132.195 101.706 132.195 101.361V63.2658C132.195 62.9205 132.464 62.637 132.793 62.637C133.121 62.637 133.391 62.9205 133.391 63.2658V101.361Z" fill="#D2DAE7"/>
<path d="M136.325 101.361C136.325 101.706 136.055 101.99 135.727 101.99C135.397 101.99 135.128 101.706 135.128 101.361V63.2658C135.128 62.9205 135.397 62.637 135.727 62.637C136.055 62.637 136.325 62.9205 136.325 63.2658V101.361Z" fill="#D2DAE7"/>
<path d="M139.313 109.363H126.271V111.97H139.313V109.363Z" fill="#D2DAE7"/>
<path d="M138.444 103.24H127.14V105.394H138.444V103.24Z" fill="#BFD0E2"/>
<path d="M138.227 105.279H127.358V109.363H138.227V105.279Z" fill="#ABBCD0"/>
<path d="M115.559 55.0391H103.386V52.8849H115.559V55.0391Z" fill="#8899AF"/>
<path d="M115.124 61.1602H103.821V59.006H115.124V61.1602Z" fill="#BFD0E2"/>
<path d="M114.907 59.1201H104.039V55.0381H114.907V59.1201Z" fill="#ABBCD0"/>
<path d="M114.907 103.579H104.039V61.0498H114.907V103.579Z" fill="#EAEEF8"/>
<path d="M107.136 101.361C107.136 101.706 106.867 101.99 106.538 101.99C106.209 101.99 105.94 101.706 105.94 101.361V63.2658C105.94 62.9205 106.209 62.637 106.538 62.637C106.867 62.637 107.136 62.9205 107.136 63.2658V101.361Z" fill="#D2DAE7"/>
<path d="M110.071 101.361C110.071 101.706 109.802 101.99 109.474 101.99C109.145 101.99 108.875 101.706 108.875 101.361V63.2658C108.875 62.9205 109.145 62.637 109.474 62.637C109.802 62.637 110.071 62.9205 110.071 63.2658V101.361Z" fill="#D2DAE7"/>
<path d="M113.005 101.361C113.005 101.706 112.736 101.99 112.407 101.99C112.079 101.99 111.81 101.706 111.81 101.361V63.2658C111.81 62.9205 112.079 62.637 112.407 62.637C112.736 62.637 113.005 62.9205 113.005 63.2658V101.361Z" fill="#D2DAE7"/>
<path d="M115.994 109.363H102.952V111.97H115.994V109.363Z" fill="#D2DAE7"/>
<path d="M115.124 103.24H103.821V105.394H115.124V103.24Z" fill="#BFD0E2"/>
<path d="M114.907 105.279H104.039V109.363H114.907V105.279Z" fill="#ABBCD0"/>
<path d="M85.9586 55.0391H73.7855V52.8849H85.9586V55.0391Z" fill="#8899AF"/>
<path d="M85.5242 61.1602H74.2199V59.006H85.5242V61.1602Z" fill="#BFD0E2"/>
<path d="M85.3063 59.1201H74.4385V55.0381H85.3063V59.1201Z" fill="#ABBCD0"/>
<path d="M85.3063 103.579H74.4385V61.0498H85.3063V103.579Z" fill="#EAEEF8"/>
<path d="M77.535 101.361C77.535 101.706 77.2665 101.99 76.9371 101.99C76.6084 101.99 76.3395 101.706 76.3395 101.361V63.2658C76.3395 62.9205 76.6084 62.637 76.9371 62.637C77.2665 62.637 77.535 62.9205 77.535 63.2658V101.361Z" fill="#D2DAE7"/>
<path d="M80.4704 101.361C80.4704 101.706 80.2008 101.99 79.8718 101.99C79.5441 101.99 79.2742 101.706 79.2742 101.361V63.2658C79.2742 62.9205 79.5441 62.637 79.8718 62.637C80.2008 62.637 80.4704 62.9205 80.4704 63.2658V101.361Z" fill="#D2DAE7"/>
<path d="M83.4042 101.361C83.4042 101.706 83.1353 101.99 82.8066 101.99C82.4782 101.99 82.2086 101.706 82.2086 101.361V63.2658C82.2086 62.9205 82.4782 62.637 82.8066 62.637C83.1353 62.637 83.4042 62.9205 83.4042 63.2658V101.361Z" fill="#D2DAE7"/>
<path d="M73.351 111.97H86.3934V109.363H73.351V111.97Z" fill="#D2DAE7"/>
<path d="M85.5242 103.24H74.2199V105.394H85.5242V103.24Z" fill="#BFD0E2"/>
<path d="M85.3063 105.279H74.4385V109.363H85.3063V105.279Z" fill="#ABBCD0"/>
<path d="M62.6392 55.0391H50.4664V52.8849H62.6392V55.0391Z" fill="#8899AF"/>
<path d="M62.2045 61.1602H50.9006V59.006H62.2045V61.1602Z" fill="#BFD0E2"/>
<path d="M61.9874 59.1201H51.1182V55.0381H61.9874V59.1201Z" fill="#ABBCD0"/>
<path d="M61.9874 103.579H51.1182V61.0498H61.9874V103.579Z" fill="#EAEEF8"/>
<path d="M54.2161 101.361C54.2161 101.706 53.9465 101.99 53.6181 101.99C53.2894 101.99 53.0201 101.706 53.0201 101.361V63.2658C53.0201 62.9205 53.2894 62.637 53.6181 62.637C53.9465 62.637 54.2161 62.9205 54.2161 63.2658V101.361Z" fill="#D2DAE7"/>
<path d="M57.1502 101.361C57.1502 101.706 56.8813 101.99 56.5529 101.99C56.2239 101.99 55.9553 101.706 55.9553 101.361V63.2658C55.9553 62.9205 56.2239 62.637 56.5529 62.637C56.8813 62.637 57.1502 62.9205 57.1502 63.2658V101.361Z" fill="#D2DAE7"/>
<path d="M60.0849 101.361C60.0849 101.706 59.8157 101.99 59.4866 101.99C59.1579 101.99 58.8893 101.706 58.8893 101.361V63.2658C58.8893 62.9205 59.1579 62.637 59.4866 62.637C59.8157 62.637 60.0849 62.9205 60.0849 63.2658V101.361Z" fill="#D2DAE7"/>
<path d="M63.0745 109.363H50.0324V111.97H63.0745V109.363Z" fill="#D2DAE7"/>
<path d="M62.2045 103.24H50.9006V105.394H62.2045V103.24Z" fill="#BFD0E2"/>
<path d="M61.9874 105.279H51.1182V109.363H61.9874V105.279Z" fill="#ABBCD0"/>
<path d="M50.8167 52.8848H138.528V49.6506H50.8167V52.8848Z" fill="#BFD0E2"/>
<mask id="mask1_1327_1800" style="mask-type:luminance" maskUnits="userSpaceOnUse" x="112" y="49" width="27" height="4">
<path d="M138.527 52.8848H126.148C126.148 52.8848 125.646 50.1255 112.872 49.6506H138.527V52.8848Z" fill="white"/>
</mask>
<g mask="url(#mask1_1327_1800)">
<path d="M112.872 52.8848H138.527V49.6506H112.872V52.8848Z" fill="#B1C5DA"/>
</g>
<path d="M54.8626 35.5059H134.482V28.5525H54.8626V35.5059Z" fill="#BFD0E2"/>
<path d="M134.482 35.5059H133.58L131.333 34.4296C131.106 29.7663 126.343 28.6408 126.343 28.6408H134.482V35.5059Z" fill="#B1C5DA"/>
<path d="M135.598 28.6406L53.7464 28.6396V25.8293H135.598V28.6406Z" fill="#E2ECF9"/>
<path d="M94.6727 16.865L55.7654 35.5059H133.58L94.6727 16.865Z" fill="#F2F5FC"/>
<path d="M138.204 46.416H51.1409V37.7629L138.204 37.7643V46.416Z" fill="#ABBCD0"/>
<path d="M138.204 46.416H126.445C126.445 46.416 124.273 40.2495 108.657 38.7412H138.204V46.416Z" fill="#9AADC5"/>
<path d="M94.6728 19.3215L64.1786 33.9307H125.167L94.6728 19.3215Z" fill="#8899AF"/>
<path d="M125.167 33.9307L100.386 22.0583C100.385 22.058 100.383 22.057 100.383 22.0566L125.167 33.9307Z" fill="#D0D7E4"/>
<path d="M125.167 33.9307H106.175C106.175 33.9307 112.793 29.7015 100.386 22.0583L125.167 33.9307Z" fill="#75879E"/>
<path d="M50.1915 38.7412H139.155V35.5063H50.1915V38.7412Z" fill="#D2DAE7"/>
<path d="M139.155 38.7412H50.1915V37.7659H139.155V38.7412Z" fill="#B4C0D5"/>
<path d="M50.1915 49.6504H139.155V46.4158H50.1915V49.6504Z" fill="#D2DAE7"/>
<path d="M139.155 49.6504H50.1915V48.5605H139.155V49.6504Z" fill="#B4C0D5"/>
<path d="M181.488 20.0952C181.488 30.5752 172.992 39.0723 162.511 39.0723C152.03 39.0723 143.534 30.5752 143.534 20.0952C143.534 9.6149 152.03 1.11815 162.511 1.11815C172.992 1.11815 181.488 9.6149 181.488 20.0952Z" fill="#ED683D"/>
<path d="M167.464 24.1257C167.434 26.1592 168.121 27.6233 169.437 27.6233C170.723 27.6233 171.35 26.3091 171.35 24.1257C171.35 22.1527 170.842 20.6277 169.437 20.6277C168.061 20.6277 167.464 22.1826 167.464 24.1257ZM174.729 23.9163C174.729 27.9826 172.158 30.1059 169.347 30.1059C166.417 30.1059 164.085 27.8922 164.054 24.245C164.054 20.7773 166.178 18.1462 169.496 18.1462C172.846 18.1462 174.729 20.5978 174.729 23.9163ZM155.594 30.165L166.746 10.073H169.197L158.015 30.165H155.594ZM153.442 16.0532C153.442 18.0864 154.129 19.5515 155.445 19.5515C156.73 19.5515 157.358 18.2359 157.358 16.0532C157.358 14.0798 156.819 12.5552 155.414 12.5552C154.069 12.5552 153.442 14.1094 153.442 16.0532ZM160.737 15.8438C160.737 19.9094 158.165 22.0327 155.355 22.0327C152.395 22.0327 150.063 19.82 150.063 16.1718C150.063 12.7041 152.185 10.073 155.504 10.073C158.853 10.073 160.737 12.5246 160.737 15.8438Z" fill="white"/>
<path d="M162.477 39.0723C162.473 39.0723 162.469 39.0723 162.465 39.0723C162.469 39.0723 162.473 39.0723 162.477 39.0723ZM162.405 39.0719C162.401 39.0719 162.397 39.0719 162.394 39.0719C162.397 39.0719 162.401 39.0719 162.405 39.0719ZM162.365 39.0719C162.363 39.0719 162.36 39.0719 162.358 39.0719C162.361 39.0719 162.362 39.0719 162.365 39.0719ZM162.213 39.0702C162.21 39.0699 162.208 39.0699 162.206 39.0699C162.208 39.0699 162.21 39.0699 162.213 39.0702ZM162.171 39.0692C162.169 39.0692 162.167 39.0692 162.165 39.0692C162.167 39.0692 162.169 39.0692 162.171 39.0692ZM162.135 39.0689C162.132 39.0685 162.129 39.0685 162.127 39.0685C162.13 39.0685 162.132 39.0685 162.135 39.0689ZM162.099 39.0678C162.096 39.0678 162.094 39.0678 162.091 39.0678C162.094 39.0678 162.096 39.0678 162.099 39.0678ZM161.982 39.0651C161.981 39.0651 161.979 39.0651 161.978 39.0651C161.979 39.0651 161.981 39.0651 161.982 39.0651ZM161.945 39.0641C161.943 39.0641 161.942 39.0641 161.941 39.0641C161.942 39.0641 161.943 39.0641 161.945 39.0641ZM181.488 20.0259C181.488 20.0214 181.488 20.0167 181.488 20.0123C181.488 20.0167 181.488 20.0211 181.488 20.0259ZM181.488 19.9892C181.488 19.9854 181.488 19.9813 181.488 19.9776C181.488 19.9817 181.488 19.9851 181.488 19.9892ZM181.487 19.9497C181.487 19.947 181.487 19.9446 181.487 19.9422C181.487 19.9446 181.487 19.9473 181.487 19.9497ZM181.487 19.8726C181.487 19.8685 181.487 19.8654 181.487 19.8617C181.487 19.8651 181.487 19.8688 181.487 19.8726ZM181.486 19.8355C181.486 19.8321 181.486 19.829 181.486 19.8256C181.486 19.829 181.486 19.8324 181.486 19.8355ZM181.485 19.7549C181.485 19.7529 181.485 19.7509 181.485 19.7492C181.485 19.7512 181.485 19.7529 181.485 19.7549ZM181.483 19.6411C181.483 19.6404 181.483 19.6404 181.483 19.6397C181.483 19.64 181.483 19.6407 181.483 19.6411ZM181.48 19.5292C181.48 19.5279 181.48 19.5262 181.48 19.5248C181.48 19.5265 181.48 19.5275 181.48 19.5292Z" fill="#2F2626"/>
<path d="M162.512 39.0723C162.5 39.0723 162.488 39.0723 162.477 39.0723C162.473 39.0723 162.469 39.0723 162.465 39.0723C162.457 39.0723 162.45 39.0723 162.442 39.0723C162.437 39.0723 162.433 39.0723 162.428 39.0723C162.421 39.0723 162.413 39.0723 162.405 39.0719C162.401 39.0719 162.398 39.0719 162.394 39.0719C162.384 39.0719 162.375 39.0719 162.365 39.0719C162.363 39.0719 162.361 39.0719 162.358 39.0719C162.347 39.0716 162.335 39.0716 162.324 39.0716C162.32 39.0716 162.318 39.0712 162.315 39.0712C162.306 39.0712 162.297 39.0712 162.288 39.0709C162.284 39.0709 162.282 39.0709 162.278 39.0709C162.269 39.0709 162.26 39.0709 162.251 39.0706C162.248 39.0706 162.245 39.0706 162.242 39.0706C162.232 39.0702 162.223 39.0702 162.213 39.0702C162.211 39.0699 162.208 39.0699 162.207 39.0699C162.195 39.0699 162.183 39.0695 162.171 39.0692C162.169 39.0692 162.167 39.0692 162.165 39.0692C162.156 39.0692 162.145 39.0689 162.135 39.0689C162.132 39.0685 162.13 39.0685 162.127 39.0685C162.117 39.0682 162.108 39.0682 162.099 39.0678C162.096 39.0678 162.094 39.0678 162.091 39.0678C162.055 39.0672 162.019 39.0661 161.982 39.0651C161.981 39.0651 161.979 39.0651 161.978 39.0651C161.967 39.0648 161.956 39.0644 161.945 39.0641C161.943 39.0641 161.942 39.0641 161.941 39.0641C155.684 38.8792 150.188 35.664 146.868 30.8362C149.922 32.9377 153.622 34.17 157.608 34.17C162.039 34.17 166.116 32.6519 169.345 30.1064C169.346 30.1064 169.346 30.1064 169.347 30.1064C172.158 30.1064 174.729 27.9831 174.729 23.9168C174.729 23.7489 174.724 23.5833 174.715 23.4201C175.914 20.9315 176.586 18.1416 176.586 15.194C176.586 11.2058 175.354 7.50696 173.252 4.45193C178.051 7.75342 181.257 13.2023 181.476 19.4133C181.477 19.4503 181.479 19.4877 181.48 19.5248C181.48 19.5262 181.48 19.5279 181.48 19.5292C181.48 19.5397 181.48 19.5503 181.481 19.5612C181.481 19.5629 181.481 19.5646 181.481 19.5666C181.481 19.5911 181.482 19.6152 181.483 19.6397C181.483 19.6404 181.483 19.6404 181.483 19.6411C181.483 19.6523 181.483 19.6635 181.483 19.6744C181.483 19.6778 181.484 19.6802 181.484 19.6832C181.484 19.6921 181.484 19.7016 181.484 19.7101C181.484 19.7135 181.484 19.7162 181.484 19.7196C181.485 19.7294 181.485 19.7393 181.485 19.7492C181.485 19.7509 181.485 19.7529 181.485 19.7549C181.485 19.7668 181.486 19.7787 181.486 19.7906C181.486 19.7923 181.486 19.7944 181.486 19.7964C181.486 19.8063 181.486 19.8158 181.486 19.8256C181.486 19.829 181.486 19.8321 181.487 19.8355C181.487 19.844 181.487 19.8528 181.487 19.8617C181.487 19.8654 181.487 19.8685 181.487 19.8726C181.487 19.8811 181.487 19.8895 181.487 19.8984C181.487 19.9014 181.487 19.9045 181.487 19.9076C181.487 19.9191 181.488 19.9307 181.488 19.9422C181.488 19.9446 181.488 19.947 181.488 19.9497C181.488 19.9592 181.488 19.9681 181.488 19.9776C181.488 19.9813 181.488 19.9854 181.488 19.9892C181.488 19.9966 181.488 20.0044 181.488 20.0123C181.488 20.0167 181.488 20.0214 181.488 20.0259C181.488 20.0333 181.488 20.0412 181.488 20.0486C181.488 20.0527 181.488 20.0568 181.488 20.0609C181.488 20.0721 181.488 20.0836 181.488 20.0952C181.488 30.5752 172.992 39.0723 162.512 39.0723Z" fill="#E64D28"/>
<path d="M169.347 30.1064C169.346 30.1064 169.346 30.1064 169.345 30.1064C171.606 28.3248 173.453 26.0391 174.715 23.4202C174.724 23.5834 174.729 23.7489 174.729 23.9168C174.729 27.9832 172.158 30.1064 169.347 30.1064Z" fill="#F8BDA6"/>
<path d="M46.7998 120.798C47.0293 121.742 46.4456 122.704 45.5009 122.934L11.9616 131.108C11.0162 131.339 10.0549 130.753 9.82472 129.808L0.0501315 89.7032C-0.180007 88.7585 0.40435 87.7965 1.34938 87.5664L34.8887 79.3925C35.8334 79.161 36.7951 79.7461 37.0245 80.6898L46.7998 120.798Z" fill="#ED683D"/>
<path d="M37.1095 92.0149L5.32016 99.7617L3.12042 90.7391L34.9104 82.9902L37.1095 92.0149Z" fill="#3D4763"/>
<path d="M14.0043 105.458C14.1189 105.931 13.8265 106.412 13.354 106.528L8.18557 107.788C7.71408 107.902 7.23273 107.61 7.11749 107.137L6.38288 104.124C6.26798 103.653 6.56067 103.171 7.03318 103.056L12.2009 101.796C12.6738 101.68 13.1548 101.973 13.2694 102.445L14.0043 105.458Z" fill="#EAEEF8"/>
<path d="M22.2887 103.439C22.4036 103.911 22.1109 104.393 21.6384 104.508L16.4703 105.767C15.9974 105.883 15.5168 105.59 15.4019 105.118L14.6673 102.104C14.552 101.632 14.8444 101.152 15.3169 101.037L20.4857 99.7765C20.9575 99.6616 21.4388 99.9529 21.5541 100.425L22.2887 103.439Z" fill="#EAEEF8"/>
<path d="M30.5723 101.42C30.6869 101.893 30.3955 102.373 29.9227 102.49L24.7546 103.748C24.2818 103.863 23.8001 103.572 23.6855 103.099L22.9509 100.086C22.836 99.6134 23.1283 99.1327 23.6015 99.0178L28.7693 97.7573C29.2421 97.6424 29.7221 97.9361 29.8377 98.4069L30.5723 101.42Z" fill="#EAEEF8"/>
<path d="M38.9068 99.389C39.0224 99.8622 38.729 100.343 38.2565 100.459L33.0887 101.718C32.6162 101.833 32.1352 101.541 32.0203 101.068L31.2854 98.0541C31.1705 97.5833 31.4638 97.1016 31.936 96.987L37.1037 95.7262C37.5766 95.6123 38.0573 95.9037 38.1722 96.3769L38.9068 99.389Z" fill="#EAEEF8"/>
<path d="M15.6272 112.117C15.7424 112.592 15.4498 113.072 14.9772 113.187L9.80951 114.446C9.33665 114.562 8.85564 114.269 8.74006 113.797L8.00647 110.783C7.89089 110.311 8.18392 109.831 8.65609 109.715L13.8242 108.455C14.2967 108.339 14.7774 108.633 14.8926 109.106L15.6272 112.117Z" fill="#EAEEF8"/>
<path d="M23.9112 110.099C24.0264 110.572 23.734 111.053 23.2615 111.168L18.0938 112.428C17.6203 112.543 17.1396 112.251 17.0243 111.776L16.2897 108.764C16.1748 108.291 16.4675 107.81 16.9404 107.695L22.1081 106.436C22.5813 106.322 23.0617 106.612 23.1776 107.086L23.9112 110.099Z" fill="#EAEEF8"/>
<path d="M32.1945 108.079C32.3107 108.552 32.018 109.033 31.5462 109.149L26.3774 110.408C25.9042 110.524 25.4236 110.231 25.3087 109.758L24.5737 106.745C24.4588 106.273 24.7518 105.791 25.224 105.676L30.3928 104.416C30.8656 104.301 31.3453 104.594 31.4602 105.066L32.1945 108.079Z" fill="#EAEEF8"/>
<path d="M40.5293 106.047C40.6449 106.521 40.3525 107.002 39.8797 107.117L34.7119 108.376C34.2397 108.491 33.7581 108.199 33.6432 107.726L32.9089 104.714C32.7936 104.24 33.0863 103.76 33.5595 103.645L38.7269 102.385C39.1991 102.27 39.6801 102.563 39.795 103.036L40.5293 106.047Z" fill="#EAEEF8"/>
<path d="M17.2501 118.778C17.3657 119.249 17.0727 119.731 16.6002 119.846L11.4321 121.104C10.9599 121.221 10.4782 120.928 10.3633 120.456L9.6294 117.442C9.51348 116.969 9.80651 116.488 10.2797 116.373L15.4471 115.114C15.9193 114.999 16.401 115.291 16.5159 115.765L17.2501 118.778Z" fill="#EAEEF8"/>
<path d="M25.5347 116.758C25.6496 117.231 25.3573 117.711 24.8844 117.827L19.7164 119.087C19.2435 119.201 18.7628 118.91 18.6479 118.436L17.9133 115.424C17.7984 114.951 18.0901 114.469 18.563 114.354L23.731 113.095C24.2036 112.98 24.6849 113.271 24.8001 113.744L25.5347 116.758Z" fill="#EAEEF8"/>
<path d="M33.8176 114.738C33.9332 115.211 33.6416 115.692 33.1687 115.807L27.9996 117.066C27.5278 117.183 27.0471 116.89 26.9312 116.418L26.1969 113.405C26.0817 112.931 26.3744 112.451 26.8472 112.335L32.015 111.076C32.4882 110.96 32.9685 111.253 33.0837 111.726L33.8176 114.738Z" fill="#EAEEF8"/>
<path d="M27.1575 123.417C27.2724 123.89 26.9797 124.37 26.5069 124.485L13.0552 127.764C12.5823 127.879 12.1017 127.586 11.9864 127.115L11.2522 124.101C11.1366 123.629 11.4293 123.149 11.9018 123.034L25.3542 119.755C25.8267 119.64 26.3077 119.931 26.4229 120.403L27.1575 123.417Z" fill="#EFAD9A"/>
<path d="M35.4411 121.399C35.556 121.871 35.264 122.352 34.7918 122.466L29.623 123.727C29.1502 123.842 28.6695 123.549 28.5543 123.078L27.8197 120.064C27.7048 119.592 27.9971 119.11 28.4696 118.995L33.6384 117.736C34.1109 117.62 34.5912 117.913 34.7065 118.386L35.4411 121.399Z" fill="#EAEEF8"/>
<path d="M43.7763 119.368C43.8915 119.838 43.5988 120.32 43.126 120.434L37.9579 121.695C37.485 121.81 37.0043 121.517 36.8891 121.045L34.532 111.373C34.4167 110.9 34.7098 110.42 35.1823 110.304L40.35 109.045C40.8229 108.93 41.3035 109.222 41.4191 109.695L43.7763 119.368Z" fill="#78DCA8"/>
<path d="M165.022 131.978C164.743 133.418 163.339 134.367 161.9 134.088L107.615 123.579C106.177 123.301 105.226 121.897 105.506 120.458L111.715 88.379C111.993 86.9404 113.398 85.9909 114.837 86.2703L169.122 96.7788C170.561 97.0566 171.511 98.4619 171.23 99.8998L165.022 131.978Z" fill="#4563CD"/>
<path d="M126.504 90.1807L119.628 88.8491L120.13 86.2612L127.006 87.592L126.504 90.1807Z" fill="#BFD0E2"/>
<path d="M163.713 97.3838L156.839 96.0516L157.339 93.4626L164.215 94.7941L163.713 97.3838Z" fill="#BFD0E2"/>
<path d="M169.123 96.7791L114.837 86.2706C113.398 85.9912 111.994 86.9406 111.715 88.3792L109.681 98.8898C109.681 98.8898 133.91 117.821 169.196 110.411L171.23 99.9001C171.511 98.4622 170.561 97.0569 169.123 96.7791Z" fill="#3550A0"/>
<path d="M144.352 109.011L133.253 106.862L133.816 103.944L144.917 106.093L144.352 109.011Z" fill="#BFD0E2"/>
<path d="M151.495 93.3652L149.188 92.9196L150.13 88.0523L152.437 88.499L151.495 93.3652Z" fill="#BFD0E2"/>
<path d="M151.349 93.3379L150.66 93.2057L150.661 93.2046L151.348 93.3376L151.349 93.3379Z" fill="#5AB395"/>
<path d="M151.495 93.3652L151.349 93.3374L151.349 93.337L151.495 93.3652Z" fill="#A0CCB4"/>
<path d="M151.495 93.3652L151.349 93.337L150.661 93.2041L151.469 89.0286L152.303 89.1901L152.272 89.3526L151.906 91.241L151.495 93.3652Z" fill="#8FAAC8"/>
<path d="M134.77 90.1279L132.464 89.6823L133.406 84.8154L135.712 85.2617L134.77 90.1279Z" fill="#BFD0E2"/>
<path d="M134.611 90.0977L134.142 90.0072L133.935 89.9675V89.9661L134.611 90.0966V90.0977Z" fill="#AFC2DC"/>
<path d="M134.611 90.0967L133.935 89.9661L134.743 85.7914L135.419 85.9219L134.611 90.0967Z" fill="#8FAAC8"/>
<path d="M154.415 88.7856C154.332 89.2169 153.911 89.5021 153.48 89.4178L132.096 85.2788C131.664 85.1955 131.378 84.7733 131.462 84.3432L132.03 81.4133C132.114 80.9823 132.535 80.6977 132.967 80.781L154.351 84.9201C154.782 85.0041 155.066 85.4242 154.982 85.857L154.415 88.7856Z" fill="#3550A0"/>
<path d="M154.351 84.9203L153.744 84.803L153.744 84.8027L154.351 84.9203Z" fill="#52A08F"/>
<path d="M153.632 89.4326C153.631 89.4326 153.631 89.4326 153.63 89.4326C153.585 89.4323 153.538 89.4282 153.491 89.4197C153.487 89.419 153.484 89.4183 153.48 89.4177L152.303 89.1899L151.469 89.0284L135.419 85.9217L134.743 85.7912L132.096 85.2786C131.715 85.2051 131.447 84.8672 131.448 84.4933C131.448 84.4437 131.453 84.3934 131.462 84.3431L131.535 83.9688L152.313 87.9903C152.363 87.9998 152.414 88.0045 152.464 88.0045C152.839 88.0045 153.175 87.7387 153.25 87.3576L153.744 84.8027L154.351 84.9199C154.731 84.994 154.997 85.3302 154.997 85.7059C154.997 85.7555 154.992 85.8062 154.982 85.8568L154.415 88.7854C154.414 88.7935 154.412 88.8017 154.41 88.8102C154.407 88.8231 154.404 88.836 154.4 88.8486C154.304 89.1936 153.987 89.4306 153.636 89.4326C153.635 89.4326 153.633 89.4326 153.632 89.4326Z" fill="#243A88"/>
<path d="M165.022 131.978L168.835 112.278C168.836 112.275 168.836 112.272 168.837 112.27L165.022 131.978Z" fill="#222736"/>
<path d="M162.405 134.137C162.405 134.137 162.404 134.137 162.404 134.137C162.238 134.137 162.069 134.121 161.9 134.088L141.044 130.05C141.557 130.146 143.423 130.473 145.983 130.473C152.903 130.473 164.883 128.082 168.835 112.278L165.022 131.978C165.02 131.987 165.019 131.995 165.017 132.003C165.014 132.02 165.01 132.036 165.006 132.053V132.053C165.003 132.067 165 132.08 164.997 132.093C164.708 133.299 163.62 134.133 162.412 134.137C162.41 134.137 162.407 134.137 162.405 134.137Z" fill="#314BBD"/>
<path d="M99.9044 129.898L99.9673 133.163C99.9884 135.41 93.1268 137.434 84.6409 137.267C76.1533 137.099 69.2553 134.801 69.2359 132.555L69.2097 129.682C69.2097 129.682 84.6184 126.057 99.9044 129.898Z" fill="#EBB941"/>
<path d="M99.9434 130.291C99.9624 132.538 93.1018 134.563 84.6145 134.395C76.128 134.226 69.2283 131.93 69.2096 129.682C69.1813 126.569 76.0461 124.829 84.533 124.998C93.0192 125.165 99.9152 126.937 99.9434 130.291Z" fill="#F6DF5C"/>
<path d="M96.7502 129.87C96.7668 131.629 91.2666 133.215 84.4645 133.085C77.6619 132.955 72.1315 131.159 72.1169 129.4C72.0965 126.967 77.5974 125.606 84.4002 125.736C91.2014 125.867 96.7288 127.251 96.7502 129.87Z" fill="#EBB941"/>
<path d="M96.7524 130.006C96.7674 131.688 91.2665 133.206 84.4633 133.085C77.6608 132.963 72.1334 131.248 72.1188 129.566C72.0988 127.238 77.6007 125.934 84.4025 126.054C91.204 126.176 96.7307 127.499 96.7524 130.006Z" fill="#F2D031"/>
<path d="M88.9688 131.948L88.0883 131.487C87.2188 131.583 86.1942 131.6 85.4559 131.549L84.5768 130.872C85.4202 130.929 86.4481 130.948 87.3119 130.844C88.0387 130.758 88.3246 130.583 87.9394 130.366C87.5665 130.157 86.9067 130.069 85.6258 130.031C83.6705 129.975 81.9334 129.778 80.6593 129.145C79.4002 128.532 79.4903 127.958 81.0373 127.686L79.6708 126.964L81.3392 126.873L82.5497 127.531C83.6511 127.485 84.5101 127.54 85.1934 127.62L86.0582 128.408C85.5595 128.361 84.5978 128.261 83.5192 128.345C82.496 128.424 82.5239 128.639 82.8897 128.827C83.301 129.044 84.093 129.132 85.6731 129.222C87.7484 129.322 88.9028 129.577 89.734 130.074C90.5158 130.543 90.4271 131.018 89.2329 131.294L90.1402 131.785L88.9688 131.948Z" fill="#E7AD42"/>
<path d="M99.7242 126.418C99.7374 128.667 92.8679 130.669 84.3831 130.475C75.8965 130.28 69.0039 127.962 68.9914 125.714C68.974 122.6 75.8435 120.882 84.3307 121.077C92.8159 121.271 99.7061 123.067 99.7242 126.418Z" fill="#F6DF5C"/>
<path d="M99.6867 126.027L99.7401 129.291C99.7527 131.538 92.8852 133.542 84.4001 133.348C75.9135 133.153 69.0216 130.833 69.0083 128.585L68.9913 125.713C68.9913 125.713 84.4123 122.139 99.6867 126.027Z" fill="#EBB941"/>
<path d="M99.7242 126.418C99.7374 128.667 92.8679 130.669 84.3831 130.475C75.8965 130.28 69.0039 127.962 68.9914 125.714C68.974 122.6 75.8435 120.882 84.3307 121.077C92.8159 121.271 99.7061 123.067 99.7242 126.418Z" fill="#F6DF5C"/>
<path d="M96.5333 125.99C96.5435 127.748 91.0378 129.316 84.2363 129.165C77.4365 129.013 71.9102 127.198 71.9007 125.44C71.8881 123.006 77.3934 121.664 84.1949 121.815C90.997 121.966 96.5186 123.368 96.5333 125.99Z" fill="#EBB941"/>
<path d="M96.5342 126.126C96.5441 127.806 91.0377 129.306 84.2363 129.165C77.4341 129.021 71.9118 127.288 71.9019 125.604C71.89 123.277 77.3957 121.991 84.1968 122.133C90.9973 122.277 96.5192 123.616 96.5342 126.126Z" fill="#F2D031"/>
<path d="M88.7445 128.042L87.8651 127.578C86.9952 127.67 85.9723 127.683 85.2326 127.632L84.3556 126.95C85.2003 127.012 86.2276 127.032 87.0917 126.933C87.8192 126.849 88.1047 126.675 87.7196 126.458C87.3477 126.247 86.6882 126.155 85.4087 126.114C83.452 126.052 81.7166 125.848 80.4456 125.214C79.1868 124.596 79.2789 124.022 80.827 123.753L79.4622 123.027L81.1299 122.942L82.3401 123.603C83.4405 123.562 84.2998 123.62 84.9834 123.701L85.8455 124.491C85.3465 124.443 84.3855 124.34 83.3065 124.421C82.2833 124.496 82.3108 124.71 82.6753 124.901C83.0876 125.12 83.8769 125.209 85.4583 125.305C87.5323 125.412 88.686 125.67 89.5165 126.169C90.296 126.641 90.2062 127.117 89.0127 127.388L89.9163 127.883L88.7445 128.042Z" fill="#E7AD42"/>
<path d="M99.884 121.854L100.001 125.115C100.056 127.362 93.228 129.496 84.7401 129.464C76.2512 129.43 69.3171 127.239 69.2613 124.994L69.1903 122.12C69.1903 122.12 84.5402 118.254 99.884 121.854Z" fill="#EBB941"/>
<path d="M99.9307 122.243C99.9845 124.491 93.1565 126.624 84.6685 126.589C76.1806 126.556 69.2452 124.369 69.1901 122.12C69.114 119.008 75.9501 117.16 84.4377 117.196C92.925 117.227 99.8481 118.892 99.9307 122.243Z" fill="#F6DF5C"/>
<path d="M96.7317 121.874C96.7753 123.631 91.3006 125.304 84.496 125.281C77.6945 125.258 72.1359 123.549 72.0934 121.792C72.0346 119.36 77.513 117.913 84.3172 117.934C91.1204 117.956 96.6682 119.255 96.7317 121.874Z" fill="#EBB941"/>
<path d="M96.7351 122.009C96.7769 123.691 91.3006 125.296 84.496 125.281C77.6942 125.268 72.1403 123.64 72.0978 121.957C72.0414 119.63 77.5222 118.24 84.3254 118.254C91.1265 118.269 96.6746 119.503 96.7351 122.009Z" fill="#F2D031"/>
<path d="M88.9834 124.075L88.0951 123.627C87.2276 123.736 86.2047 123.77 85.465 123.73L84.5747 123.066C85.4201 123.111 86.4474 123.114 87.3102 122.996C88.0349 122.9 88.3178 122.72 87.9286 122.509C87.5529 122.306 86.8911 122.228 85.6115 122.21C83.6542 122.185 81.9154 122.015 80.6308 121.404C79.3614 120.811 79.4437 120.235 80.9863 119.936L79.6075 119.238L81.2736 119.121L82.4957 119.759C83.595 119.697 84.4561 119.737 85.14 119.806L86.0174 120.58C85.5184 120.542 84.5553 120.457 83.4774 120.557C82.4555 120.652 82.4875 120.866 82.8546 121.049C83.2697 121.26 84.0638 121.334 85.6452 121.4C87.7222 121.469 88.88 121.704 89.719 122.187C90.5077 122.644 90.4274 123.121 89.2377 123.415L90.1521 123.892L88.9834 124.075Z" fill="#E7AD42"/>
<path d="M99.5909 116.536L99.7799 119.795C99.8863 122.041 93.1072 124.328 84.6217 124.487C76.1345 124.646 69.1518 122.614 69.0454 120.37L68.9094 117.499C68.9094 117.499 84.1675 113.285 99.5909 116.536Z" fill="#EBB941"/>
<path d="M99.6451 116.925C99.7498 119.172 92.9725 121.459 84.4852 121.616C75.9977 121.776 69.015 119.746 68.9096 117.499C68.7614 114.391 75.554 112.388 84.042 112.229C92.5282 112.07 99.486 113.576 99.6451 116.925Z" fill="#F6DF5C"/>
<path d="M96.4374 116.629C96.5213 118.385 91.0854 120.181 84.2842 120.314C77.4817 120.445 71.8874 118.863 71.8041 117.106C71.6895 114.675 77.134 113.104 83.9368 112.972C90.739 112.841 96.3143 114.012 96.4374 116.629Z" fill="#EBB941"/>
<path d="M96.4441 116.765C96.524 118.445 91.0853 120.172 84.2835 120.314C77.4817 120.454 71.8928 118.95 71.8122 117.271C71.702 114.945 77.1506 113.43 83.9521 113.29C90.7532 113.15 96.3265 114.257 96.4441 116.765Z" fill="#F2D031"/>
<path d="M88.7414 119.006L87.8429 118.578C86.9781 118.708 85.957 118.762 85.2159 118.741L84.3106 118.098C85.1574 118.123 86.184 118.101 87.0438 117.965C87.7658 117.85 88.0459 117.665 87.6516 117.465C87.2715 117.269 86.6086 117.207 85.3284 117.217C83.3714 117.239 81.6292 117.106 80.3317 116.524C79.0491 115.96 79.1164 115.382 80.6526 115.051L79.2585 114.383L80.9215 114.226L82.1571 114.837C83.2548 114.75 84.1169 114.773 84.8022 114.824L85.6976 115.579C85.1969 115.55 84.2321 115.488 83.1569 115.614C82.1378 115.733 82.1731 115.944 82.547 116.119C82.9669 116.321 83.7616 116.378 85.3441 116.407C87.4204 116.428 88.5857 116.638 89.4345 117.102C90.2334 117.54 90.1644 118.02 88.9814 118.342L89.9064 118.797L88.7414 119.006Z" fill="#E7AD42"/>
<path d="M115.545 128.886C114.866 134.144 108.837 138.408 101.974 136.058C95.3556 134.173 90.4422 127.942 91.2733 122.265C92.0976 116.636 97.7063 111.687 104.678 116.363C110.857 118.572 116.217 123.665 115.545 128.886Z" fill="#EBB941"/>
<path d="M115.809 127.642C115.13 132.902 109.651 135.79 103.326 133.989C96.7063 132.101 91.7935 125.872 92.6267 120.195C93.449 114.564 99.5716 111.986 106.032 114.295C112.208 116.501 116.481 122.422 115.809 127.642Z" fill="#F6DF5C"/>
<path d="M113.341 126.726C112.818 130.778 108.598 133.004 103.722 131.615C98.6231 130.162 94.8379 125.362 95.4794 120.987C96.1137 116.651 100.83 114.663 105.809 116.441C110.567 118.141 113.861 122.705 113.341 126.726Z" fill="#EBB941"/>
<path d="M113.07 126.859C112.737 130.801 108.772 133.019 103.941 131.631C98.3293 130.013 94.6985 125.48 95.3882 120.849C96.0174 116.614 100.792 114.926 105.634 116.831C110.175 118.618 113.394 123.02 113.07 126.859Z" fill="#F2D031"/>
<path d="M102.258 129.961L102.625 128.541C101.637 128.238 100.738 127.718 100.256 127.242L101.155 125.615C101.693 126.118 102.491 126.661 103.463 126.91C104.314 127.131 104.981 126.954 105.134 126.356C105.281 125.789 104.896 125.306 103.89 124.648C102.432 123.698 101.532 122.67 101.908 121.221C102.247 119.908 103.441 119.119 105.119 119.221L105.483 117.802L106.947 118.18L106.608 119.493C107.594 119.795 108.212 120.179 108.644 120.545L107.776 122.12C107.43 121.854 106.833 121.335 105.758 121.056C104.788 120.805 104.364 121.142 104.257 121.56C104.128 122.051 104.57 122.499 105.715 123.306C107.331 124.393 107.833 125.4 107.486 126.742C107.144 128.07 105.909 128.96 104.117 128.816L103.725 130.338L102.258 129.961Z" fill="#E7AD42"/>
<path d="M69.1342 116.454C69.0693 116.371 69.0316 116.283 69.0231 116.191C68.9799 115.726 69.6951 115.223 70.9597 114.741C70.0755 115.247 69.4477 115.821 69.1342 116.454Z" fill="#8093AB"/>
<path d="M71.8218 117.361C70.4073 117.166 69.4494 116.858 69.1343 116.454C69.4477 115.821 70.0756 115.248 70.9597 114.741C73.1377 113.911 76.9447 113.143 81.3126 112.74C83.34 112.551 85.2637 112.461 86.9715 112.461C91.0797 112.461 93.9433 112.978 94.0252 113.873C94.0348 113.973 94.0093 114.074 93.9515 114.177C91.8571 113.359 88.6223 112.962 84.9502 112.962C84.6161 112.962 84.2775 112.965 83.9369 112.972C77.134 113.104 71.6896 114.675 71.8042 117.106C71.8052 117.13 71.8076 117.155 71.811 117.179C71.8103 117.209 71.811 117.24 71.8123 117.271C71.8137 117.301 71.8171 117.331 71.8218 117.361Z" fill="#D7C351"/>
<path d="M71.8109 117.179C71.8075 117.155 71.8051 117.13 71.8041 117.106C71.6895 114.675 77.134 113.104 83.9368 112.972C84.2774 112.965 84.616 112.962 84.9502 112.962C88.6222 112.962 91.857 113.359 93.9514 114.177C93.9157 114.239 93.8681 114.302 93.809 114.365C91.7364 113.633 88.6157 113.279 85.0817 113.279C84.7095 113.279 84.3325 113.282 83.9521 113.29C77.2407 113.429 71.8466 114.905 71.8109 117.179Z" fill="#CDA239"/>
<path d="M76.0855 117.604C74.4283 117.604 72.9741 117.52 71.8217 117.361C71.8169 117.331 71.8135 117.301 71.8122 117.27C71.8108 117.239 71.8101 117.209 71.8108 117.178C71.8465 114.904 77.2407 113.428 83.9521 113.29C84.3324 113.282 84.7094 113.278 85.0817 113.278C88.6157 113.278 91.7363 113.633 93.8089 114.365C93.1018 115.119 90.7301 115.916 87.4837 116.533C86.8966 116.456 86.1973 116.415 85.3441 116.406C83.7617 116.377 82.9669 116.32 82.5471 116.118C82.1732 115.943 82.1378 115.732 83.1569 115.613C83.6509 115.555 84.1213 115.537 84.5344 115.537C85.0205 115.537 85.4267 115.563 85.6976 115.578L84.8022 114.823C84.448 114.797 84.0465 114.778 83.59 114.778C83.1631 114.778 82.6875 114.794 82.1572 114.836L80.9215 114.225L79.2585 114.382L80.6526 115.05C79.1164 115.382 79.0491 115.96 80.3317 116.523C81.1574 116.894 82.1633 117.082 83.2902 117.165C82.782 117.223 82.2632 117.278 81.737 117.326C79.7127 117.514 77.7913 117.604 76.0855 117.604Z" fill="#D3B62B"/>
<path d="M83.2902 117.165C82.1633 117.082 81.1574 116.894 80.3317 116.524C79.0491 115.96 79.1164 115.382 80.6526 115.051L79.2585 114.382L80.9215 114.226L82.1571 114.836C82.6874 114.795 83.163 114.778 83.59 114.778C84.0465 114.778 84.448 114.797 84.8022 114.823L85.6976 115.578C85.4267 115.563 85.0204 115.538 84.5343 115.538C84.1213 115.538 83.6508 115.556 83.1569 115.613C82.1378 115.732 82.1731 115.944 82.547 116.118C82.9669 116.32 83.7616 116.378 85.3441 116.407C86.1973 116.415 86.8966 116.456 87.4836 116.533C86.2051 116.776 84.7913 116.991 83.2902 117.165Z" fill="#CA973A"/>
<path d="M95.6357 106.416L96.2771 109.55C96.6952 111.711 90.4448 114.88 82.2387 116.226C74.0305 117.571 66.9761 116.583 66.5584 114.42L66.0223 111.657C66.0223 111.657 80.2252 105.43 95.6357 106.416Z" fill="#EBB941"/>
<path d="M95.7428 106.785C96.1606 108.948 89.9108 112.117 81.703 113.462C73.4969 114.807 66.4418 113.819 66.0224 111.657C65.4434 108.662 71.749 105.769 79.9554 104.423C88.1615 103.077 95.1194 103.561 95.7428 106.785Z" fill="#F6DF5C"/>
<path d="M92.5932 106.947C92.9195 108.639 87.9007 111.143 81.3246 112.226C74.7474 113.308 69.1014 112.56 68.775 110.87C68.3219 108.528 73.3812 106.239 79.9587 105.157C86.5327 104.075 92.1054 104.427 92.5932 106.947Z" fill="#EBB941"/>
<path d="M92.6188 107.078C92.9308 108.695 87.8997 111.136 81.3247 112.226C74.7496 113.317 69.1188 112.646 68.8061 111.028C68.3723 108.787 73.4432 106.554 80.0179 105.463C86.5917 104.374 92.152 104.667 92.6188 107.078Z" fill="#F2D031"/>
<path d="M85.4638 110.332L84.532 110.043C83.7121 110.291 82.7283 110.487 82.0087 110.571L81.0412 110.072C81.8642 109.979 82.8568 109.816 83.6713 109.561C84.3566 109.35 84.6007 109.13 84.1904 108.99C83.7947 108.855 83.1437 108.888 81.903 109.077C80.0078 109.372 78.2999 109.488 76.9599 109.107C75.6379 108.742 75.6226 108.171 77.0653 107.633L75.6199 107.181L77.2104 106.797L78.4947 107.215C79.5462 106.977 80.3841 106.876 81.0579 106.832L82.0301 107.436C81.5413 107.481 80.5973 107.554 79.5727 107.827C78.6008 108.085 78.6664 108.286 79.0529 108.404C79.4874 108.54 80.2651 108.483 81.8047 108.289C83.8219 108.018 84.9794 108.059 85.8694 108.39C86.7049 108.702 86.7039 109.176 85.6035 109.654L86.5632 109.965L85.4638 110.332Z" fill="#E7AD42"/>
</svg>
