<svg width="209" height="55" viewBox="0 0 209 55" fill="none" xmlns="http://www.w3.org/2000/svg">
<path d="M11.2173 19.1375H15.6041C16.46 19.1375 17.1538 18.4437 17.1538 17.5878C17.1538 16.7319 16.46 16.0381 15.6041 16.0381H11.2173C10.5181 16.0381 9.95142 16.6048 9.95142 17.3039V17.8715C9.95127 18.5708 10.5181 19.1375 11.2173 19.1375Z" fill="#FF7A2F"/>
<path d="M44.3958 12.2393C40.3574 12.0733 36.6635 13.5429 33.9195 16.0386H21.8542C21.0009 16.0386 20.2691 16.7061 20.2534 17.5592C20.2374 18.4283 20.9373 19.1379 21.8028 19.1379H31.3324H34.9263C35.7796 19.1379 36.5114 19.8055 36.5271 20.6586C36.5431 21.5277 35.8432 22.2373 34.9777 22.2373H32.1282H32.1281H2.17982C1.44408 22.2373 0.847656 22.8337 0.847656 23.5695V24.0045C0.847656 24.7403 1.44408 25.3367 2.17982 25.3367H29.1998H34.9262C35.7795 25.3367 36.5113 26.0042 36.527 26.8574C36.5429 27.7265 35.843 28.4361 34.9776 28.4361H32.4238H29.1998H26.7475C25.8942 28.4361 25.1624 29.1036 25.1467 29.9567C25.1309 30.8258 25.8306 31.5355 26.6961 31.5355H29.8714H32.4238H34.1992C35.0523 31.5355 35.7843 32.2028 35.7999 33.056C35.8159 33.9251 35.1163 34.6345 34.2508 34.6348H25.1464C24.2905 34.6348 23.5969 35.3286 23.5969 36.1844C23.5969 37.0403 24.2907 37.7341 25.1465 37.7341H33.9195C36.5229 40.1019 39.9814 41.5461 43.7779 41.5461C51.9433 41.5461 58.5496 34.8702 58.4361 26.6787C58.3287 18.9391 52.1289 12.5571 44.3958 12.2393ZM48.7617 32.5633C48.4331 33.2288 47.9882 33.7839 47.4266 34.2289C46.8648 34.674 46.2082 35.0089 45.4564 35.2336C45.2632 35.2912 45.0667 35.3414 44.8667 35.3842V37.253C44.8667 37.9777 44.2792 38.5653 43.5545 38.5653C42.8298 38.5653 42.2422 37.9777 42.2422 37.253V35.5373C42.2422 35.5373 42.2438 35.5375 42.2445 35.5375C41.9624 35.5137 41.6913 35.4774 41.4317 35.4276C40.9347 35.3324 40.4963 35.2182 40.1161 35.0841C39.7357 34.9503 39.4182 34.81 39.1634 34.6628C38.9084 34.516 38.7247 34.3865 38.6126 34.2741C38.5001 34.1619 38.4201 33.9998 38.3728 33.7879C38.3252 33.5764 38.3016 33.2718 38.3016 32.8741C38.3016 32.6064 38.3101 32.3815 38.3274 32.2001C38.3447 32.0185 38.3728 31.8717 38.4117 31.7594C38.4506 31.647 38.5024 31.5671 38.5673 31.5196C38.6321 31.4722 38.7076 31.4484 38.7941 31.4484C38.915 31.4484 39.0858 31.5196 39.3061 31.6623C39.5263 31.8048 39.8093 31.9627 40.155 32.1354C40.5005 32.3083 40.9132 32.4658 41.3928 32.6084C41.8724 32.7509 42.4275 32.8223 43.0585 32.8223C43.4732 32.8223 43.8447 32.7727 44.1732 32.6733C44.5015 32.574 44.7803 32.4336 45.0093 32.252C45.2381 32.0706 45.4131 31.846 45.5341 31.5781C45.655 31.3104 45.7157 31.0123 45.7157 30.6836C45.7157 30.3036 45.6119 29.9772 45.4045 29.705C45.1972 29.4327 44.927 29.191 44.5944 28.9791C44.2616 28.7675 43.8836 28.5689 43.4603 28.3828C43.0368 28.1971 42.6003 28.0004 42.1512 27.7931C41.7018 27.5856 41.2654 27.3503 40.8421 27.0866C40.4185 26.8233 40.0405 26.5079 39.7079 26.1405C39.3751 25.7732 39.1051 25.339 38.8979 24.8378C38.6905 24.3367 38.5867 23.7361 38.5867 23.0362C38.5867 22.2325 38.7358 21.5261 39.0338 20.9169C39.3319 20.3077 39.7337 19.8021 40.2393 19.4003C40.7447 18.9985 41.341 18.6984 42.028 18.4994C42.099 18.479 42.1704 18.4598 42.2422 18.4414V16.5189C42.2422 15.794 42.8298 15.2066 43.5545 15.2066C44.2792 15.2066 44.8667 15.794 44.8667 16.5189V18.2291C45.046 18.244 45.2252 18.2648 45.4045 18.2921C45.8019 18.3526 46.1735 18.4346 46.5193 18.5383C46.8648 18.6419 47.1716 18.7587 47.4396 18.8883C47.7074 19.0179 47.8846 19.126 47.9711 19.2124C48.0574 19.2989 48.1156 19.3724 48.1461 19.4328C48.1763 19.4935 48.2022 19.5734 48.2239 19.6725C48.2453 19.7719 48.2604 19.8973 48.2691 20.0484C48.2777 20.1997 48.2822 20.3875 48.2822 20.6122C48.2822 20.8629 48.2757 21.0745 48.2627 21.2473C48.2498 21.4203 48.2281 21.5628 48.1979 21.675C48.1675 21.7875 48.1245 21.8694 48.0683 21.9213C48.012 21.9732 47.9365 21.999 47.8415 21.999C47.7463 21.999 47.5952 21.9387 47.3878 21.8176C47.1805 21.6968 46.9255 21.565 46.6231 21.4223C46.3205 21.2798 45.9705 21.1503 45.5732 21.0336C45.1756 20.9169 44.7392 20.8586 44.2641 20.8586C43.8924 20.8586 43.5684 20.9038 43.292 20.9947C43.0154 21.0855 42.7842 21.2109 42.5984 21.3707C42.4126 21.5307 42.2744 21.7229 42.1837 21.9474C42.093 22.1722 42.0476 22.4097 42.0476 22.6603C42.0476 23.032 42.149 23.3537 42.3522 23.6259C42.5551 23.8982 42.8273 24.1402 43.1688 24.3518C43.5101 24.5637 43.8966 24.7623 44.3288 24.9481C44.7608 25.134 45.2015 25.3305 45.6508 25.5378C46.1001 25.7452 46.5407 25.9807 46.973 26.2441C47.405 26.5079 47.7895 26.8233 48.1265 27.1903C48.4634 27.5577 48.7357 27.9897 48.943 28.4864C49.1504 28.9835 49.2542 29.5687 49.2542 30.2428C49.2542 31.1245 49.0899 31.898 48.7617 32.5633Z" fill="#FF7A2F"/>
<path d="M43.6586 0.5C30.8434 0.5 20.1135 9.42809 17.3497 21.4036H20.7426C20.8783 20.8922 21.0294 20.3869 21.1977 19.8898C20.1762 19.6212 19.4196 18.6924 19.4196 17.5878C19.4196 16.2739 20.4885 15.205 21.8024 15.205H23.383C27.5413 8.36208 35.0661 3.79122 43.6586 3.79122C56.7525 3.79122 67.3671 14.4058 67.3671 27.4999C67.3671 40.5939 56.7523 51.2086 43.6586 51.2086C32.2332 51.2086 22.6963 43.1264 20.4511 32.3677H17.0972C19.3893 44.9559 30.4089 54.5 43.6586 54.5C58.5702 54.5 70.6585 42.4117 70.6585 27.5001C70.6585 12.5883 58.5702 0.5 43.6586 0.5Z" fill="#FF7A2F"/>
<path d="M20.4976 28.4355H14.7699C14.1977 28.4355 13.7339 28.8993 13.7339 29.4715V30.4988C13.7339 31.071 14.1978 31.5348 14.7699 31.5348H20.4976C21.3535 31.5348 22.0473 30.841 22.0473 29.9851C22.0473 29.1292 21.3533 28.4355 20.4976 28.4355Z" fill="#FF7A2F"/>
<path d="M207.735 15.5677V19.1473H195.221V15.5677H207.735ZM198.577 10.0791H203.037V31.7503C203.037 32.6153 203.166 33.2666 203.424 33.7041C203.683 34.1317 204.016 34.425 204.424 34.5841C204.841 34.7332 205.294 34.8078 205.781 34.8078C206.139 34.8078 206.452 34.7829 206.72 34.7332C206.989 34.6835 207.198 34.6437 207.347 34.6139L208.152 38.2979C207.894 38.3973 207.526 38.4967 207.049 38.5961C206.571 38.7055 205.975 38.7652 205.259 38.7751C204.086 38.795 202.992 38.5862 201.978 38.1487C200.963 37.7112 200.143 37.0351 199.517 36.1203C198.89 35.2055 198.577 34.0571 198.577 32.675V10.0791Z" fill="#1F1F1F"/>
<path d="M182.264 38.9393C180.007 38.9393 178.063 38.457 176.432 37.4925C174.812 36.5181 173.559 35.1509 172.674 33.391C171.799 31.6211 171.361 29.5479 171.361 27.1715C171.361 24.8249 171.799 22.7567 172.674 20.967C173.559 19.1772 174.792 17.7802 176.373 16.7759C177.964 15.7717 179.823 15.2695 181.951 15.2695C183.243 15.2695 184.496 15.4833 185.709 15.9109C186.922 16.3384 188.011 17.0096 188.976 17.9244C189.94 18.8391 190.701 20.0273 191.258 21.489C191.814 22.9407 192.093 24.7056 192.093 26.7837V28.3647H173.882V25.0238H187.723C187.723 23.8505 187.484 22.8114 187.007 21.9066C186.53 20.9918 185.858 20.271 184.993 19.744C184.138 19.217 183.134 18.9535 181.981 18.9535C180.728 18.9535 179.634 19.2617 178.699 19.8782C177.775 20.4847 177.059 21.2802 176.552 22.2646C176.055 23.239 175.806 24.2979 175.806 25.4414V28.0515C175.806 29.5827 176.074 30.8853 176.611 31.9592C177.158 33.033 177.919 33.8533 178.893 34.4201C179.868 34.9769 181.006 35.2553 182.309 35.2553C183.154 35.2553 183.925 35.136 184.621 34.8974C185.317 34.6488 185.918 34.2809 186.425 33.7937C186.932 33.3065 187.32 32.7049 187.589 31.989L191.809 32.7496C191.471 33.9925 190.865 35.0813 189.99 36.016C189.125 36.9407 188.036 37.6616 186.724 38.1786C185.421 38.6857 183.934 38.9393 182.264 38.9393Z" fill="#1F1F1F"/>
<path d="M161.447 7.93164H166.04V29.5879C166.04 31.5467 165.653 33.2221 164.877 34.6142C164.112 36.0062 163.033 37.0701 161.641 37.8059C160.249 38.5318 158.618 38.8947 156.749 38.8947C155.028 38.8947 153.482 38.5815 152.11 37.9551C150.748 37.3287 149.669 36.4189 148.874 35.2257C148.088 34.0226 147.695 32.5609 147.695 30.8407H152.274C152.274 31.6859 152.468 32.4167 152.856 33.0332C153.254 33.6497 153.795 34.1319 154.482 34.4799C155.178 34.818 155.973 34.987 156.868 34.987C157.842 34.987 158.668 34.7832 159.344 34.3755C160.03 33.9579 160.552 33.3464 160.91 32.541C161.268 31.7356 161.447 30.7512 161.447 29.5879V7.93164Z" fill="#1F1F1F"/>
<path d="M130.872 47.0684C130.205 47.0684 129.599 47.0137 129.052 46.9043C128.505 46.8049 128.097 46.6955 127.829 46.5762L128.903 42.9221C129.718 43.1408 130.444 43.2353 131.08 43.2054C131.717 43.1756 132.278 42.937 132.766 42.4895C133.263 42.0421 133.7 41.3113 134.078 40.2971L134.63 38.7757L126.248 15.5684H131.021L136.823 33.3468H137.061L142.863 15.5684H147.651L138.21 41.535C137.772 42.7282 137.215 43.7374 136.539 44.5627C135.863 45.3979 135.058 46.0243 134.123 46.4419C133.188 46.8596 132.104 47.0684 130.872 47.0684Z" fill="#1F1F1F"/>
<path d="M111.628 38.984C110.176 38.984 108.864 38.7156 107.69 38.1786C106.517 37.6317 105.587 36.8413 104.901 35.8072C104.225 34.7731 103.887 33.5053 103.887 32.0039C103.887 30.7113 104.136 29.6474 104.633 28.8121C105.13 27.9769 105.801 27.3157 106.646 26.8285C107.491 26.3413 108.436 25.9734 109.48 25.7248C110.524 25.4762 111.588 25.2873 112.672 25.158C114.044 24.9989 115.158 24.8697 116.013 24.7702C116.868 24.6609 117.489 24.4869 117.877 24.2482C118.265 24.0096 118.459 23.6218 118.459 23.0849V22.9805C118.459 21.6779 118.091 20.6687 117.355 19.9528C116.629 19.2369 115.545 18.8789 114.104 18.8789C112.602 18.8789 111.419 19.212 110.554 19.8782C109.699 20.5344 109.107 21.2653 108.779 22.0707L104.588 21.1161C105.085 19.7241 105.811 18.6005 106.766 17.7454C107.73 16.8803 108.839 16.2539 110.092 15.8661C111.344 15.4684 112.662 15.2695 114.044 15.2695C114.959 15.2695 115.928 15.3789 116.952 15.5977C117.986 15.8065 118.951 16.1942 119.846 16.761C120.751 17.3278 121.491 18.1381 122.068 19.1921C122.645 20.2361 122.933 21.5934 122.933 23.2638V38.4769H118.578V35.3448H118.399C118.111 35.9215 117.678 36.4883 117.101 37.0451C116.525 37.6019 115.784 38.0643 114.879 38.4322C113.974 38.8001 112.891 38.984 111.628 38.984ZM112.597 35.4045C113.83 35.4045 114.884 35.1609 115.759 34.6736C116.644 34.1864 117.315 33.5501 117.773 32.7646C118.24 31.9691 118.474 31.119 118.474 30.2141V27.261C118.315 27.4201 118.006 27.5692 117.549 27.7085C117.101 27.8377 116.589 27.9521 116.013 28.0515C115.436 28.141 114.874 28.2255 114.327 28.305C113.78 28.3746 113.323 28.4343 112.955 28.484C112.09 28.5934 111.3 28.7773 110.584 29.0359C109.878 29.2944 109.311 29.6673 108.883 30.1545C108.466 30.6317 108.257 31.2681 108.257 32.0636C108.257 33.1673 108.665 34.0025 109.48 34.5692C110.295 35.1261 111.334 35.4045 112.597 35.4045Z" fill="#1F1F1F"/>
<path d="M78.6586 38.4771V7.93164H89.5464C91.9228 7.93164 93.8915 8.36417 95.4526 9.22923C97.0137 10.0943 98.182 11.2775 98.9576 12.7789C99.7331 14.2704 100.121 15.9508 100.121 17.8201C100.121 19.6994 99.7282 21.3897 98.9427 22.8912C98.1671 24.3826 96.9938 25.5659 95.4228 26.4409C93.8617 27.3059 91.8979 27.7385 89.5314 27.7385H82.0442V23.8308H89.1138C90.6152 23.8308 91.8333 23.5723 92.7679 23.0552C93.7026 22.5282 94.3887 21.8123 94.8262 20.9075C95.2637 20.0027 95.4824 18.9735 95.4824 17.8201C95.4824 16.6667 95.2637 15.6426 94.8262 14.7477C94.3887 13.8528 93.6976 13.1518 92.753 12.6447C91.8184 12.1376 90.5854 11.8841 89.0542 11.8841H83.2672V38.4771H78.6586Z" fill="#1F1F1F"/>
</svg>
