<svg width="131" height="40" viewBox="0 0 131 40" fill="none" xmlns="http://www.w3.org/2000/svg">
<path d="M129.735 8.06774V11.6473H117.221V8.06774H129.735ZM120.577 2.5791H125.037V24.2503C125.037 25.1153 125.166 25.7666 125.424 26.2041C125.683 26.6317 126.016 26.925 126.424 27.0841C126.841 27.2332 127.294 27.3078 127.781 27.3078C128.139 27.3078 128.452 27.2829 128.72 27.2332C128.989 27.1835 129.198 27.1437 129.347 27.1139L130.152 30.7979C129.894 30.8973 129.526 30.9967 129.049 31.0961C128.571 31.2055 127.975 31.2652 127.259 31.2751C126.086 31.295 124.992 31.0862 123.978 30.6487C122.963 30.2112 122.143 29.5351 121.517 28.6203C120.89 27.7055 120.577 26.5571 120.577 25.175V2.5791Z" fill="#1F1F1F"/>
<path d="M104.264 31.4393C102.007 31.4393 100.063 30.957 98.4324 29.9925C96.8116 29.0181 95.5588 27.6509 94.6738 25.891C93.7988 24.1211 93.3613 22.0479 93.3613 19.6715C93.3613 17.3249 93.7988 15.2567 94.6738 13.467C95.5588 11.6772 96.7917 10.2802 98.3727 9.27592C99.9636 8.27166 101.823 7.76953 103.951 7.76953C105.243 7.76953 106.496 7.98331 107.709 8.41087C108.922 8.83842 110.011 9.50959 110.976 10.4244C111.94 11.3391 112.701 12.5273 113.258 13.989C113.814 15.4407 114.093 17.2056 114.093 19.2837V20.8647H95.8819V17.5238H109.723C109.723 16.3505 109.484 15.3114 109.007 14.4066C108.53 13.4918 107.858 12.771 106.993 12.244C106.138 11.717 105.134 11.4535 103.981 11.4535C102.728 11.4535 101.634 11.7617 100.699 12.3782C99.7747 12.9847 99.0588 13.7802 98.5517 14.7646C98.0545 15.739 97.8059 16.7979 97.8059 17.9414V20.5515C97.8059 22.0827 98.0744 23.3853 98.6113 24.4592C99.1582 25.533 99.9189 26.3533 100.893 26.9201C101.868 27.4769 103.006 27.7553 104.309 27.7553C105.154 27.7553 105.925 27.636 106.621 27.3974C107.317 27.1488 107.918 26.7809 108.425 26.2937C108.932 25.8065 109.32 25.2049 109.589 24.489L113.809 25.2496C113.471 26.4925 112.865 27.5813 111.99 28.516C111.125 29.4407 110.036 30.1616 108.724 30.6786C107.421 31.1857 105.934 31.4393 104.264 31.4393Z" fill="#1F1F1F"/>
<path d="M83.4467 0.431641H88.0405V22.0879C88.0405 24.0467 87.6527 25.7221 86.8771 27.1142C86.1115 28.5062 85.0327 29.5701 83.6406 30.3059C82.2486 31.0318 80.6179 31.3947 78.7486 31.3947C77.0284 31.3947 75.4822 31.0815 74.1101 30.4551C72.7479 29.8287 71.669 28.9189 70.8736 27.7257C70.0881 26.5226 69.6953 25.0609 69.6953 23.3407H74.2741C74.2741 24.1859 74.468 24.9167 74.8558 25.5332C75.2536 26.1497 75.7955 26.6319 76.4815 26.9799C77.1776 27.318 77.973 27.487 78.8679 27.487C79.8423 27.487 80.6676 27.2832 81.3438 26.8755C82.0298 26.4579 82.5518 25.8464 82.9098 25.041C83.2678 24.2356 83.4467 23.2512 83.4467 22.0879V0.431641Z" fill="#1F1F1F"/>
<path d="M52.8715 39.5684C52.2053 39.5684 51.5988 39.5137 51.0519 39.4043C50.505 39.3049 50.0974 39.1955 49.8289 39.0762L50.9028 35.4221C51.7181 35.6408 52.444 35.7353 53.0803 35.7054C53.7167 35.6756 54.2785 35.437 54.7657 34.9895C55.2628 34.5421 55.7003 33.8113 56.0782 32.7971L56.63 31.2757L48.2479 8.06836H53.0207L58.8225 25.8468H59.0611L64.863 8.06836H69.6506L60.2096 34.035C59.7721 35.2282 59.2153 36.2374 58.5391 37.0627C57.863 37.8979 57.0576 38.5243 56.1229 38.9419C55.1883 39.3596 54.1045 39.5684 52.8715 39.5684Z" fill="#1F1F1F"/>
<path d="M33.6277 31.484C32.176 31.484 30.8635 31.2156 29.6902 30.6786C28.5169 30.1317 27.5872 29.3413 26.9012 28.3072C26.225 27.2731 25.887 26.0053 25.887 24.5039C25.887 23.2113 26.1355 22.1474 26.6327 21.3121C27.1299 20.4769 27.801 19.8157 28.6462 19.3285C29.4914 18.8413 30.436 18.4734 31.48 18.2248C32.524 17.9762 33.588 17.7873 34.6718 17.658C36.0439 17.4989 37.1576 17.3697 38.0127 17.2702C38.8678 17.1609 39.4892 16.9869 39.877 16.7482C40.2648 16.5096 40.4587 16.1218 40.4587 15.5849V15.4805C40.4587 14.1779 40.0908 13.1687 39.355 12.4528C38.6291 11.7369 37.5453 11.3789 36.1036 11.3789C34.6022 11.3789 33.4189 11.712 32.5539 12.3782C31.6988 13.0344 31.1071 13.7653 30.779 14.5707L26.588 13.6161C27.0851 12.2241 27.811 11.1005 28.7655 10.2454C29.73 9.38032 30.8387 8.7539 32.0915 8.36612C33.3443 7.96839 34.6618 7.76953 36.0439 7.76953C36.9587 7.76953 37.9282 7.87891 38.9523 8.09766C39.9864 8.30646 40.9509 8.69425 41.8458 9.26101C42.7506 9.82777 43.4914 10.6381 44.0681 11.6921C44.6448 12.7361 44.9331 14.0934 44.9331 15.7638V30.9769H40.578V27.8448H40.399C40.1107 28.4215 39.6782 28.9883 39.1014 29.5451C38.5247 30.1019 37.784 30.5643 36.8792 30.9322C35.9743 31.3001 34.8905 31.484 33.6277 31.484ZM34.5972 27.9045C35.8301 27.9045 36.8841 27.6609 37.7591 27.1736C38.6441 26.6864 39.3152 26.0501 39.7726 25.2646C40.2399 24.4691 40.4736 23.619 40.4736 22.7141V19.761C40.3145 19.9201 40.0063 20.0692 39.5489 20.2085C39.1015 20.3377 38.5894 20.4521 38.0127 20.5515C37.436 20.641 36.8742 20.7255 36.3273 20.805C35.7804 20.8746 35.323 20.9343 34.9551 20.984C34.0901 21.0934 33.2996 21.2773 32.5837 21.5359C31.8777 21.7944 31.311 22.1673 30.8834 22.6545C30.4658 23.1317 30.257 23.7681 30.257 24.5636C30.257 25.6673 30.6647 26.5025 31.48 27.0692C32.2953 27.6261 33.3344 27.9045 34.5972 27.9045Z" fill="#1F1F1F"/>
<path d="M0.658569 30.9771V0.431641H11.5464C13.9228 0.431641 15.8915 0.86417 17.4526 1.72923C19.0137 2.59428 20.182 3.77752 20.9576 5.27894C21.7331 6.77042 22.1209 8.45082 22.1209 10.3201C22.1209 12.1994 21.7282 13.8897 20.9427 15.3912C20.1671 16.8826 18.9938 18.0659 17.4228 18.9409C15.8617 19.8059 13.8979 20.2385 11.5314 20.2385H4.04422V16.3308H11.1138C12.6152 16.3308 13.8333 16.0723 14.7679 15.5552C15.7026 15.0282 16.3887 14.3123 16.8262 13.4075C17.2637 12.5027 17.4824 11.4735 17.4824 10.3201C17.4824 9.16673 17.2637 8.14258 16.8262 7.24769C16.3887 6.35281 15.6976 5.65181 14.753 5.14471C13.8184 4.63761 12.5854 4.38406 11.0542 4.38406H5.26723V30.9771H0.658569Z" fill="#1F1F1F"/>
</svg>
