<svg width="182" height="52" viewBox="0 0 182 52" fill="none" xmlns="http://www.w3.org/2000/svg">
<path d="M180.689 10.375V18.1875H160.923V10.375H180.689ZM164.751 3.1875H175.533V30.7266C175.533 31.1432 175.604 31.4948 175.747 31.7812C175.891 32.0547 176.112 32.263 176.411 32.4062C176.711 32.5365 177.095 32.6016 177.564 32.6016C177.889 32.6016 178.267 32.5625 178.697 32.4844C179.139 32.4062 179.465 32.3411 179.673 32.2891L181.236 39.8672C180.754 40.0104 180.064 40.1862 179.165 40.3945C178.28 40.6029 177.225 40.7396 176.001 40.8047C173.527 40.9349 171.451 40.681 169.771 40.043C168.091 39.3919 166.828 38.3698 165.982 36.9766C165.135 35.5833 164.725 33.8385 164.751 31.7422V3.1875Z" fill="black"/>
<path d="M143.711 40.9219C140.508 40.9219 137.748 40.3099 135.43 39.0859C133.125 37.849 131.348 36.0781 130.098 33.7734C128.861 31.4557 128.243 28.6823 128.243 25.4531C128.243 22.3542 128.868 19.6458 130.118 17.3281C131.368 15.0104 133.132 13.207 135.411 11.918C137.689 10.6289 140.378 9.98438 143.477 9.98438C145.743 9.98438 147.793 10.3359 149.629 11.0391C151.465 11.7422 153.034 12.7643 154.336 14.1055C155.638 15.4336 156.641 17.0482 157.344 18.9492C158.047 20.8503 158.399 22.9922 158.399 25.375V27.875H131.602V21.9375H148.477C148.464 21.0781 148.243 20.3229 147.813 19.6719C147.396 19.0078 146.83 18.4935 146.114 18.1289C145.411 17.7513 144.61 17.5625 143.711 17.5625C142.839 17.5625 142.038 17.7513 141.309 18.1289C140.58 18.4935 139.994 19.0013 139.551 19.6523C139.121 20.3034 138.894 21.0651 138.868 21.9375V28.3438C138.868 29.3073 139.069 30.1667 139.473 30.9219C139.877 31.6771 140.456 32.2695 141.211 32.6992C141.967 33.1289 142.878 33.3438 143.946 33.3438C144.688 33.3438 145.365 33.2396 145.977 33.0312C146.602 32.8229 147.136 32.5234 147.578 32.1328C148.021 31.7292 148.347 31.2474 148.555 30.6875H158.399C158.06 32.7708 157.259 34.5807 155.996 36.1172C154.733 37.6406 153.06 38.8255 150.977 39.6719C148.907 40.5052 146.485 40.9219 143.711 40.9219Z" fill="black"/>
<path d="M113.33 0.375H124.034V27.7969C124.021 30.401 123.363 32.6927 122.061 34.6719C120.772 36.638 118.988 38.1745 116.709 39.2812C114.444 40.375 111.833 40.9219 108.877 40.9219C106.312 40.9219 103.968 40.4792 101.846 39.5938C99.7237 38.6953 98.031 37.2891 96.768 35.375C95.5049 33.4479 94.8799 30.9479 94.893 27.875H105.752C105.791 28.8776 105.961 29.724 106.26 30.4141C106.573 31.1042 107.002 31.625 107.549 31.9766C108.109 32.3151 108.786 32.4844 109.58 32.4844C110.388 32.4844 111.065 32.3086 111.612 31.957C112.172 31.6055 112.595 31.0846 112.881 30.3945C113.168 29.6914 113.317 28.8255 113.33 27.7969V0.375Z" fill="black"/>
<path d="M73.7015 51.625C72.4646 51.625 71.2862 51.5273 70.1664 51.332C69.0466 51.1497 68.0635 50.8958 67.2172 50.5703L69.5609 42.9141C70.4463 43.2266 71.2536 43.4284 71.9828 43.5195C72.725 43.6107 73.3565 43.5586 73.8773 43.3633C74.4112 43.168 74.7953 42.7969 75.0297 42.25L75.264 41.7031L64.7172 10.375H75.9672L80.8109 31.1562H81.1234L86.0453 10.375H97.3734L86.4359 42.875C85.889 44.5286 85.0948 46.013 84.0531 47.3281C83.0245 48.6562 81.6703 49.7044 79.9906 50.4727C78.3109 51.2409 76.2146 51.625 73.7015 51.625Z" fill="black"/>
<path d="M44.0775 40.8438C42.1635 40.8438 40.4707 40.5312 38.9994 39.9062C37.5411 39.2682 36.3952 38.3047 35.5619 37.0156C34.7286 35.7266 34.3119 34.0859 34.3119 32.0938C34.3119 30.4531 34.5918 29.0534 35.1517 27.8945C35.7116 26.7227 36.4929 25.7656 37.4955 25.0234C38.4981 24.2812 39.6635 23.7148 40.9916 23.3242C42.3327 22.9336 43.778 22.6797 45.3275 22.5625C47.0072 22.4323 48.3549 22.276 49.3705 22.0938C50.3991 21.8984 51.1413 21.6315 51.597 21.293C52.0528 20.9414 52.2806 20.4792 52.2806 19.9062V19.8281C52.2806 19.0469 51.9812 18.4479 51.3822 18.0312C50.7832 17.6146 50.015 17.4062 49.0775 17.4062C48.0489 17.4062 47.209 17.6341 46.558 18.0898C45.92 18.5326 45.5358 19.2161 45.4056 20.1406H35.4838C35.614 18.3177 36.1934 16.638 37.222 15.1016C38.2637 13.5521 39.7806 12.3151 41.7728 11.3906C43.765 10.4531 46.252 9.98438 49.2338 9.98438C51.3822 9.98438 53.3093 10.2383 55.015 10.7461C56.7207 11.2409 58.1726 11.9375 59.3705 12.8359C60.5684 13.7214 61.4799 14.763 62.1049 15.9609C62.7429 17.1458 63.0619 18.4349 63.0619 19.8281V40.375H52.9838V36.1562H52.7494C52.1504 37.276 51.4213 38.181 50.5619 38.8711C49.7155 39.5612 48.7455 40.0625 47.6517 40.375C46.571 40.6875 45.3796 40.8438 44.0775 40.8438ZM47.5931 34.0469C48.4135 34.0469 49.1817 33.8776 49.8978 33.5391C50.627 33.2005 51.2194 32.7122 51.6752 32.0742C52.1309 31.4362 52.3588 30.6615 52.3588 29.75V27.25C52.0723 27.3672 51.7663 27.4779 51.4408 27.582C51.1283 27.6862 50.7898 27.7839 50.4252 27.875C50.0736 27.9661 49.696 28.0508 49.2924 28.1289C48.9017 28.207 48.4916 28.2786 48.0619 28.3438C47.2286 28.474 46.545 28.6888 46.0111 28.9883C45.4903 29.2747 45.0996 29.6328 44.8392 30.0625C44.5918 30.4792 44.4681 30.9479 44.4681 31.4688C44.4681 32.3021 44.7611 32.9401 45.347 33.3828C45.933 33.8255 46.6817 34.0469 47.5931 34.0469Z" fill="black"/>
<path d="M0.810913 40.375V0.375H18.0765C21.0453 0.375 23.6429 0.960938 25.8695 2.13281C28.0961 3.30469 29.8278 4.95182 31.0648 7.07422C32.3018 9.19662 32.9203 11.6771 32.9203 14.5156C32.9203 17.3802 32.2823 19.8607 31.0062 21.957C29.7432 24.0534 27.9659 25.668 25.6742 26.8008C23.3955 27.9336 20.7328 28.5 17.6859 28.5H7.37341V20.0625H15.4984C16.7745 20.0625 17.8617 19.8411 18.7601 19.3984C19.6716 18.9427 20.3682 18.2982 20.85 17.4648C21.3448 16.6315 21.5922 15.6484 21.5922 14.5156C21.5922 13.3698 21.3448 12.3932 20.85 11.5859C20.3682 10.7656 19.6716 10.1406 18.7601 9.71094C17.8617 9.26823 16.7745 9.04687 15.4984 9.04687H11.6703V40.375H0.810913Z" fill="black"/>
</svg>
