<svg width="81" height="80" viewBox="0 0 81 80" fill="none" xmlns="http://www.w3.org/2000/svg">
<rect x="0.5" width="80" height="80" rx="40" fill="#3A0CA3"/>
<path fill-rule="evenodd" clip-rule="evenodd" d="M32.1671 31.4783H27.5956C26.1882 31.4783 25.0215 32.5701 24.9279 33.9739C24.6472 38.1826 23.9038 49.3355 23.5099 55.2467C23.4279 56.4776 23.8593 57.6871 24.7016 58.5882C25.5447 59.4884 26.723 60 27.9566 60H52.4211C53.6547 60 54.833 59.4884 55.6762 58.5882C56.5184 57.6871 56.9498 56.4776 56.8678 55.2467L55.4498 33.9739C55.3562 32.5701 54.1895 31.4783 52.7821 31.4783H48.2106V27.0217C48.2106 22.5911 44.6195 19 40.1889 19C35.7582 19 32.1671 22.5911 32.1671 27.0217V31.4783ZM48.2106 33.2609V39.5C48.2106 39.992 47.8113 40.3913 47.3193 40.3913C46.8273 40.3913 46.428 39.992 46.428 39.5V33.2609H33.9497V39.5C33.9497 39.992 33.5504 40.3913 33.0584 40.3913C32.5664 40.3913 32.1671 39.992 32.1671 39.5V33.2609H27.5956C27.1268 33.2609 26.7373 33.6245 26.7061 34.0925C26.4262 38.3012 25.682 49.4541 25.288 55.3652C25.239 56.1041 25.4984 56.8296 26.0037 57.3706C26.5091 57.9108 27.2159 58.2174 27.9566 58.2174H52.4211C53.1618 58.2174 53.8686 57.9108 54.374 57.3706C54.8793 56.8296 55.1387 56.1041 55.0897 55.3652L53.6716 34.0925C53.6404 33.6245 53.2509 33.2609 52.7821 33.2609H48.2106ZM46.428 31.4783V27.0217C46.428 23.576 43.6346 20.7826 40.1889 20.7826C36.7431 20.7826 33.9497 23.576 33.9497 27.0217V31.4783H46.428Z" fill="white"/>
</svg>
