<svg width="19" height="31" viewBox="0 0 23 36" fill="none" xmlns="http://www.w3.org/2000/svg">
<path d="M19.125 0C20.9531 0 22.5 1.54688 22.5 3.375V32.625C22.5 34.5234 20.9531 36 19.125 36H3.375C1.47656 36 0 34.5234 0 32.625V3.375C0 1.54688 1.47656 0 3.375 0H19.125ZM11.25 33.75C12.4453 33.75 13.5 32.7656 13.5 31.5C13.5 30.3047 12.4453 29.25 11.25 29.25C9.98438 29.25 9 30.3047 9 31.5C9 32.7656 9.98438 33.75 11.25 33.75ZM19.125 26.1562V4.21875C19.125 3.79688 18.7031 3.375 18.2812 3.375H4.21875C3.72656 3.375 3.375 3.79688 3.375 4.21875V26.1562C3.375 26.6484 3.72656 27 4.21875 27H18.2812C18.7031 27 19.125 26.6484 19.125 26.1562Z" fill="#FF7A2F"/>
</svg>
