<svg width="38" height="38" viewBox="0 0 48 48" fill="none" xmlns="http://www.w3.org/2000/svg">
<path d="M36.6189 24.0618C36.6189 17.2794 30.9577 11.7617 24.0001 11.7617C17.0415 11.7617 11.3804 17.2794 11.3804 24.0618C11.3804 30.8442 17.0414 36.3627 24.0001 36.3627C30.9577 36.3627 36.6189 30.8442 36.6189 24.0618ZM22.8254 31.2883V30.1024C21.9828 30.1024 21.1473 30.0323 20.1448 29.3356C19.6115 28.9651 19.4799 28.2327 19.8504 27.7001C20.2208 27.1674 20.9523 27.0351 21.4856 27.4055C21.8027 27.6264 22.1661 27.7495 22.5083 27.7526H25.3337C25.34 27.7526 25.3455 27.7534 25.3518 27.7534C26.0354 27.7534 26.6047 27.1978 26.6047 26.4946C26.6047 25.8014 26.0424 25.2367 25.3518 25.2367H22.6485C20.6618 25.2367 19.0455 23.6184 19.0455 21.6289C19.0455 19.8029 20.4284 18.0211 22.8255 18.0211V16.836C22.8255 16.1874 23.351 15.661 24.0002 15.661C24.6486 15.661 25.1749 16.1874 25.1749 16.836V18.0211C26.4402 18.0211 27.5188 18.5437 28.2854 19.3636C28.7286 19.8375 28.7035 20.5808 28.2297 21.0241C27.756 21.4675 27.0128 21.4424 26.5696 20.9685C26.2188 20.5933 25.7403 20.3756 25.2556 20.3709H22.6479C21.9575 20.3709 21.3949 20.9333 21.3949 21.6289C21.3949 22.3228 21.9572 22.8868 22.6487 22.8868H25.3519C27.3379 22.8868 28.9542 24.5059 28.9542 26.4946C28.9542 28.3408 27.5512 30.1024 25.1749 30.1024V31.2883C25.1749 31.9369 24.6486 32.4632 24.0002 32.4632C23.3508 32.4632 22.8254 31.9369 22.8254 31.2883Z" fill="#8298AF"/>
<path d="M13.1416 38.2834L12.5029 33.77C12.412 33.1276 11.8169 32.6792 11.1751 32.7714C10.5326 32.8622 10.0856 33.4568 10.1765 34.0992L10.3195 35.1099C9.09978 33.6046 8.12857 31.8977 7.45577 30.0581C2.69325 17.0369 14.1949 3.90453 27.6047 6.76505C28.2391 6.90008 28.8633 6.49578 28.9988 5.8612C29.1342 5.22663 28.7295 4.60247 28.095 4.46705C12.9526 1.23637 -0.181529 16.0177 5.24909 30.8652C6.00992 32.9455 7.1077 34.8768 8.48682 36.5808L7.3516 36.3628C6.71421 36.2405 6.09859 36.6577 5.97617 37.2948C5.85375 37.9321 6.27105 38.5479 6.90821 38.6703L11.6565 39.5824C12.496 39.8194 13.2576 39.101 13.1416 38.2834Z" fill="#8298AF"/>
<path d="M42.751 17.1344C41.9901 15.054 40.8924 13.1227 39.5133 11.4187L40.6486 11.6368C41.2854 11.759 41.9016 11.3419 42.024 10.7047C42.1464 10.0675 41.7291 9.45173 41.0919 9.32931L36.3427 8.41692C35.4985 8.17929 34.7434 8.9037 34.8585 9.71615L35.4972 14.2296C35.5884 14.874 36.1853 15.3195 36.825 15.2282C37.4675 15.1374 37.9146 14.5428 37.8237 13.9004L37.6806 12.8896C38.9004 14.3949 39.8716 16.1018 40.5444 17.9414C45.3066 30.9619 33.8066 44.0958 20.3955 41.2345C19.7611 41.0992 19.1368 41.5038 19.0013 42.1384C18.8659 42.7729 19.2706 43.3971 19.9052 43.5325C35.0473 46.7634 48.1816 31.982 42.751 17.1344Z" fill="#8298AF"/>
</svg>
