<svg width="71" height="54" viewBox="0 0 71 54" fill="none" xmlns="http://www.w3.org/2000/svg">
<path d="M11.2173 18.6375H15.6041C16.46 18.6375 17.1538 17.9437 17.1538 17.0878C17.1538 16.2319 16.46 15.5381 15.6041 15.5381H11.2173C10.5181 15.5381 9.95142 16.1048 9.95142 16.8039V17.3715C9.95127 18.0708 10.5181 18.6375 11.2173 18.6375Z" fill="#FF7A2F"/>
<path d="M44.3958 11.7393C40.3574 11.5733 36.6635 13.0429 33.9195 15.5386H21.8542C21.0009 15.5386 20.2691 16.2061 20.2534 17.0592C20.2374 17.9283 20.9373 18.6379 21.8028 18.6379H31.3324H34.9263C35.7796 18.6379 36.5114 19.3055 36.5271 20.1586C36.5431 21.0277 35.8432 21.7373 34.9777 21.7373H32.1282H32.1281H2.17982C1.44408 21.7373 0.847656 22.3337 0.847656 23.0695V23.5045C0.847656 24.2403 1.44408 24.8367 2.17982 24.8367H29.1998H34.9262C35.7795 24.8367 36.5113 25.5042 36.527 26.3574C36.5429 27.2265 35.843 27.9361 34.9776 27.9361H32.4238H29.1998H26.7475C25.8942 27.9361 25.1624 28.6036 25.1467 29.4567C25.1309 30.3258 25.8306 31.0355 26.6961 31.0355H29.8714H32.4238H34.1992C35.0523 31.0355 35.7843 31.7028 35.7999 32.556C35.8159 33.4251 35.1163 34.1345 34.2508 34.1348H25.1464C24.2905 34.1348 23.5969 34.8286 23.5969 35.6844C23.5969 36.5403 24.2907 37.2341 25.1465 37.2341H33.9195C36.5229 39.6019 39.9814 41.0461 43.7779 41.0461C51.9433 41.0461 58.5496 34.3702 58.4361 26.1787C58.3287 18.4391 52.1289 12.0571 44.3958 11.7393ZM48.7617 32.0633C48.4331 32.7288 47.9882 33.2839 47.4266 33.7289C46.8648 34.174 46.2082 34.5089 45.4564 34.7336C45.2632 34.7912 45.0667 34.8414 44.8667 34.8842V36.753C44.8667 37.4777 44.2792 38.0653 43.5545 38.0653C42.8298 38.0653 42.2422 37.4777 42.2422 36.753V35.0373C42.2422 35.0373 42.2438 35.0375 42.2445 35.0375C41.9624 35.0137 41.6913 34.9774 41.4317 34.9276C40.9347 34.8324 40.4963 34.7182 40.1161 34.5841C39.7357 34.4503 39.4182 34.31 39.1634 34.1628C38.9084 34.016 38.7247 33.8865 38.6126 33.7741C38.5001 33.6619 38.4201 33.4998 38.3728 33.2879C38.3252 33.0764 38.3016 32.7718 38.3016 32.3741C38.3016 32.1064 38.3101 31.8815 38.3274 31.7001C38.3447 31.5185 38.3728 31.3717 38.4117 31.2594C38.4506 31.147 38.5024 31.0671 38.5673 31.0196C38.6321 30.9722 38.7076 30.9484 38.7941 30.9484C38.915 30.9484 39.0858 31.0196 39.3061 31.1623C39.5263 31.3048 39.8093 31.4627 40.155 31.6354C40.5005 31.8083 40.9132 31.9658 41.3928 32.1084C41.8724 32.2509 42.4275 32.3223 43.0585 32.3223C43.4732 32.3223 43.8447 32.2727 44.1732 32.1733C44.5015 32.074 44.7803 31.9336 45.0093 31.752C45.2381 31.5706 45.4131 31.346 45.5341 31.0781C45.655 30.8104 45.7157 30.5123 45.7157 30.1836C45.7157 29.8036 45.6119 29.4772 45.4045 29.205C45.1972 28.9327 44.927 28.691 44.5944 28.4791C44.2616 28.2675 43.8836 28.0689 43.4603 27.8828C43.0368 27.6971 42.6003 27.5004 42.1512 27.2931C41.7018 27.0856 41.2654 26.8503 40.8421 26.5866C40.4185 26.3233 40.0405 26.0079 39.7079 25.6405C39.3751 25.2732 39.1051 24.839 38.8979 24.3378C38.6905 23.8367 38.5867 23.2361 38.5867 22.5362C38.5867 21.7325 38.7358 21.0261 39.0338 20.4169C39.3319 19.8077 39.7337 19.3021 40.2393 18.9003C40.7447 18.4985 41.341 18.1984 42.028 17.9994C42.099 17.979 42.1704 17.9598 42.2422 17.9414V16.0189C42.2422 15.294 42.8298 14.7066 43.5545 14.7066C44.2792 14.7066 44.8667 15.294 44.8667 16.0189V17.7291C45.046 17.744 45.2252 17.7648 45.4045 17.7921C45.8019 17.8526 46.1735 17.9346 46.5193 18.0383C46.8648 18.1419 47.1716 18.2587 47.4396 18.3883C47.7074 18.5179 47.8846 18.626 47.9711 18.7124C48.0574 18.7989 48.1156 18.8724 48.1461 18.9328C48.1763 18.9935 48.2022 19.0734 48.2239 19.1725C48.2453 19.2719 48.2604 19.3973 48.2691 19.5484C48.2777 19.6997 48.2822 19.8875 48.2822 20.1122C48.2822 20.3629 48.2757 20.5745 48.2627 20.7473C48.2498 20.9203 48.2281 21.0628 48.1979 21.175C48.1675 21.2875 48.1245 21.3694 48.0683 21.4213C48.012 21.4732 47.9365 21.499 47.8415 21.499C47.7463 21.499 47.5952 21.4387 47.3878 21.3176C47.1805 21.1968 46.9255 21.065 46.6231 20.9223C46.3205 20.7798 45.9705 20.6503 45.5732 20.5336C45.1756 20.4169 44.7392 20.3586 44.2641 20.3586C43.8924 20.3586 43.5684 20.4038 43.292 20.4947C43.0154 20.5855 42.7842 20.7109 42.5984 20.8707C42.4126 21.0307 42.2744 21.2229 42.1837 21.4474C42.093 21.6722 42.0476 21.9097 42.0476 22.1603C42.0476 22.532 42.149 22.8537 42.3522 23.1259C42.5551 23.3982 42.8273 23.6402 43.1688 23.8518C43.5101 24.0637 43.8966 24.2623 44.3288 24.4481C44.7608 24.634 45.2015 24.8305 45.6508 25.0378C46.1001 25.2452 46.5407 25.4807 46.973 25.7441C47.405 26.0079 47.7895 26.3233 48.1265 26.6903C48.4634 27.0577 48.7357 27.4897 48.943 27.9864C49.1504 28.4835 49.2542 29.0687 49.2542 29.7428C49.2542 30.6245 49.0899 31.398 48.7617 32.0633Z" fill="#FF7A2F"/>
<path d="M43.6586 0C30.8434 0 20.1135 8.92809 17.3497 20.9036H20.7426C20.8783 20.3922 21.0294 19.8869 21.1977 19.3898C20.1762 19.1212 19.4196 18.1924 19.4196 17.0878C19.4196 15.7739 20.4885 14.705 21.8024 14.705H23.383C27.5413 7.86208 35.0661 3.29122 43.6586 3.29122C56.7525 3.29122 67.3671 13.9058 67.3671 26.9999C67.3671 40.0939 56.7523 50.7086 43.6586 50.7086C32.2332 50.7086 22.6963 42.6264 20.4511 31.8677H17.0972C19.3893 44.4559 30.4089 54 43.6586 54C58.5702 54 70.6585 41.9117 70.6585 27.0001C70.6585 12.0883 58.5702 0 43.6586 0Z" fill="#FF7A2F"/>
<path d="M20.4976 27.9355H14.7699C14.1977 27.9355 13.7339 28.3993 13.7339 28.9715V29.9988C13.7339 30.571 14.1978 31.0348 14.7699 31.0348H20.4976C21.3535 31.0348 22.0473 30.341 22.0473 29.4851C22.0473 28.6292 21.3533 27.9355 20.4976 27.9355Z" fill="#FF7A2F"/>
</svg>
