<svg width="35" height="31" viewBox="0 0 35 31" fill="none" xmlns="http://www.w3.org/2000/svg">
<path d="M15.9545 30.9091C13.8167 30.9091 11.8076 30.5034 9.92727 29.692C8.04697 28.8807 6.41136 27.7795 5.02045 26.3886C3.62955 24.9977 2.52841 23.3621 1.71705 21.4818C0.905682 19.6015 0.5 17.5924 0.5 15.4545C0.5 13.3167 0.905682 11.3076 1.71705 9.42727C2.52841 7.54697 3.62955 5.91136 5.02045 4.52045C6.41136 3.12955 8.04697 2.02841 9.92727 1.21705C11.8076 0.405682 13.8167 0 15.9545 0C16.2121 0 16.4955 0.00643939 16.8045 0.0193182C17.1136 0.032197 17.397 0.0515152 17.6545 0.0772727C18.0924 0.128788 18.4273 0.309091 18.6591 0.618182C18.8909 0.927273 19.0068 1.31364 19.0068 1.77727C19.0068 2.21515 18.8652 2.56932 18.5818 2.83977C18.2985 3.11023 17.9379 3.2197 17.5 3.16818C17.2424 3.14242 16.9848 3.13598 16.7273 3.14886C16.4697 3.16174 16.2121 3.16818 15.9545 3.16818C15.2848 4.09545 14.7053 5.0678 14.2159 6.08523C13.7265 7.10265 13.3273 8.16515 13.0182 9.27273H15.9545C16.3924 9.27273 16.7595 9.42083 17.0557 9.71704C17.3519 10.0133 17.5 10.3803 17.5 10.8182C17.5 11.2561 17.3519 11.6231 17.0557 11.9193C16.7595 12.2155 16.3924 12.3636 15.9545 12.3636H12.3227C12.2455 12.8788 12.1875 13.3939 12.1489 13.9091C12.1102 14.4242 12.0909 14.9394 12.0909 15.4545C12.0909 15.9697 12.1102 16.4848 12.1489 17C12.1875 17.5152 12.2455 18.0303 12.3227 18.5455H19.5864C19.6636 18.0303 19.7216 17.5152 19.7602 17C19.7989 16.4848 19.8182 15.9697 19.8182 15.4545V14.7205C19.8182 14.4886 19.8053 14.2439 19.7795 13.9864C19.728 13.5742 19.8504 13.2008 20.1466 12.8659C20.4428 12.5311 20.797 12.3636 21.2091 12.3636C21.647 12.3636 22.0205 12.4924 22.3295 12.75C22.6386 13.0076 22.8189 13.3553 22.8705 13.7932C22.8962 14.0508 22.9091 14.3277 22.9091 14.6239V15.4545C22.9091 15.9697 22.8898 16.4848 22.8511 17C22.8125 17.5152 22.7545 18.0303 22.6773 18.5455H27.9318C28.0606 18.0303 28.1572 17.5152 28.2216 17C28.286 16.4848 28.3182 15.9697 28.3182 15.4545V14.7591C28.3182 14.553 28.2924 14.3212 28.2409 14.0636C28.1894 13.6515 28.3053 13.2652 28.5886 12.9045C28.872 12.5439 29.2197 12.3636 29.6318 12.3636C30.0955 12.3636 30.4818 12.486 30.7909 12.7307C31.1 12.9754 31.2803 13.3167 31.3318 13.7545C31.3576 14.0121 31.3769 14.2955 31.3898 14.6045C31.4027 14.9136 31.4091 15.197 31.4091 15.4545C31.4091 17.5924 31.0034 19.6015 30.192 21.4818C29.3807 23.3621 28.2795 24.9977 26.8886 26.3886C25.4977 27.7795 23.8621 28.8807 21.9818 29.692C20.1015 30.5034 18.0924 30.9091 15.9545 30.9091ZM3.97727 18.5455H9.23182C9.15455 18.0303 9.09659 17.5152 9.05795 17C9.01932 16.4848 9 15.9697 9 15.4545C9 14.9394 9.01932 14.4242 9.05795 13.9091C9.09659 13.3939 9.15455 12.8788 9.23182 12.3636H3.97727C3.84848 12.8788 3.75189 13.3939 3.6875 13.9091C3.62311 14.4242 3.59091 14.9394 3.59091 15.4545C3.59091 15.9697 3.62311 16.4848 3.6875 17C3.75189 17.5152 3.84848 18.0303 3.97727 18.5455ZM5.29091 9.27273H9.85C10.0818 8.3197 10.3716 7.38598 10.7193 6.47159C11.067 5.5572 11.4727 4.66212 11.9364 3.78636C10.5197 4.25 9.2447 4.95189 8.11136 5.89205C6.97803 6.8322 6.03788 7.95909 5.29091 9.27273ZM11.9364 27.1227C11.4727 26.247 11.067 25.3519 10.7193 24.4375C10.3716 23.5231 10.0818 22.5894 9.85 21.6364H5.29091C6.03788 22.95 6.97803 24.0769 8.11136 25.017C9.2447 25.9572 10.5197 26.6591 11.9364 27.1227ZM15.9545 27.7409C16.6242 26.8136 17.2038 25.8413 17.6932 24.8239C18.1826 23.8064 18.5818 22.7439 18.8909 21.6364H13.0182C13.3273 22.7439 13.7265 23.8064 14.2159 24.8239C14.7053 25.8413 15.2848 26.8136 15.9545 27.7409ZM19.9727 27.1227C21.3894 26.6591 22.6644 25.9572 23.7977 25.017C24.9311 24.0769 25.8712 22.95 26.6182 21.6364H22.0591C21.8273 22.5894 21.5375 23.5231 21.1898 24.4375C20.842 25.3519 20.4364 26.247 19.9727 27.1227Z" fill="#8298AF"/>
<path d="M20.5909 9.46635V5.21635H34.5V9.46635C34.5 10.1183 33.9688 10.6254 33.3409 10.6254H21.75C21.098 10.6254 20.5909 10.1183 20.5909 9.46635ZM25.2273 7.82431V8.79022C25.2273 8.95925 25.348 9.07999 25.5171 9.07999H28.8012C28.9461 9.07999 29.0909 8.95925 29.0909 8.79022V7.82431C29.0909 7.67942 28.9461 7.53453 28.8012 7.53453H25.5171C25.348 7.53453 25.2273 7.67942 25.2273 7.82431ZM22.1364 7.82431V8.79022C22.1364 8.95925 22.2571 9.07999 22.4262 9.07999H24.1648C24.3097 9.07999 24.4546 8.95925 24.4546 8.79022V7.82431C24.4546 7.67942 24.3097 7.53453 24.1648 7.53453H22.4262C22.2571 7.53453 22.1364 7.67942 22.1364 7.82431ZM34.5 2.70499V3.86408H20.5909V2.70499C20.5909 2.07715 21.098 1.5459 21.75 1.5459H33.3409C33.9688 1.5459 34.5 2.07715 34.5 2.70499Z" fill="#8298AF"/>
</svg>
