<svg width="18" height="31" viewBox="0 0 23 36" fill="none" xmlns="http://www.w3.org/2000/svg">
<path d="M19.625 0C21.4531 0 23 1.54688 23 3.375V32.625C23 34.5234 21.4531 36 19.625 36H3.875C1.97656 36 0.5 34.5234 0.5 32.625V3.375C0.5 1.54688 1.97656 0 3.875 0H19.625ZM11.75 33.75C12.9453 33.75 14 32.7656 14 31.5C14 30.3047 12.9453 29.25 11.75 29.25C10.4844 29.25 9.5 30.3047 9.5 31.5C9.5 32.7656 10.4844 33.75 11.75 33.75ZM19.625 26.1562V4.21875C19.625 3.79688 19.2031 3.375 18.7812 3.375H4.71875C4.22656 3.375 3.875 3.79688 3.875 4.21875V26.1562C3.875 26.6484 4.22656 27 4.71875 27H18.7812C19.2031 27 19.625 26.6484 19.625 26.1562Z" fill="#8298AF"/>
</svg>
