<svg width="29" height="21" viewBox="0 0 34 26" fill="none" xmlns="http://www.w3.org/2000/svg">
<path d="M0 23.2143V13H34V23.2143C34 24.7812 32.7014 26 31.1667 26H2.83333C1.23958 26 0 24.7812 0 23.2143ZM11.3333 19.2679V21.5893C11.3333 21.9955 11.6285 22.2857 12.0417 22.2857H20.0694C20.4236 22.2857 20.7778 21.9955 20.7778 21.5893V19.2679C20.7778 18.9196 20.4236 18.5714 20.0694 18.5714H12.0417C11.6285 18.5714 11.3333 18.9196 11.3333 19.2679ZM3.77778 19.2679V21.5893C3.77778 21.9955 4.07292 22.2857 4.48611 22.2857H8.73611C9.09028 22.2857 9.44444 21.9955 9.44444 21.5893V19.2679C9.44444 18.9196 9.09028 18.5714 8.73611 18.5714H4.48611C4.07292 18.5714 3.77778 18.9196 3.77778 19.2679ZM34 2.78571V5.57143H0V2.78571C0 1.27679 1.23958 0 2.83333 0H31.1667C32.7014 0 34 1.27679 34 2.78571Z" fill="#8298AF"/>
</svg>
