<svg width="81" height="80" viewBox="0 0 81 80" fill="none" xmlns="http://www.w3.org/2000/svg">
<g clip-path="url(#clip0_1004_10371)">
<rect x="0.5" width="80" height="80" rx="40" fill="#7209B7"/>
<path fill-rule="evenodd" clip-rule="evenodd" d="M31.1524 50.4791C32.1516 50.4791 33.0572 49.6034 33.0572 48.3978C33.0572 47.1916 32.1527 46.3184 31.1524 46.3184C30.1591 46.3184 29.2539 47.19 29.2539 48.3978C29.2539 49.6051 30.1602 50.4791 31.1524 50.4791ZM31.1524 51.4791C32.7594 51.4791 34.0572 50.0984 34.0572 48.3978C34.0572 46.6954 32.7594 45.3184 31.1524 45.3184C29.5508 45.3184 28.2539 46.6954 28.2539 48.3978C28.2539 50.0984 29.5508 51.4791 31.1524 51.4791Z" fill="white"/>
<path fill-rule="evenodd" clip-rule="evenodd" d="M50.7677 50.4791C51.7622 50.4791 52.6715 49.6026 52.6715 48.3978C52.6715 47.1924 51.7633 46.3184 50.7677 46.3184C49.7743 46.3184 48.8691 47.19 48.8691 48.3978C48.8691 49.6051 49.7754 50.4791 50.7677 50.4791ZM50.7677 51.4791C52.3693 51.4791 53.6715 50.0984 53.6715 48.3978C53.6715 46.6954 52.3693 45.3184 50.7677 45.3184C49.166 45.3184 47.8691 46.6954 47.8691 48.3978C47.8691 50.0984 49.166 51.4791 50.7677 51.4791Z" fill="white"/>
<path fill-rule="evenodd" clip-rule="evenodd" d="M37.1973 48.3984C37.1973 47.8462 37.645 47.3984 38.1973 47.3984H43.7242C44.2765 47.3984 44.7242 47.8462 44.7242 48.3984C44.7242 48.9507 44.2765 49.3984 43.7242 49.3984H38.1973C37.645 49.3984 37.1973 48.9507 37.1973 48.3984Z" fill="white"/>
<path fill-rule="evenodd" clip-rule="evenodd" d="M28.9766 56.3145C29.5288 56.3145 29.9766 56.7622 29.9766 57.3145V61C29.9766 61.5523 29.5288 62 28.9766 62C28.4243 62 27.9766 61.5523 27.9766 61V57.3145C27.9766 56.7622 28.4243 56.3145 28.9766 56.3145Z" fill="white"/>
<path fill-rule="evenodd" clip-rule="evenodd" d="M52.9453 56.3145C53.4976 56.3145 53.9453 56.7622 53.9453 57.3145V61C53.9453 61.5523 53.4976 62 52.9453 62C52.393 62 51.9453 61.5523 51.9453 61V57.3145C51.9453 56.7622 52.393 56.3145 52.9453 56.3145Z" fill="white"/>
<path fill-rule="evenodd" clip-rule="evenodd" d="M28.8888 21C27.222 21 25.5 22.7954 25.5 25.4673V50.8596C25.5 53.5312 27.2218 55.326 28.8888 55.326H53.0298C54.7028 55.326 56.4239 53.5304 56.4239 50.8596V25.4673C56.4239 22.7963 54.7026 21 53.0298 21H28.8888ZM23.5 25.4673C23.5 22.1228 25.7301 19 28.8888 19H53.0298C56.1931 19 58.4239 22.1219 58.4239 25.4673V50.8596C58.4239 54.2052 56.1929 57.326 53.0298 57.326H28.8888C25.7303 57.326 23.5 54.2043 23.5 50.8596V25.4673Z" fill="white"/>
<path fill-rule="evenodd" clip-rule="evenodd" d="M24.3223 40.5615C24.3223 40.0092 24.77 39.5615 25.3223 39.5615H56.5964C57.1486 39.5615 57.5963 40.0092 57.5963 40.5615C57.5963 41.1138 57.1486 41.5615 56.5964 41.5615H25.3223C24.77 41.5615 24.3223 41.1138 24.3223 40.5615Z" fill="white"/>
<path fill-rule="evenodd" clip-rule="evenodd" d="M40.959 19.0029C41.5113 19.0029 41.959 19.4506 41.959 20.0029V40.5582C41.959 41.1105 41.5113 41.5582 40.959 41.5582C40.4067 41.5582 39.959 41.1105 39.959 40.5582V20.0029C39.959 19.4506 40.4067 19.0029 40.959 19.0029Z" fill="white"/>
</g>
<defs>
<clipPath id="clip0_1004_10371">
<rect x="0.5" width="80" height="80" rx="40" fill="white"/>
</clipPath>
</defs>
</svg>
